Fraunces9ptSharp-BoldItalic.ufo
<glyph name="exclam" format="2">
  <advance width="736.0"/>
  <unicode hex="0021"/>
  <outline>
    <contour>
      <point x="633.4" y="1520.3999999999999" type="curve" smooth="yes"/>
      <point x="487.99999999999994" y="1520.3999999999999"/>
      <point x="403.79999999999995" y="1451.6"/>
      <point x="373.40000000000003" y="1331.7999999999997" type="curve" smooth="yes"/>
      <point x="365.40000000000003" y="1300.3999999999999"/>
      <point x="360.4" y="1255.3999999999999"/>
      <point x="358.0" y="1212.9999999999998" type="curve" smooth="yes"/>
      <point x="301.4" y="546.9999999999999" type="line" smooth="yes"/>
      <point x="299.4" y="499.59999999999997"/>
      <point x="316.0" y="479.40000000000003"/>
      <point x="356.8" y="479.40000000000003" type="curve" smooth="yes"/>
      <point x="398.20000000000005" y="479.40000000000003"/>
      <point x="427.2" y="499.8"/>
      <point x="453.0" y="546.4" type="curve" smooth="yes"/>
      <point x="748.6" y="1209.0" type="line" smooth="yes"/>
      <point x="773.0000000000001" y="1259.8"/>
      <point x="793.8000000000001" y="1316.2"/>
      <point x="800.0" y="1351.6" type="curve" smooth="yes"/>
      <point x="824.2" y="1454.3999999999999"/>
      <point x="773.6" y="1520.3999999999999"/>
    </contour>
    <component base="period" xOffset="24.799999999999997" yOffset="0.8"/>
  </outline>
</glyph>
<glyph name="numbersign" format="2">
  <advance width="1351.0"/>
  <unicode hex="0023"/>
  <outline>
    <contour>
      <point x="597.2" y="687.6" type="curve" smooth="yes"/>
      <point x="680.0" y="836.1999999999999"/>
      <point x="869.6" y="1184.0"/>
      <point x="948.1999999999999" y="1324.6" type="curve" smooth="yes"/>
      <point x="973.0" y="1366.6000000000001"/>
      <point x="968.2" y="1395.0"/>
      <point x="929.4" y="1405.4" type="curve" smooth="yes"/>
      <point x="891.6" y="1415.4"/>
      <point x="857.4" y="1397.2"/>
      <point x="832.6" y="1356.4" type="curve" smooth="yes"/>
      <point x="759.2" y="1222.8000000000002"/>
      <point x="597.8000000000001" y="863.0"/>
      <point x="512.6" y="711.4" type="curve" smooth="yes"/>
      <point x="426.6" y="558.6"/>
      <point x="219.40000000000003" y="207.79999999999998"/>
      <point x="143.39999999999998" y="73.0" type="curve" smooth="yes"/>
      <point x="119.6" y="32.4"/>
      <point x="125.20000000000002" y="4.2"/>
      <point x="163.6" y="-6.599999999999999" type="curve" smooth="yes"/>
      <point x="202.6" y="-16.2"/>
      <point x="234.79999999999998" y="2.2"/>
      <point x="259.79999999999995" y="42.8" type="curve" smooth="yes"/>
      <point x="336.3999999999999" y="182.4"/>
      <point x="513.6" y="538.9999999999999"/>
    </contour>
    <contour>
      <point x="838.9999999999999" y="887.4" type="curve" smooth="yes"/>
      <point x="970.6" y="887.4"/>
      <point x="1236.3999999999999" y="873.2"/>
      <point x="1356.6000000000001" y="872.2" type="curve" smooth="yes"/>
      <point x="1403.8" y="873.2"/>
      <point x="1436.7999999999997" y="893.9999999999999"/>
      <point x="1450.0" y="933.4000000000001" type="curve" smooth="yes"/>
      <point x="1459.8000000000002" y="971.6"/>
      <point x="1438.2" y="991.4"/>
      <point x="1393.0" y="991.4" type="curve" smooth="yes"/>
      <point x="1275.7999999999997" y="989.6"/>
      <point x="999.8000000000002" y="973.1999999999999"/>
      <point x="864.8000000000001" y="973.1999999999999" type="curve" smooth="yes"/>
      <point x="725.4" y="971.2"/>
      <point x="452.4" y="997.1999999999999"/>
      <point x="332.40000000000003" y="996.2" type="curve" smooth="yes"/>
      <point x="287.2" y="995.4"/>
      <point x="254.2" y="976.4"/>
      <point x="241.99999999999997" y="936.4" type="curve" smooth="yes"/>
      <point x="231.2" y="898.0"/>
      <point x="251.2" y="877.0"/>
      <point x="298.2" y="877.8" type="curve" smooth="yes"/>
      <point x="421.8" y="877.0"/>
      <point x="704.9999999999999" y="885.4"/>
    </contour>
    <contour>
      <point x="983.2" y="687.6" type="curve" smooth="yes"/>
      <point x="1065.0000000000002" y="835.4"/>
      <point x="1255.6" y="1183.9999999999998"/>
      <point x="1333.2000000000003" y="1323.8" type="curve" smooth="yes"/>
      <point x="1358.8000000000002" y="1365.8"/>
      <point x="1354.2" y="1395.0"/>
      <point x="1315.1999999999998" y="1405.4" type="curve" smooth="yes"/>
      <point x="1277.4" y="1415.4"/>
      <point x="1244.2" y="1397.2"/>
      <point x="1218.8" y="1355.6000000000001" type="curve" smooth="yes"/>
      <point x="1145.6" y="1222.8000000000002"/>
      <point x="983.8000000000001" y="863.8"/>
      <point x="898.6" y="711.4" type="curve" smooth="yes"/>
      <point x="812.9999999999999" y="558.6"/>
      <point x="604.4" y="207.79999999999998"/>
      <point x="529.1999999999999" y="73.0" type="curve" smooth="yes"/>
      <point x="505.4" y="32.4"/>
      <point x="511.0" y="4.2"/>
      <point x="549.4000000000001" y="-6.599999999999999" type="curve" smooth="yes"/>
      <point x="588.6000000000001" y="-16.2"/>
      <point x="620.8000000000001" y="2.2"/>
      <point x="646.4" y="42.8" type="curve" smooth="yes"/>
      <point x="722.1999999999999" y="182.6"/>
      <point x="900.2" y="538.9999999999999"/>
    </contour>
    <contour>
      <point x="649.8000000000001" y="451.8" type="curve" smooth="yes"/>
      <point x="781.4" y="451.8"/>
      <point x="1047.3999999999999" y="438.6"/>
      <point x="1167.3999999999999" y="436.8" type="curve" smooth="yes"/>
      <point x="1214.6" y="438.4"/>
      <point x="1248.4" y="458.6"/>
      <point x="1261.8000000000002" y="498.00000000000006" type="curve" smooth="yes"/>
      <point x="1271.4" y="536.1999999999999"/>
      <point x="1249.0" y="556.0"/>
      <point x="1204.0000000000002" y="556.0" type="curve" smooth="yes"/>
      <point x="1087.6000000000001" y="554.0000000000001"/>
      <point x="810.5999999999999" y="537.6"/>
      <point x="676.6" y="537.6" type="curve" smooth="yes"/>
      <point x="537.2" y="536.4"/>
      <point x="264.0" y="561.5999999999999"/>
      <point x="144.4" y="560.8" type="curve" smooth="yes"/>
      <point x="98.2" y="560.8"/>
      <point x="65.0" y="541.6000000000001"/>
      <point x="53.60000000000001" y="501.59999999999997" type="curve" smooth="yes"/>
      <point x="43.0" y="463.20000000000005"/>
      <point x="62.8" y="442.2"/>
      <point x="109.0" y="442.4" type="curve" smooth="yes"/>
      <point x="232.6" y="442.2"/>
      <point x="515.2" y="450.6"/>
    </contour>
  </outline>
</glyph>
<glyph name="dollar" format="2">
  <advance width="1210.8000000000002"/>
  <unicode hex="0024"/>
  <outline>
    <contour>
      <point x="485.79999999999995" y="4.6" type="curve" smooth="yes"/>
      <point x="800.1999999999999" y="4.6"/>
      <point x="1071.8000000000002" y="152.0"/>
      <point x="1093.2" y="395.59999999999997" type="curve" smooth="yes"/>
      <point x="1112.4" y="537.6"/>
      <point x="1041.8000000000002" y="677.8"/>
      <point x="786.6" y="831.4" type="curve" smooth="yes"/>
      <point x="593.8000000000001" y="947.2"/>
      <point x="536.1999999999999" y="1024.8"/>
      <point x="552.0" y="1138.2" type="curve" smooth="yes"/>
      <point x="566.8" y="1261.2"/>
      <point x="689.6" y="1330.3999999999999"/>
      <point x="822.8" y="1330.3999999999999" type="curve" smooth="yes"/>
      <point x="954.8" y="1330.3999999999999"/>
      <point x="1004.5999999999999" y="1267.1999999999998"/>
      <point x="986.1999999999999" y="1159.2000000000003" type="curve" smooth="yes"/>
      <point x="968.6" y="1070.2" type="line" smooth="yes"/>
      <point x="950.0" y="976.0000000000001"/>
      <point x="1005.9999999999999" y="922.5999999999999"/>
      <point x="1091.9999999999998" y="921.8000000000001" type="curve" smooth="yes"/>
      <point x="1186.9999999999998" y="921.8000000000001"/>
      <point x="1258.4" y="999.0"/>
      <point x="1260.2" y="1100.6000000000001" type="curve" smooth="yes"/>
      <point x="1266.2" y="1251.0"/>
      <point x="1133.7999999999997" y="1393.2"/>
      <point x="826.0" y="1393.2" type="curve" smooth="yes"/>
      <point x="487.4" y="1393.2"/>
      <point x="266.2" y="1206.3999999999999"/>
      <point x="244.20000000000002" y="992.2" type="curve" smooth="yes"/>
      <point x="221.79999999999998" y="825.5999999999999"/>
      <point x="284.59999999999997" y="691.1999999999999"/>
      <point x="525.6" y="553.8" type="curve" smooth="yes"/>
      <point x="714.1999999999999" y="446.0"/>
      <point x="778.2" y="362.59999999999997"/>
      <point x="763.7999999999998" y="255.39999999999998" type="curve" smooth="yes"/>
      <point x="749.6" y="140.4"/>
      <point x="642.8000000000002" y="71.0"/>
      <point x="496.79999999999995" y="71.0" type="curve" smooth="yes"/>
      <point x="345.8" y="71.0"/>
      <point x="293.6" y="138.60000000000002"/>
      <point x="312.0" y="239.20000000000002" type="curve" smooth="yes"/>
      <point x="324.59999999999997" y="324.6" type="line" smooth="yes"/>
      <point x="343.59999999999997" y="417.2"/>
      <point x="297.0" y="475.5999999999999"/>
      <point x="215.4" y="475.6" type="curve" smooth="yes"/>
      <point x="115.80000000000001" y="475.6"/>
      <point x="37.60000000000001" y="396.00000000000006"/>
      <point x="34.60000000000001" y="280.20000000000005" type="curve" smooth="yes"/>
      <point x="27.400000000000002" y="121.99999999999999"/>
      <point x="175.0" y="4.6"/>
    </contour>
    <contour>
      <point x="716.8" y="754.2" type="line"/>
      <point x="834.6" y="1175.0"/>
      <point x="921.6" y="1374.0"/>
      <point x="956.4" y="1507.6" type="curve" smooth="yes"/>
      <point x="972.2" y="1561.6"/>
      <point x="948.6" y="1589.0"/>
      <point x="908.6" y="1589.0" type="curve" smooth="yes"/>
      <point x="865.1999999999999" y="1589.0"/>
      <point x="828.0" y="1560.8000000000002"/>
      <point x="813.0000000000001" y="1509.3999999999999" type="curve" smooth="yes"/>
      <point x="775.6" y="1363.3999999999999"/>
      <point x="768.6" y="1170.8"/>
      <point x="650.6" y="754.2" type="curve"/>
    </contour>
    <contour>
      <point x="602.6" y="668.0" type="line"/>
      <point x="487.00000000000006" y="255.59999999999997"/>
      <point x="402.2" y="63.60000000000001"/>
      <point x="364.79999999999995" y="-81.0" type="curve" smooth="yes"/>
      <point x="348.6" y="-135.99999999999997"/>
      <point x="371.8" y="-163.6"/>
      <point x="412.4" y="-163.6" type="curve" smooth="yes"/>
      <point x="456.2" y="-163.6"/>
      <point x="492.79999999999995" y="-135.20000000000002"/>
      <point x="508.2" y="-82.80000000000001" type="curve" smooth="yes"/>
      <point x="544.0" y="52.80000000000001"/>
      <point x="551.1999999999999" y="252.39999999999998"/>
      <point x="669.0" y="668.0" type="curve"/>
    </contour>
  </outline>
</glyph>
<glyph name="ampersand" format="2">
  <advance width="1488.8"/>
  <unicode hex="0026"/>
  <outline>
    <contour>
      <point x="901.5999999999999" y="1328.0" type="curve" smooth="yes"/>
      <point x="808.0" y="1328.0"/>
      <point x="722.2" y="1239.2"/>
      <point x="688.4000000000001" y="1113.3999999999996" type="curve" smooth="yes"/>
      <point x="649.0" y="969.2"/>
      <point x="686.3999999999999" y="869.0000000000001"/>
      <point x="793.6" y="828.0" type="curve" smooth="yes"/>
      <point x="888.0" y="788.0"/>
      <point x="930.6" y="747.8000000000001"/>
      <point x="984.6" y="657.4" type="curve" smooth="yes"/>
      <point x="1221.8000000000002" y="175.0" type="line" smooth="yes"/>
      <point x="1238.6000000000001" y="143.0"/>
      <point x="1265.0" y="128.4"/>
      <point x="1301.4" y="115.2" type="curve" smooth="yes"/>
      <point x="1325.0" y="105.4"/>
      <point x="1346.6000000000001" y="91.8"/>
      <point x="1345.6000000000001" y="62.8" type="curve" smooth="yes"/>
      <point x="1344.6000000000001" y="24.8"/>
      <point x="1313.2" y="0.2"/>
      <point x="1265.2" y="0.2" type="curve" smooth="yes"/>
      <point x="1008.0" y="0.2" type="line" smooth="yes"/>
      <point x="949.8000000000001" y="0.2"/>
      <point x="915.5999999999999" y="17.0"/>
      <point x="891.0000000000001" y="58.8" type="curve" smooth="yes"/>
      <point x="653.2" y="526.8" type="line" smooth="yes"/>
      <point x="604.5999999999999" y="616.8"/>
      <point x="564.2" y="672.4"/>
      <point x="486.80000000000007" y="702.0" type="curve" smooth="yes"/>
      <point x="365.8" y="753.2"/>
      <point x="307.59999999999997" y="880.4000000000001"/>
      <point x="355.4" y="1040.6000000000001" type="curve" smooth="yes"/>
      <point x="418.20000000000005" y="1248.8"/>
      <point x="637.1999999999999" y="1425.0"/>
      <point x="964.2" y="1425.0" type="curve" smooth="yes"/>
      <point x="1218.4" y="1425.0"/>
      <point x="1361.2" y="1285.6000000000001"/>
      <point x="1307.0000000000002" y="1089.8" type="curve" smooth="yes"/>
      <point x="1259.5999999999997" y="923.5999999999999"/>
      <point x="1095.0000000000002" y="802.0"/>
      <point x="765.0" y="761.6" type="curve"/>
      <point x="771.4000000000001" y="802.4" type="line"/>
      <point x="877.3999999999999" y="839.6"/>
      <point x="950.3999999999997" y="944.8"/>
      <point x="988.3999999999999" y="1100.4" type="curve" smooth="yes"/>
      <point x="1023.2" y="1244.0"/>
      <point x="990.8000000000001" y="1328.0"/>
    </contour>
    <contour>
      <point x="600.2" y="657.0" type="line"/>
      <point x="516.6" y="649.3999999999999"/>
      <point x="424.2" y="530.4"/>
      <point x="391.2" y="418.6" type="curve" smooth="yes"/>
      <point x="342.6" y="246.79999999999998"/>
      <point x="404.59999999999997" y="141.6"/>
      <point x="538.2" y="141.6" type="curve" smooth="yes"/>
      <point x="643.4000000000001" y="141.6"/>
      <point x="737.8000000000001" y="183.0"/>
      <point x="824.4" y="279.2" type="curve"/>
      <point x="895.6" y="224.39999999999998" type="line"/>
      <point x="741.5999999999999" y="65.0"/>
      <point x="572.8" y="-25.0"/>
      <point x="357.0" y="-25.0" type="curve" smooth="yes"/>
      <point x="87.00000000000001" y="-25.0"/>
      <point x="-13.399999999999999" y="138.6"/>
      <point x="27.600000000000005" y="332.2" type="curve" smooth="yes"/>
      <point x="69.20000000000002" y="528.6"/>
      <point x="305.6" y="697.8"/>
      <point x="618.8000000000001" y="717.6" type="curve"/>
    </contour>
    <contour>
      <point x="1046.4" y="394.4" type="line"/>
      <point x="1183.0" y="550.4000000000001" type="line" smooth="yes"/>
      <point x="1239.6000000000001" y="618.4000000000001"/>
      <point x="1236.6000000000001" y="663.6"/>
      <point x="1195.2" y="678.2" type="curve" smooth="yes"/>
      <point x="1160.8" y="688.4" type="line" smooth="yes"/>
      <point x="1140.8" y="694.6"/>
      <point x="1122.1999999999998" y="713.0"/>
      <point x="1122.8000000000002" y="737.2" type="curve" smooth="yes"/>
      <point x="1123.4" y="772.8"/>
      <point x="1150.1999999999998" y="800.8000000000001"/>
      <point x="1203.1999999999998" y="800.8000000000001" type="curve" smooth="yes"/>
      <point x="1470.0" y="800.8000000000001" type="line" smooth="yes"/>
      <point x="1516.6000000000001" y="800.8000000000001"/>
      <point x="1537.4" y="781.4"/>
      <point x="1536.6" y="747.0" type="curve" smooth="yes"/>
      <point x="1536.0000000000002" y="717.9999999999999"/>
      <point x="1511.3999999999999" y="692.4"/>
      <point x="1467.1999999999998" y="674.4" type="curve" smooth="yes"/>
      <point x="1401.6" y="647.0000000000001"/>
      <point x="1346.8" y="600.8000000000001"/>
      <point x="1274.6" y="518.1999999999999" type="curve" smooth="yes"/>
      <point x="1102.3999999999999" y="331.99999999999994" type="line"/>
    </contour>
  </outline>
</glyph>
<glyph name="quotesingle" format="2">
  <advance width="405.4"/>
  <unicode hex="0027"/>
  <outline>
    <contour>
      <point x="287.2" y="824.0" type="curve" smooth="yes"/>
      <point x="330.00000000000006" y="824.0"/>
      <point x="364.59999999999997" y="847.0"/>
      <point x="389.0" y="898.6" type="curve" smooth="yes"/>
      <point x="581.4000000000001" y="1324.4" type="line" smooth="yes"/>
      <point x="652.7999999999998" y="1475.6"/>
      <point x="627.8000000000002" y="1566.0"/>
      <point x="496.2" y="1566.0" type="curve" smooth="yes"/>
      <point x="366.2" y="1566.0"/>
      <point x="289.79999999999995" y="1480.0"/>
      <point x="276.2" y="1323.6" type="curve" smooth="yes"/>
      <point x="233.2" y="900.1999999999999" type="line" smooth="yes"/>
      <point x="229.2" y="851.0"/>
      <point x="251.4" y="824.0"/>
    </contour>
  </outline>
</glyph>
<glyph name="parenleft" format="2">
  <advance width="761.4"/>
  <unicode hex="0028"/>
  <outline>
    <contour>
      <point x="207.0" y="637.8" type="curve" smooth="yes"/>
      <point x="89.80000000000001" y="205.20000000000002"/>
      <point x="224.6" y="-126.19999999999999"/>
      <point x="449.59999999999997" y="-238.60000000000002" type="curve" smooth="yes"/>
      <point x="502.40000000000003" y="-258.20000000000005"/>
      <point x="541.4000000000001" y="-255.6"/>
      <point x="561.2" y="-228.8" type="curve" smooth="yes"/>
      <point x="575.2" y="-210.00000000000003"/>
      <point x="566.4" y="-187.2"/>
      <point x="544.5999999999999" y="-154.0" type="curve" smooth="yes"/>
      <point x="435.2" y="15.2"/>
      <point x="403.80000000000007" y="309.2"/>
      <point x="491.0" y="637.8" type="curve" smooth="yes"/>
      <point x="576.0000000000001" y="956.6000000000001"/>
      <point x="751.8" y="1234.8"/>
      <point x="957.2" y="1407.2000000000003" type="curve" smooth="yes"/>
      <point x="997.5999999999999" y="1441.6000000000001"/>
      <point x="1018.2000000000002" y="1463.0"/>
      <point x="1016.0000000000001" y="1482.0" type="curve" smooth="yes"/>
      <point x="1012.8000000000001" y="1508.9999999999998"/>
      <point x="974.4" y="1513.2"/>
      <point x="911.8000000000001" y="1491.8" type="curve" smooth="yes"/>
      <point x="620.4000000000001" y="1376.2"/>
      <point x="320.2" y="1059.8"/>
    </contour>
  </outline>
</glyph>
<glyph name="asterisk" format="2">
  <advance width="1248.6000000000001"/>
  <unicode hex="002A"/>
  <outline>
    <contour>
      <point x="765.8" y="1002.4" type="line"/>
      <point x="818.0" y="1207.4"/>
      <point x="993.2" y="1312.8000000000002"/>
      <point x="1027.8000000000002" y="1440.0" type="curve" smooth="yes"/>
      <point x="1050.2" y="1524.4"/>
      <point x="1000.4000000000001" y="1569.3999999999999"/>
      <point x="898.2" y="1569.3999999999999" type="curve" smooth="yes"/>
      <point x="788.1999999999999" y="1569.3999999999999"/>
      <point x="720.8" y="1524.3999999999999"/>
      <point x="697.8000000000001" y="1440.0" type="curve" smooth="yes"/>
      <point x="663.8" y="1313.6"/>
      <point x="779.2" y="1207.4"/>
      <point x="726.2" y="1002.4" type="curve"/>
    </contour>
    <contour>
      <point x="744.2" y="1019.0000000000001" type="curve"/>
      <point x="746.9999999999999" y="984.4" type="line"/>
      <point x="951.8" y="1049.1999999999998"/>
      <point x="1076.2000000000003" y="945.2"/>
      <point x="1209.4" y="983.8" type="curve" smooth="yes"/>
      <point x="1296.0" y="1010.4"/>
      <point x="1340.6000000000001" y="1081.0"/>
      <point x="1333.6" y="1176.3999999999999" type="curve" smooth="yes"/>
      <point x="1327.8000000000002" y="1278.8000000000002"/>
      <point x="1278.3999999999999" y="1316.0"/>
      <point x="1191.6000000000001" y="1290.2" type="curve" smooth="yes"/>
      <point x="1058.3999999999999" y="1251.0"/>
      <point x="949.8000000000001" y="1082.8"/>
    </contour>
    <contour>
      <point x="757.0" y="1019.3999999999997" type="line"/>
      <point x="583.4" y="1083.2"/>
      <point x="568.4" y="1251.0"/>
      <point x="456.40000000000003" y="1290.2" type="curve" smooth="yes"/>
      <point x="383.19999999999993" y="1316.0"/>
      <point x="308.6" y="1273.6000000000001"/>
      <point x="251.40000000000003" y="1177.6000000000001" type="curve" smooth="yes"/>
      <point x="189.4" y="1076.2"/>
      <point x="197.60000000000002" y="1010.4000000000001"/>
      <point x="270.0" y="983.8000000000001" type="curve" smooth="yes"/>
      <point x="382.8" y="945.2"/>
      <point x="562.1999999999999" y="1049.4"/>
      <point x="734.4" y="984.8" type="curve"/>
    </contour>
    <contour>
      <point x="732.8000000000001" y="1012.4" type="line"/>
      <point x="573.2" y="846.1999999999999"/>
      <point x="389.19999999999993" y="844.2"/>
      <point x="284.79999999999995" y="742.0" type="curve" smooth="yes"/>
      <point x="217.4" y="673.6"/>
      <point x="221.59999999999997" y="602.6"/>
      <point x="288.20000000000005" y="542.6" type="curve" smooth="yes"/>
      <point x="359.4" y="480.2"/>
      <point x="432.20000000000005" y="484.4"/>
      <point x="499.20000000000005" y="552.8" type="curve" smooth="yes"/>
      <point x="603.6" y="655.2000000000002"/>
      <point x="599.0000000000001" y="824.5999999999999"/>
      <point x="757.8" y="991.0" type="curve"/>
    </contour>
    <contour>
      <point x="726.8" y="990.8000000000001" type="line"/>
      <point x="801.4000000000001" y="824.6000000000001"/>
      <point x="702.8" y="656.0"/>
      <point x="750.6" y="552.8000000000001" type="curve" smooth="yes"/>
      <point x="781.8" y="484.4"/>
      <point x="858.8000000000001" y="482.79999999999995"/>
      <point x="957.2" y="542.4000000000001" type="curve" smooth="yes"/>
      <point x="1063.0" y="606.0"/>
      <point x="1100.0" y="673.6"/>
      <point x="1069.0" y="742.0" type="curve" smooth="yes"/>
      <point x="1021.2" y="844.1999999999999"/>
      <point x="840.0" y="846.1999999999999"/>
      <point x="764.6" y="1012.2" type="curve"/>
    </contour>
  </outline>
</glyph>
<glyph name="plus" format="2">
  <advance width="1133.0"/>
  <unicode hex="002B"/>
  <outline>
    <contour>
      <point x="501.40000000000003" y="241.79999999999998" type="curve" smooth="yes"/>
      <point x="549.1999999999999" y="241.0"/>
      <point x="584.5999999999999" y="267.40000000000003"/>
      <point x="594.6000000000001" y="298.6000000000001" type="curve" smooth="yes"/>
      <point x="801.8" y="1067.4" type="line" smooth="yes"/>
      <point x="811.0" y="1098.6000000000001"/>
      <point x="792.8" y="1125.4"/>
      <point x="744.5999999999999" y="1126.2" type="curve" smooth="yes"/>
      <point x="697.2" y="1126.2"/>
      <point x="659.7999999999998" y="1100.3999999999999"/>
      <point x="650.6" y="1069.3999999999999" type="curve" smooth="yes"/>
      <point x="443.2" y="301.6" type="line" smooth="yes"/>
      <point x="433.4" y="269.40000000000003"/>
      <point x="453.79999999999995" y="241.79999999999998"/>
    </contour>
    <component base="minus" xOffset="-4.8" yOffset="3.2"/>
  </outline>
</glyph>
<glyph name="comma" format="2">
  <advance width="610.4"/>
  <unicode hex="002C"/>
  <outline>
    <contour>
      <point x="167.8" y="6.6000000000000005" type="curve" smooth="yes"/>
      <point x="232.59999999999997" y="-3.0" type="line" smooth="yes"/>
      <point x="276.4" y="-9.399999999999999"/>
      <point x="290.59999999999997" y="-16.4"/>
      <point x="288.2" y="-45.4" type="curve" smooth="yes"/>
      <point x="283.40000000000003" y="-104.60000000000001"/>
      <point x="200.20000000000002" y="-216.39999999999998"/>
      <point x="24.0" y="-285.2" type="curve" smooth="yes"/>
      <point x="-33.0" y="-306.4"/>
      <point x="-50.0" y="-328.6"/>
      <point x="-38.0" y="-359.59999999999997" type="curve" smooth="yes"/>
      <point x="-26.4" y="-388.2"/>
      <point x="16.4" y="-397.0"/>
      <point x="90.19999999999999" y="-369.59999999999997" type="curve" smooth="yes"/>
      <point x="299.8" y="-287.40000000000003"/>
      <point x="464.2" y="-97.0"/>
      <point x="475.2" y="140.6" type="curve"/>
      <point x="481.0" y="261.2"/>
      <point x="419.8" y="345.20000000000005"/>
      <point x="290.2" y="345.20000000000005" type="curve" smooth="yes"/>
      <point x="153.2" y="345.20000000000005"/>
      <point x="54.40000000000002" y="242.6"/>
      <point x="52.0" y="143.79999999999998" type="curve" smooth="yes"/>
      <point x="49.59999999999999" y="70.19999999999999"/>
      <point x="90.2" y="18.599999999999998"/>
    </contour>
  </outline>
</glyph>
<glyph name="hyphen" format="2">
  <advance width="767.1999999999999"/>
  <unicode hex="002D"/>
  <outline>
    <contour>
      <point x="675.4" y="645.8" type="curve" smooth="yes"/>
      <point x="198.00000000000003" y="645.8" type="line" smooth="yes"/>
      <point x="163.4" y="645.8"/>
      <point x="143.0" y="634.8"/>
      <point x="124.60000000000001" y="596.4" type="curve" smooth="yes"/>
      <point x="84.60000000000001" y="495.99999999999994" type="line" smooth="yes"/>
      <point x="64.0" y="456.20000000000005"/>
      <point x="76.80000000000001" y="436.0"/>
      <point x="119.00000000000003" y="436.0" type="curve" smooth="yes"/>
      <point x="594.4000000000001" y="436.0" type="line" smooth="yes"/>
      <point x="629.8000000000001" y="436.0"/>
      <point x="649.8" y="446.4"/>
      <point x="668.8000000000001" y="484.6" type="curve" smooth="yes"/>
      <point x="709.6" y="585.4" type="line" smooth="yes"/>
      <point x="729.4000000000001" y="625.0000000000001"/>
      <point x="717.4" y="645.8"/>
    </contour>
  </outline>
</glyph>
<glyph name="period" format="2">
  <advance width="586.6"/>
  <unicode hex="002E"/>
  <outline>
    <contour>
      <point x="204.8" y="-20.0" type="curve" smooth="yes"/>
      <point x="362.4" y="-20.0"/>
      <point x="463.40000000000003" y="71.99999999999999"/>
      <point x="465.8" y="177.60000000000002" type="curve" smooth="yes"/>
      <point x="468.4" y="267.40000000000003"/>
      <point x="412.4" y="335.20000000000005"/>
      <point x="291.40000000000003" y="335.20000000000005" type="curve" smooth="yes"/>
      <point x="127.79999999999998" y="335.20000000000005"/>
      <point x="24.199999999999996" y="238.79999999999998"/>
      <point x="21.6" y="131.20000000000002" type="curve" smooth="yes"/>
      <point x="19.199999999999996" y="44.8"/>
      <point x="84.99999999999999" y="-20.0"/>
    </contour>
  </outline>
</glyph>
<glyph name="slash" format="2">
  <advance width="952.8"/>
  <unicode hex="002F"/>
  <outline>
    <contour>
      <point x="578.2" y="606.1999999999999" type="curve" smooth="yes"/>
      <point x="703.4000000000001" y="822.4000000000001"/>
      <point x="971.6" y="1266.0000000000002"/>
      <point x="1090.0" y="1479.0" type="curve" smooth="yes"/>
      <point x="1125.0" y="1534.6"/>
      <point x="1122.2" y="1577.1999999999998"/>
      <point x="1075.2" y="1594.6" type="curve" smooth="yes"/>
      <point x="1024.7999999999997" y="1613.1999999999998"/>
      <point x="979.2000000000002" y="1589.8000000000002"/>
      <point x="943.6" y="1535.0" type="curve" smooth="yes"/>
      <point x="828.8" y="1330.1999999999998"/>
      <point x="597.0" y="868.1999999999998"/>
      <point x="470.6" y="646.0" type="curve" smooth="yes"/>
      <point x="346.59999999999997" y="425.40000000000003"/>
      <point x="60.80000000000001" y="-17.200000000000024"/>
      <point x="-55.6" y="-223.19999999999996" type="curve" smooth="yes"/>
      <point x="-92.8" y="-279.6"/>
      <point x="-86.39999999999999" y="-320.6"/>
      <point x="-37.800000000000004" y="-338.4" type="curve" smooth="yes"/>
      <point x="10.399999999999995" y="-357.99999999999994"/>
      <point x="55.99999999999999" y="-335.6"/>
      <point x="91.80000000000001" y="-279.2" type="curve" smooth="yes"/>
      <point x="211.0" y="-63.8"/>
      <point x="454.8" y="388.2"/>
    </contour>
  </outline>
</glyph>
<glyph name="zero" format="2">
  <advance width="1379.2"/>
  <unicode hex="0030"/>
  <outline>
    <contour>
      <point x="951.8000000000001" y="1426.1999999999998" type="curve" smooth="yes"/>
      <point x="566.2" y="1426.1999999999998"/>
      <point x="247.99999999999994" y="1148.8"/>
      <point x="135.00000000000003" y="708.9999999999999" type="curve" smooth="yes"/>
      <point x="20.4" y="265.40000000000003"/>
      <point x="169.00000000000003" y="-24.8"/>
      <point x="560.1999999999999" y="-24.8" type="curve" smooth="yes"/>
      <point x="899.4000000000001" y="-24.8"/>
      <point x="1235.8" y="220.20000000000002"/>
      <point x="1360.3999999999999" y="699.4" type="curve" smooth="yes"/>
      <point x="1473.3999999999999" y="1134.8000000000002"/>
      <point x="1318.4" y="1426.1999999999998"/>
    </contour>
    <contour>
      <point x="971.8000000000001" y="692.6" type="curve" smooth="yes"/>
      <point x="867.8" y="275.0"/>
      <point x="719.0" y="85.2"/>
      <point x="589.3999999999999" y="85.2" type="curve" smooth="yes"/>
      <point x="427.4" y="85.2"/>
      <point x="408.59999999999997" y="251.60000000000002"/>
      <point x="527.6" y="732.0" type="curve" smooth="yes"/>
      <point x="619.6" y="1099.4"/>
      <point x="764.3999999999999" y="1315.4"/>
      <point x="908.0" y="1315.4" type="curve" smooth="yes"/>
      <point x="1069.6000000000001" y="1315.4"/>
      <point x="1082.4" y="1143.4"/>
    </contour>
  </outline>
</glyph>
<glyph name="one" format="2">
  <advance width="919.8000000000001"/>
  <unicode hex="0031"/>
  <outline>
    <contour>
      <point x="348.8" y="1192.2" type="line" smooth="yes"/>
      <point x="298.4" y="1192.2"/>
      <point x="281.40000000000003" y="1218.4"/>
      <point x="293.6" y="1259.0" type="curve" smooth="yes"/>
      <point x="304.8" y="1297.4"/>
      <point x="336.8" y="1326.4"/>
      <point x="395.59999999999997" y="1326.4" type="curve" smooth="yes"/>
      <point x="510.59999999999997" y="1327.0" type="line" smooth="yes"/>
      <point x="640.8" y="1327.2"/>
      <point x="703.0000000000001" y="1354.2"/>
      <point x="775.2" y="1398.2" type="curve" smooth="yes"/>
      <point x="810.8000000000001" y="1416.0"/>
      <point x="834.6" y="1425.2000000000003"/>
      <point x="858.5999999999999" y="1425.2000000000003" type="curve" smooth="yes"/>
      <point x="905.0" y="1425.2000000000003"/>
      <point x="927.5999999999999" y="1402.4"/>
      <point x="913.2" y="1355.5999999999997" type="curve" smooth="yes"/>
      <point x="609.4000000000001" y="204.0" type="line" smooth="yes"/>
      <point x="596.6" y="162.4"/>
      <point x="600.4000000000001" y="138.79999999999998"/>
      <point x="642.6" y="131.0" type="curve" smooth="yes"/>
      <point x="739.1999999999999" y="115.0" type="line" smooth="yes"/>
      <point x="768.6" y="108.2"/>
      <point x="782.6" y="90.2"/>
      <point x="781.8" y="64.8" type="curve" smooth="yes"/>
      <point x="781.1999999999999" y="23.4"/>
      <point x="748.4" y="0.0"/>
      <point x="700.6" y="0.0" type="curve" smooth="yes"/>
      <point x="61.800000000000004" y="0.0" type="line" smooth="yes"/>
      <point x="12.600000000000001" y="0.0"/>
      <point x="-6.800000000000001" y="20.4"/>
      <point x="-5.999999999999999" y="56.2" type="curve" smooth="yes"/>
      <point x="-5.199999999999999" y="88.0"/>
      <point x="18.400000000000002" y="111.0"/>
      <point x="56.80000000000001" y="118.39999999999999" type="curve" smooth="yes"/>
      <point x="169.99999999999997" y="135.0" type="line" smooth="yes"/>
      <point x="204.6" y="141.0"/>
      <point x="228.20000000000002" y="164.00000000000003"/>
      <point x="241.79999999999998" y="208.0" type="curve" smooth="yes"/>
      <point x="477.8" y="1109.8" type="line" smooth="yes"/>
      <point x="497.59999999999997" y="1173.0"/>
      <point x="484.2" y="1191.6"/>
      <point x="439.79999999999995" y="1191.6" type="curve" smooth="yes"/>
    </contour>
  </outline>
</glyph>
<glyph name="two" format="2">
  <advance width="1263.8"/>
  <unicode hex="0032"/>
  <outline>
    <contour>
      <point x="234.60000000000002" y="299.6" type="line"/>
      <point x="601.4" y="447.40000000000003" type="line" smooth="yes"/>
      <point x="1037.3999999999999" y="627.4"/>
      <point x="1251.1999999999998" y="796.0000000000001"/>
      <point x="1305.6000000000001" y="1000.0" type="curve" smooth="yes"/>
      <point x="1375.4" y="1257.6"/>
      <point x="1256.3999999999999" y="1431.0"/>
      <point x="921.1999999999999" y="1431.0" type="curve" smooth="yes"/>
      <point x="557.6000000000001" y="1431.0"/>
      <point x="335.0" y="1242.0"/>
      <point x="281.6" y="1046.3999999999999" type="curve" smooth="yes"/>
      <point x="249.39999999999998" y="929.2"/>
      <point x="297.8" y="861.8"/>
      <point x="403.8" y="861.8" type="curve"/>
      <point x="509.40000000000003" y="861.8"/>
      <point x="596.5999999999999" y="930.4"/>
      <point x="626.6000000000001" y="1042.0" type="curve" smooth="yes"/>
      <point x="657.0000000000001" y="1157.2" type="line" smooth="yes"/>
      <point x="685.5999999999999" y="1265.8"/>
      <point x="749.2" y="1340.0"/>
      <point x="852.0" y="1340.0" type="curve" smooth="yes"/>
      <point x="946.8000000000002" y="1340.0"/>
      <point x="976.4000000000001" y="1243.6"/>
      <point x="917.0" y="1017.6000000000001" type="curve" smooth="yes"/>
      <point x="847.6" y="751.5999999999999"/>
      <point x="682.6" y="577.1999999999998"/>
      <point x="403.20000000000005" y="450.8" type="curve" smooth="yes"/>
      <point x="220.6" y="361.6000000000001" type="line"/>
    </contour>
    <contour>
      <point x="10.600000000000001" y="145.8" type="curve" smooth="yes"/>
      <point x="-19.200000000000003" y="37.4"/>
      <point x="24.400000000000002" y="-29.400000000000002"/>
      <point x="110.19999999999999" y="-29.400000000000002" type="curve" smooth="yes"/>
      <point x="216.00000000000003" y="-29.400000000000002"/>
      <point x="290.99999999999994" y="23.6"/>
      <point x="349.59999999999997" y="192.8" type="curve" smooth="yes"/>
      <point x="373.99999999999994" y="267.2"/>
      <point x="401.8" y="298.40000000000003"/>
      <point x="435.0" y="298.40000000000003" type="curve" smooth="yes"/>
      <point x="469.8" y="298.40000000000003"/>
      <point x="481.2" y="278.2"/>
      <point x="496.59999999999997" y="225.60000000000002" type="curve" smooth="yes"/>
      <point x="519.1999999999999" y="32.400000000000006"/>
      <point x="594.4" y="-29.800000000000004"/>
      <point x="758.4" y="-29.800000000000004" type="curve" smooth="yes"/>
      <point x="939.8000000000001" y="-29.800000000000004"/>
      <point x="1083.6" y="85.4"/>
      <point x="1188.1999999999998" y="385.8" type="curve" smooth="yes"/>
      <point x="1211.8" y="445.2"/>
      <point x="1198.4" y="471.6"/>
      <point x="1157.8" y="474.40000000000003" type="curve" smooth="yes"/>
      <point x="1132.9999999999998" y="476.40000000000003"/>
      <point x="1104.4" y="464.2"/>
      <point x="1083.8" y="430.8" type="curve" smooth="yes"/>
      <point x="1030.2" y="336.40000000000003"/>
      <point x="973.8" y="302.8"/>
      <point x="895.4" y="302.8" type="curve" smooth="yes"/>
      <point x="757.8" y="302.8"/>
      <point x="594.2" y="399.2"/>
      <point x="405.19999999999993" y="399.2" type="curve" smooth="yes"/>
      <point x="194.2" y="399.2"/>
      <point x="50.199999999999996" y="296.00000000000006"/>
    </contour>
  </outline>
</glyph>
<glyph name="three" format="2">
  <advance width="1160.8000000000002"/>
  <unicode hex="0033"/>
  <outline>
    <contour>
      <point x="610.4000000000001" y="732.0" type="line"/>
      <point x="1236.6000000000001" y="1234.2" type="line" smooth="yes"/>
      <point x="1299.4" y="1276.0"/>
      <point x="1333.3999999999999" y="1301.7999999999997"/>
      <point x="1342.9999999999998" y="1333.6" type="curve" smooth="yes"/>
      <point x="1355.0" y="1372.0"/>
      <point x="1332.6" y="1400.0"/>
      <point x="1282.2" y="1400.0" type="curve" smooth="yes"/>
      <point x="505.99999999999994" y="1400.0" type="line" smooth="yes"/>
      <point x="443.40000000000003" y="1400.0"/>
      <point x="398.0" y="1369.7999999999997"/>
      <point x="377.0" y="1319.8" type="curve" smooth="yes"/>
      <point x="255.2" y="993.6000000000001" type="line" smooth="yes"/>
      <point x="234.60000000000002" y="945.2"/>
      <point x="258.20000000000005" y="923.4"/>
      <point x="299.4" y="922.3999999999999" type="curve" smooth="yes"/>
      <point x="340.2" y="922.4000000000001"/>
      <point x="369.00000000000006" y="944.8000000000001"/>
      <point x="388.20000000000005" y="978.8000000000001" type="curve" smooth="yes"/>
      <point x="427.6" y="1055.8" type="line" smooth="yes"/>
      <point x="450.59999999999997" y="1095.6000000000001"/>
      <point x="479.19999999999993" y="1111.3999999999999"/>
      <point x="532.4000000000001" y="1111.3999999999999" type="curve" smooth="yes"/>
      <point x="1052.2" y="1111.3999999999999" type="line"/>
      <point x="1077.6" y="1217.0" type="line"/>
      <point x="527.1999999999999" y="797.8" type="line" smooth="yes"/>
      <point x="486.3999999999999" y="770.2"/>
      <point x="462.19999999999993" y="745.6"/>
      <point x="453.2000000000001" y="714.8" type="curve" smooth="yes"/>
      <point x="440.4" y="674.0"/>
      <point x="463.80000000000007" y="655.2"/>
      <point x="505.0" y="655.2" type="curve" smooth="yes"/>
      <point x="570.4" y="655.2" type="line" smooth="yes"/>
      <point x="708.9999999999999" y="655.2"/>
      <point x="766.4" y="563.3999999999999"/>
      <point x="710.0000000000001" y="350.4" type="curve" smooth="yes"/>
      <point x="657.0" y="152.8"/>
      <point x="557.1999999999999" y="59.599999999999994"/>
      <point x="451.0" y="59.599999999999994" type="curve" smooth="yes"/>
      <point x="351.40000000000003" y="59.400000000000006"/>
      <point x="311.0" y="114.4"/>
      <point x="335.4" y="208.39999999999998" type="curve" smooth="yes"/>
      <point x="360.4" y="293.40000000000003" type="line" smooth="yes"/>
      <point x="389.2" y="393.2"/>
      <point x="347.2" y="467.40000000000003"/>
      <point x="236.2" y="467.40000000000003" type="curve" smooth="yes"/>
      <point x="137.39999999999998" y="467.40000000000003"/>
      <point x="43.8" y="393.2"/>
      <point x="19.6" y="280.8" type="curve" smooth="yes"/>
      <point x="-20.2" y="109.8"/>
      <point x="103.8" y="-30.4"/>
      <point x="419.2" y="-30.4" type="curve" smooth="yes"/>
      <point x="752.8" y="-30.4"/>
      <point x="1008.5999999999999" y="136.60000000000002"/>
      <point x="1082.4" y="391.0" type="curve" smooth="yes"/>
      <point x="1150.4" y="631.9999999999999"/>
      <point x="1011.1999999999999" y="786.2"/>
      <point x="728.3999999999999" y="779.8000000000001" type="curve" smooth="yes"/>
      <point x="677.8000000000001" y="779.0"/>
      <point x="629.5999999999999" y="772.5999999999999"/>
      <point x="593.8000000000001" y="762.2" type="curve"/>
    </contour>
  </outline>
</glyph>
<glyph name="four" format="2">
  <advance width="1217.3999999999999"/>
  <unicode hex="0034"/>
  <outline>
    <contour>
      <point x="663.2" y="647.0" type="curve" smooth="yes"/>
      <point x="547.0" y="207.79999999999998" type="line" smooth="yes"/>
      <point x="534.8" y="166.0"/>
      <point x="510.8" y="144.2"/>
      <point x="475.19999999999993" y="137.0" type="curve" smooth="yes"/>
      <point x="386.59999999999997" y="118.40000000000002" type="line" smooth="yes"/>
      <point x="346.2" y="109.40000000000002"/>
      <point x="318.0" y="88.8"/>
      <point x="308.19999999999993" y="57.80000000000001" type="curve" smooth="yes"/>
      <point x="297.20000000000005" y="21.200000000000003"/>
      <point x="314.79999999999995" y="0.0"/>
      <point x="366.00000000000006" y="0.0" type="curve" smooth="yes"/>
      <point x="947.4000000000001" y="0.0" type="line" smooth="yes"/>
      <point x="999.1999999999999" y="0.0"/>
      <point x="1029.3999999999999" y="22.000000000000004"/>
      <point x="1040.6000000000001" y="58.599999999999994" type="curve" smooth="yes"/>
      <point x="1050.2" y="88.8"/>
      <point x="1033.0" y="105.4"/>
      <point x="999.6" y="118.39999999999999" type="curve" smooth="yes"/>
      <point x="933.6" y="137.60000000000002" type="line" smooth="yes"/>
      <point x="902.2" y="146.39999999999998"/>
      <point x="888.8000000000001" y="165.20000000000002"/>
      <point x="900.8" y="203.79999999999998" type="curve" smooth="yes"/>
      <point x="1088.2" y="921.0" type="line" smooth="yes"/>
      <point x="1098.6000000000001" y="955.1999999999999"/>
      <point x="1086.4" y="970.0"/>
      <point x="1061.6" y="970.0" type="curve" smooth="yes"/>
      <point x="1040.3999999999999" y="970.0"/>
      <point x="1021.4000000000001" y="963.5999999999999"/>
      <point x="982.8" y="936.6000000000001" type="curve" smooth="yes"/>
      <point x="720.0" y="723.8000000000001" type="line" smooth="yes"/>
      <point x="693.0000000000001" y="704.1999999999999"/>
      <point x="673.4000000000001" y="680.8"/>
    </contour>
    <contour>
      <point x="519.0" y="862.5999999999999" type="curve" smooth="yes"/>
      <point x="75.4" y="490.4" type="line" smooth="yes"/>
      <point x="22.999999999999996" y="456.8"/>
      <point x="2.800000000000001" y="429.2"/>
      <point x="-4.399999999999998" y="405.4" type="curve" smooth="yes"/>
      <point x="-17.400000000000006" y="365.79999999999995"/>
      <point x="1.3999999999999995" y="338.2"/>
      <point x="51.0" y="338.2" type="curve" smooth="yes"/>
      <point x="1073.2" y="338.0" type="line" smooth="yes"/>
      <point x="1123.0" y="338.0"/>
      <point x="1151.6000000000001" y="358.0"/>
      <point x="1164.3999999999999" y="398.2" type="curve" smooth="yes"/>
      <point x="1174.8" y="435.4"/>
      <point x="1150.8" y="451.59999999999997"/>
      <point x="1108.9999999999998" y="451.59999999999997" type="curve" smooth="yes"/>
      <point x="115.2" y="451.59999999999997" type="line"/>
      <point x="123.00000000000001" y="402.6" type="line"/>
      <point x="825.8" y="971.6" type="line" smooth="yes"/>
      <point x="1009.8000000000002" y="1109.6"/>
      <point x="1070.6000000000001" y="1196.0"/>
      <point x="1088.6" y="1282.2" type="curve" smooth="yes"/>
      <point x="1114.4" y="1387.6"/>
      <point x="1050.7999999999997" y="1447.8000000000002"/>
      <point x="931.4" y="1447.8000000000002" type="curve" smooth="yes"/>
      <point x="780.5999999999999" y="1447.8000000000002"/>
      <point x="679.2" y="1369.2"/>
      <point x="647.2" y="1256.0" type="curve" smooth="yes"/>
      <point x="620.4" y="1156.9999999999998"/>
      <point x="678.4" y="1093.4"/>
      <point x="655.1999999999999" y="1015.0000000000001" type="curve" smooth="yes"/>
      <point x="642.1999999999999" y="964.8"/>
      <point x="595.2" y="917.4000000000001"/>
    </contour>
  </outline>
</glyph>
<glyph name="five" format="2">
  <advance width="1178.8"/>
  <unicode hex="0035"/>
  <outline>
    <contour>
      <point x="28.2" y="278.6" type="curve" smooth="yes"/>
      <point x="-11.000000000000004" y="110.80000000000001"/>
      <point x="112.80000000000001" y="-30.4"/>
      <point x="416.8" y="-30.4" type="curve" smooth="yes"/>
      <point x="749.4" y="-30.4"/>
      <point x="1012.8000000000001" y="135.2"/>
      <point x="1091.9999999999998" y="409.4" type="curve" smooth="yes"/>
      <point x="1166.8" y="672.4"/>
      <point x="1021.1999999999999" y="841.8"/>
      <point x="734.4" y="841.8" type="curve" smooth="yes"/>
      <point x="563.4" y="841.8"/>
      <point x="445.99999999999994" y="794.4"/>
      <point x="301.8" y="679.5999999999999" type="curve"/>
      <point x="346.2" y="662.5999999999999" type="line"/>
      <point x="505.4" y="1237.0000000000002" type="line"/>
      <point x="389.8" y="1131.8" type="line"/>
      <point x="483.19999999999993" y="1071.6000000000001"/>
      <point x="637.0" y="1023.8000000000002"/>
      <point x="802.8000000000001" y="1023.8000000000002" type="curve" smooth="yes"/>
      <point x="1057.6" y="1023.8000000000002"/>
      <point x="1236.2" y="1122.3999999999999"/>
      <point x="1333.4" y="1363.7999999999997" type="curve" smooth="yes"/>
      <point x="1353.8" y="1406.6"/>
      <point x="1347.3999999999999" y="1424.0"/>
      <point x="1331.6" y="1432.0" type="curve" smooth="yes"/>
      <point x="1310.9999999999998" y="1441.8"/>
      <point x="1287.3999999999999" y="1431.4"/>
      <point x="1260.6" y="1415.8" type="curve" smooth="yes"/>
      <point x="1194.2" y="1356.8"/>
      <point x="1094.2" y="1327.9999999999998"/>
      <point x="950.0" y="1327.9999999999998" type="curve" smooth="yes"/>
      <point x="827.0" y="1327.9999999999998"/>
      <point x="708.9999999999999" y="1365.3999999999999"/>
      <point x="602.0" y="1409.8" type="curve" smooth="yes"/>
      <point x="575.8" y="1418.3999999999999"/>
      <point x="549.0" y="1424.0"/>
      <point x="521.1999999999999" y="1424.0" type="curve" smooth="yes"/>
      <point x="452.6" y="1424.0"/>
      <point x="412.59999999999997" y="1388.8"/>
      <point x="394.20000000000005" y="1332.1999999999998" type="curve" smooth="yes"/>
      <point x="206.39999999999998" y="635.4" type="line" smooth="yes"/>
      <point x="193.79999999999998" y="593.1999999999999"/>
      <point x="216.20000000000002" y="574.0"/>
      <point x="250.4" y="574.0" type="curve" smooth="yes"/>
      <point x="281.2" y="574.0"/>
      <point x="302.8" y="586.5999999999999"/>
      <point x="349.4" y="608.6" type="curve" smooth="yes"/>
      <point x="435.20000000000005" y="680.0"/>
      <point x="509.40000000000003" y="715.8"/>
      <point x="581.6" y="715.8" type="curve" smooth="yes"/>
      <point x="717.7999999999998" y="715.8"/>
      <point x="785.8000000000001" y="607.4"/>
      <point x="720.4" y="368.80000000000007" type="curve" smooth="yes"/>
      <point x="659.8" y="143.2"/>
      <point x="564.4000000000001" y="59.599999999999994"/>
      <point x="460.8" y="59.599999999999994" type="curve" smooth="yes"/>
      <point x="360.6" y="59.599999999999994"/>
      <point x="319.99999999999994" y="116.00000000000001"/>
      <point x="344.0" y="208.4" type="curve" smooth="yes"/>
      <point x="368.6" y="292.8" type="line" smooth="yes"/>
      <point x="398.2" y="396.40000000000003"/>
      <point x="356.2" y="467.59999999999997"/>
      <point x="247.00000000000003" y="467.59999999999997" type="curve" smooth="yes"/>
      <point x="147.20000000000002" y="467.59999999999997"/>
      <point x="53.599999999999994" y="392.2"/>
    </contour>
  </outline>
</glyph>
<glyph name="six" format="2">
  <advance width="1275.4"/>
  <unicode hex="0036"/>
  <outline>
    <contour>
      <point x="988.5999999999999" y="1430.9999999999998" type="curve" smooth="yes"/>
      <point x="611.0" y="1430.9999999999998"/>
      <point x="276.4" y="1176.3999999999999"/>
      <point x="143.6" y="708.8" type="curve" smooth="yes"/>
      <point x="17.400000000000002" y="263.59999999999997"/>
      <point x="160.2" y="-30.200000000000003"/>
      <point x="530.2" y="-30.200000000000003" type="curve" smooth="yes"/>
      <point x="861.0000000000001" y="-30.200000000000003"/>
      <point x="1114.1999999999998" y="132.4"/>
      <point x="1188.0" y="393.2" type="curve" smooth="yes"/>
      <point x="1269.8000000000002" y="681.2"/>
      <point x="1138.4000000000003" y="852.1999999999999"/>
      <point x="884.8000000000001" y="852.1999999999999" type="curve" smooth="yes"/>
      <point x="653.4000000000001" y="852.1999999999999"/>
      <point x="438.2" y="716.2"/>
      <point x="376.6" y="540.0" type="curve"/>
      <point x="431.8" y="509.20000000000005" type="line"/>
      <point x="482.80000000000007" y="635.8000000000001"/>
      <point x="605.6" y="721.1999999999999"/>
      <point x="714.0" y="721.1999999999999" type="curve" smooth="yes"/>
      <point x="832.1999999999999" y="721.1999999999999"/>
      <point x="886.1999999999999" y="618.4"/>
      <point x="829.0" y="394.6" type="curve" smooth="yes"/>
      <point x="773.6" y="182.6"/>
      <point x="679.6" y="75.59999999999998"/>
      <point x="563.4000000000001" y="75.59999999999998" type="curve" smooth="yes"/>
      <point x="436.8" y="75.59999999999998"/>
      <point x="378.0" y="201.2"/>
      <point x="505.40000000000003" y="660.8000000000001" type="curve" smooth="yes"/>
      <point x="638.6" y="1148.6000000000001"/>
      <point x="795.4" y="1325.0"/>
      <point x="925.8" y="1325.0" type="curve" smooth="yes"/>
      <point x="1014.0000000000001" y="1325.0"/>
      <point x="1043.2" y="1277.7999999999997"/>
      <point x="1020.4" y="1191.8" type="curve" smooth="yes"/>
      <point x="1002.0000000000001" y="1126.4" type="line" smooth="yes"/>
      <point x="970.6000000000003" y="1019.1999999999999"/>
      <point x="1015.1999999999999" y="955.5999999999999"/>
      <point x="1134.1999999999998" y="955.5999999999999" type="curve" smooth="yes"/>
      <point x="1240.3999999999999" y="955.5999999999999"/>
      <point x="1328.6" y="1022.6"/>
      <point x="1354.2" y="1137.3999999999999" type="curve" smooth="yes"/>
      <point x="1388.6" y="1289.3999999999999"/>
      <point x="1263.1999999999998" y="1430.9999999999998"/>
    </contour>
  </outline>
</glyph>
<glyph name="seven" format="2">
  <advance width="1110.8"/>
  <unicode hex="0037"/>
  <outline>
    <contour>
      <point x="1023.5999999999999" y="1113.0" type="line"/>
      <point x="721.8000000000001" y="806.4" type="line" smooth="yes"/>
      <point x="446.59999999999997" y="577.0"/>
      <point x="256.2" y="398.19999999999993"/>
      <point x="206.0" y="222.4" type="curve" smooth="yes"/>
      <point x="158.4" y="57.4"/>
      <point x="226.2" y="-31.799999999999997"/>
      <point x="378.2" y="-31.799999999999997" type="curve" smooth="yes"/>
      <point x="526.4000000000001" y="-31.799999999999997"/>
      <point x="632.2" y="61.199999999999996"/>
      <point x="663.3999999999999" y="170.39999999999998" type="curve" smooth="yes"/>
      <point x="700.8000000000001" y="304.40000000000003"/>
      <point x="618.0" y="385.8"/>
      <point x="655.8000000000001" y="520.0" type="curve" smooth="yes"/>
      <point x="686.6" y="625.8000000000001"/>
      <point x="750.0" y="702.5999999999999"/>
      <point x="935.8000000000002" y="852.6" type="curve" smooth="yes"/>
      <point x="1241.2" y="1203.9999999999998" type="line" smooth="yes"/>
      <point x="1312.6000000000001" y="1255.6"/>
      <point x="1334.1999999999998" y="1291.8000000000002"/>
      <point x="1342.3999999999999" y="1321.8" type="curve" smooth="yes"/>
      <point x="1357.9999999999998" y="1368.3999999999999"/>
      <point x="1331.4" y="1400.0"/>
      <point x="1262.4" y="1400.0" type="curve" smooth="yes"/>
      <point x="464.00000000000006" y="1400.0" type="line" smooth="yes"/>
      <point x="407.2" y="1400.0"/>
      <point x="366.80000000000007" y="1367.8"/>
      <point x="346.59999999999997" y="1318.6" type="curve" smooth="yes"/>
      <point x="208.39999999999998" y="956.1999999999999" type="line" smooth="yes"/>
      <point x="189.20000000000002" y="910.0"/>
      <point x="206.59999999999997" y="885.9999999999999"/>
      <point x="251.6" y="885.8000000000001" type="curve" smooth="yes"/>
      <point x="292.6" y="885.0"/>
      <point x="322.0" y="906.5999999999999"/>
      <point x="342.2" y="941.4000000000001" type="curve" smooth="yes"/>
      <point x="395.0" y="1035.2" type="line" smooth="yes"/>
      <point x="417.6" y="1074.2"/>
      <point x="438.8" y="1089.1999999999998"/>
      <point x="493.4" y="1089.1999999999998" type="curve" smooth="yes"/>
      <point x="1056.8" y="1089.1999999999998" type="line"/>
    </contour>
  </outline>
</glyph>
<glyph name="eight" format="2">
  <advance width="1231.6000000000001"/>
  <unicode hex="0038"/>
  <outline>
    <contour>
      <point x="448.0" y="-29.799999999999997" type="curve" smooth="yes"/>
      <point x="807.4" y="-29.799999999999997"/>
      <point x="1058.8" y="126.0"/>
      <point x="1117.2" y="335.4" type="curve" smooth="yes"/>
      <point x="1169.4" y="517.4"/>
      <point x="1080.6" y="643.2"/>
      <point x="830.1999999999999" y="757.0" type="curve" smooth="yes"/>
      <point x="622.6000000000001" y="849.5999999999999"/>
      <point x="552.8000000000001" y="957.8"/>
      <point x="600.1999999999999" y="1125.6000000000001" type="curve" smooth="yes"/>
      <point x="635.4" y="1247.8"/>
      <point x="734.6" y="1337.0"/>
      <point x="858.8" y="1337.0" type="curve" smooth="yes"/>
      <point x="999.2" y="1337.0"/>
      <point x="1046.0000000000002" y="1225.0"/>
      <point x="986.1999999999999" y="1030.6" type="curve" smooth="yes"/>
      <point x="948.3999999999999" y="905.4000000000001"/>
      <point x="854.2" y="786.3999999999999"/>
      <point x="745.4" y="712.1999999999999" type="curve"/>
      <point x="764.4" y="680.2" type="line"/>
      <point x="1035.1999999999998" y="703.2"/>
      <point x="1259.9999999999998" y="841.0"/>
      <point x="1315.6000000000001" y="1029.2" type="curve" smooth="yes"/>
      <point x="1387.0" y="1271.0000000000002"/>
      <point x="1234.8" y="1430.9999999999998"/>
      <point x="928.6" y="1430.9999999999998" type="curve" smooth="yes"/>
      <point x="550.0" y="1430.9999999999998"/>
      <point x="293.59999999999997" y="1230.8000000000002"/>
      <point x="237.39999999999998" y="1022.1999999999999" type="curve" smooth="yes"/>
      <point x="177.0" y="799.5999999999999"/>
      <point x="267.8" y="675.4"/>
      <point x="542.1999999999999" y="554.2" type="curve" smooth="yes"/>
      <point x="737.8" y="480.4"/>
      <point x="781.2" y="386.2"/>
      <point x="742.4000000000001" y="252.79999999999995" type="curve" smooth="yes"/>
      <point x="708.8000000000001" y="139.0"/>
      <point x="625.3999999999999" y="58.60000000000001"/>
      <point x="510.79999999999995" y="58.60000000000001" type="curve" smooth="yes"/>
      <point x="383.0" y="58.60000000000001"/>
      <point x="333.6" y="153.20000000000002"/>
      <point x="382.4" y="323.20000000000005" type="curve" smooth="yes"/>
      <point x="414.6" y="435.40000000000003"/>
      <point x="484.59999999999997" y="541.4"/>
      <point x="577.0" y="599.1999999999999" type="curve"/>
      <point x="581.3999999999999" y="626.4000000000001" type="line"/>
      <point x="301.4" y="614.0"/>
      <point x="95.8" y="485.00000000000006"/>
      <point x="49.2" y="327.99999999999994" type="curve" smooth="yes"/>
      <point x="-9.0" y="123.80000000000001"/>
      <point x="104.20000000000002" y="-29.799999999999997"/>
    </contour>
  </outline>
</glyph>
<glyph name="nine" format="2">
  <advance width="1266.0"/>
  <unicode hex="0039"/>
  <outline>
    <contour>
      <point x="420.8" y="-30.200000000000003" type="curve" smooth="yes"/>
      <point x="799.0" y="-30.200000000000003"/>
      <point x="1126.6" y="223.0"/>
      <point x="1259.1999999999998" y="685.6" type="curve" smooth="yes"/>
      <point x="1391.0" y="1143.6000000000001"/>
      <point x="1242.0" y="1430.9999999999998"/>
      <point x="876.8000000000001" y="1430.9999999999998" type="curve" smooth="yes"/>
      <point x="555.2" y="1430.9999999999998"/>
      <point x="284.59999999999997" y="1251.6000000000001"/>
      <point x="207.40000000000003" y="979.5999999999999" type="curve" smooth="yes"/>
      <point x="133.20000000000002" y="713.2"/>
      <point x="265.99999999999994" y="541.4"/>
      <point x="518.8" y="541.4" type="curve" smooth="yes"/>
      <point x="750.5999999999999" y="541.4"/>
      <point x="964.6" y="677.4"/>
      <point x="1026.2" y="852.8000000000001" type="curve"/>
      <point x="971.2000000000002" y="884.4" type="line"/>
      <point x="919.2" y="757.8"/>
      <point x="797.4" y="672.4"/>
      <point x="689.8000000000001" y="672.4" type="curve" smooth="yes"/>
      <point x="578.8000000000001" y="672.4"/>
      <point x="516.8" y="776.8"/>
      <point x="575.4000000000001" y="1003.0000000000001" type="curve" smooth="yes"/>
      <point x="631.6" y="1218.1999999999998"/>
      <point x="728.1999999999999" y="1325.2"/>
      <point x="843.5999999999999" y="1325.2" type="curve" smooth="yes"/>
      <point x="970.8000000000002" y="1325.2"/>
      <point x="1024.4" y="1183.1999999999998"/>
      <point x="899.3999999999999" y="739.6" type="curve" smooth="yes"/>
      <point x="765.4" y="252.6"/>
      <point x="617.8" y="75.8"/>
      <point x="482.8" y="75.8" type="curve" smooth="yes"/>
      <point x="394.99999999999994" y="75.8"/>
      <point x="360.40000000000003" y="123.2"/>
      <point x="383.8" y="209.8" type="curve" smooth="yes"/>
      <point x="402.2" y="275.40000000000003" type="line" smooth="yes"/>
      <point x="432.8" y="382.4"/>
      <point x="388.20000000000005" y="446.0"/>
      <point x="270.2" y="446.0" type="curve" smooth="yes"/>
      <point x="163.2" y="446.0"/>
      <point x="75.99999999999999" y="379.0"/>
      <point x="50.0" y="264.20000000000005" type="curve" smooth="yes"/>
      <point x="15.600000000000003" y="111.39999999999999"/>
      <point x="145.2" y="-30.200000000000003"/>
    </contour>
  </outline>
</glyph>
<glyph name="less" format="2">
  <advance width="1051.0"/>
  <unicode hex="003C"/>
  <outline>
    <contour>
      <point x="347.2" y="684.4" type="line"/>
      <point x="853.0" y="331.8" type="line" smooth="yes"/>
      <point x="892.6" y="307.8"/>
      <point x="904.4" y="281.6"/>
      <point x="896.5999999999999" y="255.6" type="curve" smooth="yes"/>
      <point x="886.6" y="221.20000000000002"/>
      <point x="860.6" y="204.2"/>
      <point x="813.6" y="204.2" type="curve" smooth="yes"/>
      <point x="775.2" y="204.2"/>
      <point x="741.8000000000001" y="221.99999999999997"/>
      <point x="693.2" y="250.00000000000003" type="curve" smooth="yes"/>
      <point x="207.4" y="576.0" type="line" smooth="yes"/>
      <point x="163.39999999999998" y="601.4"/>
      <point x="148.39999999999998" y="638.1999999999999"/>
      <point x="161.60000000000002" y="684.8" type="curve" smooth="yes"/>
      <point x="174.6" y="730.2000000000002"/>
      <point x="212.39999999999998" y="766.6"/>
      <point x="272.8" y="792.1999999999999" type="curve" smooth="yes"/>
      <point x="922.6" y="1117.4" type="line" smooth="yes"/>
      <point x="988.0" y="1145.8"/>
      <point x="1028.6" y="1163.3999999999999"/>
      <point x="1067.1999999999998" y="1163.3999999999999" type="curve" smooth="yes"/>
      <point x="1110.1999999999998" y="1163.3999999999999"/>
      <point x="1129.6" y="1125.1999999999998"/>
      <point x="1115.4" y="1083.2" type="curve" smooth="yes"/>
      <point x="1106.4" y="1055.0"/>
      <point x="1078.0000000000002" y="1027.2"/>
      <point x="1023.0" y="1003.2" type="curve" smooth="yes"/>
      <point x="338.8" y="657.8000000000001" type="line"/>
    </contour>
  </outline>
</glyph>
<glyph name="question" format="2">
  <advance width="1133.0000000000002"/>
  <unicode hex="003F"/>
  <outline>
    <contour>
      <point x="434.79999999999995" y="662.2" type="line" smooth="yes"/>
      <point x="440.0" y="722.5999999999999"/>
      <point x="470.8" y="765.0"/>
      <point x="550.4" y="800.1999999999999" type="curve" smooth="yes"/>
      <point x="617.6" y="830.8" type="line" smooth="yes"/>
      <point x="742.0" y="889.4"/>
      <point x="805.6" y="982.0"/>
      <point x="848.8" y="1147.8" type="curve" smooth="yes"/>
      <point x="892.1999999999999" y="1310.0"/>
      <point x="850.6" y="1386.8"/>
      <point x="764.8" y="1386.8" type="curve" smooth="yes"/>
      <point x="679.1999999999999" y="1386.8"/>
      <point x="622.8000000000001" y="1339.2"/>
      <point x="597.8000000000001" y="1247.8000000000002" type="curve" smooth="yes"/>
      <point x="575.8" y="1163.0" type="line" smooth="yes"/>
      <point x="538.6000000000001" y="1035.4"/>
      <point x="456.0" y="970.6"/>
      <point x="339.20000000000005" y="970.6" type="curve" smooth="yes"/>
      <point x="239.99999999999997" y="970.6"/>
      <point x="189.8" y="1047.0"/>
      <point x="220.00000000000003" y="1155.3999999999999" type="curve" smooth="yes"/>
      <point x="267.59999999999997" y="1329.6"/>
      <point x="506.79999999999995" y="1496.6000000000001"/>
      <point x="811.5999999999999" y="1496.6000000000001" type="curve" smooth="yes"/>
      <point x="1148.0" y="1496.6000000000001"/>
      <point x="1287.5999999999997" y="1340.8"/>
      <point x="1228.6000000000001" y="1114.0" type="curve" smooth="yes"/>
      <point x="1178.4" y="917.4000000000001"/>
      <point x="1028.0" y="792.4000000000001"/>
      <point x="767.0000000000001" y="733.2" type="curve" smooth="yes"/>
      <point x="709.6" y="719.4" type="line" smooth="yes"/>
      <point x="658.1999999999999" y="709.4"/>
      <point x="643.4" y="684.8"/>
      <point x="628.4000000000001" y="649.4" type="curve" smooth="yes"/>
      <point x="600.2" y="563.8" type="line" smooth="yes"/>
      <point x="558.4" y="495.59999999999997"/>
      <point x="529.6000000000001" y="469.79999999999995"/>
      <point x="482.4" y="469.79999999999995" type="curve" smooth="yes"/>
      <point x="432.79999999999995" y="469.79999999999995"/>
      <point x="414.0" y="501.2"/>
      <point x="417.2" y="560.8000000000001" type="curve" smooth="yes"/>
    </contour>
    <component base="period" xOffset="143.2" yOffset="-1.0"/>
  </outline>
</glyph>
<glyph name="at" format="2">
  <advance width="1908.6000000000001"/>
  <unicode hex="0040"/>
  <outline>
    <contour>
      <point x="808.1999999999999" y="439.8" type="curve" smooth="yes"/>
      <point x="832.2" y="666.8"/>
      <point x="981.2" y="934.1999999999998"/>
      <point x="1113.6" y="934.1999999999998" type="curve" smooth="yes"/>
      <point x="1156.7999999999997" y="934.1999999999998"/>
      <point x="1175.6" y="891.6"/>
      <point x="1164.6000000000001" y="820.8000000000001" type="curve" smooth="yes"/>
      <point x="1116.0" y="527.8000000000001"/>
      <point x="968.6000000000001" y="296.4"/>
      <point x="864.4000000000001" y="296.4" type="curve" smooth="yes"/>
      <point x="823.8000000000001" y="296.4"/>
      <point x="794.4" y="333.3999999999999"/>
    </contour>
    <contour>
      <point x="1224.6" y="123.0" type="curve" smooth="yes"/>
      <point x="1513.0" y="123.0"/>
      <point x="1780.1999999999998" y="327.6"/>
      <point x="1861.6" y="635.0" type="curve" smooth="yes"/>
      <point x="1996.4000000000003" y="1138.8"/>
      <point x="1707.3999999999999" y="1431.2"/>
      <point x="1247.2000000000003" y="1431.2" type="curve" smooth="yes"/>
      <point x="718.2" y="1431.2"/>
      <point x="243.8" y="1068.0"/>
      <point x="122.0" y="605.6" type="curve" smooth="yes"/>
      <point x="-28.200000000000006" y="49.199999999999996"/>
      <point x="271.0" y="-297.2"/>
      <point x="778.4000000000001" y="-297.2" type="curve" smooth="yes"/>
      <point x="1129.4" y="-297.2"/>
      <point x="1444.4" y="-176.2"/>
      <point x="1617.0" y="-9.2" type="curve" smooth="yes"/>
      <point x="1661.2" y="24.799999999999997"/>
      <point x="1680.6000000000001" y="64.80000000000001"/>
      <point x="1660.3999999999999" y="88.6" type="curve" smooth="yes"/>
      <point x="1638.6" y="113.8"/>
      <point x="1589.8" y="98.4"/>
      <point x="1549.6000000000001" y="74.0" type="curve" smooth="yes"/>
      <point x="1328.2" y="-99.39999999999999"/>
      <point x="1069.3999999999999" y="-187.20000000000002"/>
      <point x="813.4000000000001" y="-187.20000000000002" type="curve" smooth="yes"/>
      <point x="374.40000000000003" y="-187.20000000000002"/>
      <point x="136.20000000000002" y="131.6"/>
      <point x="262.0" y="605.5999999999999" type="curve" smooth="yes"/>
      <point x="374.4" y="1032.4"/>
      <point x="763.2" y="1330.6"/>
      <point x="1208.2" y="1330.6" type="curve" smooth="yes"/>
      <point x="1597.3999999999999" y="1330.6"/>
      <point x="1832.6" y="1065.2"/>
      <point x="1718.2" y="633.1999999999999" type="curve" smooth="yes"/>
      <point x="1657.8000000000002" y="401.4"/>
      <point x="1512.3999999999999" y="285.40000000000003"/>
      <point x="1408.8" y="285.40000000000003" type="curve" smooth="yes"/>
      <point x="1340.4" y="285.40000000000003"/>
      <point x="1327.8" y="332.79999999999995"/>
      <point x="1359.8" y="453.4" type="curve" smooth="yes"/>
      <point x="1455.3999999999999" y="826.0" type="line" smooth="yes"/>
      <point x="1470.6" y="877.0"/>
      <point x="1529.1999999999998" y="880.4"/>
      <point x="1535.6000000000001" y="937.9999999999999" type="curve" smooth="yes"/>
      <point x="1543.6000000000001" y="1004.5999999999999"/>
      <point x="1435.0" y="1057.4"/>
      <point x="1181.6000000000001" y="1057.4" type="curve" smooth="yes"/>
      <point x="779.1999999999999" y="1057.4"/>
      <point x="504.6" y="745.5999999999999"/>
      <point x="479.6" y="433.8" type="curve" smooth="yes"/>
      <point x="458.2" y="224.4"/>
      <point x="551.0" y="122.19999999999999"/>
      <point x="701.0" y="122.19999999999999" type="curve" smooth="yes"/>
      <point x="887.5999999999999" y="122.19999999999999"/>
      <point x="1013.2" y="232.8"/>
      <point x="1120.4" y="455.4" type="curve"/>
      <point x="1107.3999999999999" y="517.0" type="line"/>
      <point x="1078.1999999999998" y="408.40000000000003"/>
      <point x="1062.2" y="334.40000000000003"/>
      <point x="1060.3999999999999" y="273.20000000000005" type="curve" smooth="yes"/>
      <point x="1057.1999999999998" y="180.0"/>
      <point x="1118.8" y="123.0"/>
    </contour>
  </outline>
</glyph>
<glyph name="A" format="2">
  <advance width="1369.2"/>
  <unicode hex="0041"/>
  <anchor x="1113.1999999999998" y="1532.0" name="center"/>
  <outline>
    <contour>
      <point x="320.59999999999997" y="323.59999999999997" type="curve" smooth="yes"/>
      <point x="704.1999999999999" y="967.4" type="line" smooth="yes"/>
      <point x="797.2" y="1109.1999999999998"/>
      <point x="851.6" y="1152.2000000000003"/>
      <point x="897.4" y="1176.0" type="curve"/>
      <point x="819.8" y="1197.4" type="line"/>
      <point x="819.4" y="984.4000000000001"/>
      <point x="804.0" y="426.2"/>
      <point x="800.4" y="260.0" type="curve" smooth="yes"/>
      <point x="799.2" y="194.40000000000003"/>
      <point x="781.2" y="149.6"/>
      <point x="738.4" y="134.6" type="curve" smooth="yes"/>
      <point x="695.0" y="124.2" type="line" smooth="yes"/>
      <point x="655.1999999999999" y="107.79999999999998"/>
      <point x="634.8" y="88.8"/>
      <point x="634.8" y="56.0" type="curve" smooth="yes"/>
      <point x="634.8000000000001" y="25.199999999999996"/>
      <point x="650.8000000000001" y="0.0"/>
      <point x="699.4000000000001" y="0.0" type="curve" smooth="yes"/>
      <point x="1179.6" y="0.0" type="line" smooth="yes"/>
      <point x="1231.1999999999998" y="0.0"/>
      <point x="1260.2" y="26.200000000000003"/>
      <point x="1260.2" y="62.60000000000001" type="curve" smooth="yes"/>
      <point x="1260.2" y="86.8"/>
      <point x="1250.3999999999999" y="103.40000000000002"/>
      <point x="1226.8" y="119.60000000000001" type="curve" smooth="yes"/>
      <point x="1160.8" y="155.60000000000002"/>
      <point x="1155.8" y="184.79999999999998"/>
      <point x="1154.1999999999998" y="265.8" type="curve" smooth="yes"/>
      <point x="1152.3999999999999" y="384.40000000000003"/>
      <point x="1163.2" y="978.8"/>
      <point x="1165.2000000000003" y="1143.6" type="curve" smooth="yes"/>
      <point x="1166.3999999999999" y="1235.6000000000001"/>
      <point x="1201.1999999999998" y="1276.1999999999998"/>
      <point x="1259.6" y="1300.8" type="curve" smooth="yes"/>
      <point x="1287.0" y="1317.0"/>
      <point x="1298.0" y="1334.0"/>
      <point x="1298.0" y="1360.9999999999998" type="curve" smooth="yes"/>
      <point x="1298.0" y="1398.4"/>
      <point x="1267.2" y="1426.0"/>
      <point x="1180.8" y="1426.0" type="curve" smooth="yes"/>
      <point x="964.2" y="1426.0"/>
      <point x="764.8" y="1300.4"/>
      <point x="592.8" y="1033.3999999999999" type="curve" smooth="yes"/>
      <point x="176.79999999999998" y="346.2" type="line" smooth="yes"/>
      <point x="118.8" y="246.40000000000003"/>
      <point x="61.39999999999999" y="166.79999999999998"/>
      <point x="12.799999999999992" y="142.0" type="curve" smooth="yes"/>
      <point x="-45.39999999999999" y="109.99999999999997"/>
      <point x="-58.99999999999999" y="87.8"/>
      <point x="-59.0" y="55.6" type="curve" smooth="yes"/>
      <point x="-59.0" y="20.599999999999998"/>
      <point x="-34.599999999999994" y="0.0"/>
      <point x="12.800000000000004" y="0.0" type="curve" smooth="yes"/>
      <point x="335.0" y="0.0" type="line" smooth="yes"/>
      <point x="382.6" y="0.0"/>
      <point x="413.8" y="24.6"/>
      <point x="413.8" y="64.60000000000001" type="curve" smooth="yes"/>
      <point x="413.8" y="83.6"/>
      <point x="404.0" y="102.2"/>
      <point x="375.20000000000005" y="116.99999999999999" type="curve" smooth="yes"/>
      <point x="336.4" y="130.40000000000003" type="line" smooth="yes"/>
      <point x="274.40000000000003" y="155.4"/>
      <point x="259.2" y="221.20000000000002"/>
    </contour>
    <contour>
      <point x="313.2" y="441.40000000000003" type="line"/>
      <point x="895.4000000000001" y="441.40000000000003" type="line"/>
      <point x="905.0" y="549.8000000000001" type="line"/>
      <point x="335.6000000000001" y="549.8000000000001" type="line"/>
    </contour>
  </outline>
</glyph>
<glyph name="B" format="2">
  <advance width="1437.1999999999998"/>
  <unicode hex="0042"/>
  <outline>
    <contour>
      <point x="779.8000000000001" y="1155.3999999999999" type="curve" smooth="yes"/>
      <point x="806.8" y="1251.6"/>
      <point x="844.2" y="1288.4"/>
      <point x="934.8000000000001" y="1288.4" type="curve" smooth="yes"/>
      <point x="1046.5999999999997" y="1288.4"/>
      <point x="1115.6" y="1211.8"/>
      <point x="1098.2000000000003" y="1062.6" type="curve" smooth="yes"/>
      <point x="1075.6000000000001" y="847.0"/>
      <point x="956.5999999999999" y="695.1999999999999"/>
      <point x="773.0" y="695.1999999999999" type="curve" smooth="yes"/>
      <point x="549.0000000000001" y="695.1999999999999" type="line"/>
      <point x="517.1999999999999" y="598.0" type="line"/>
      <point x="780.8000000000001" y="598.0" type="line" smooth="yes"/>
      <point x="928.2" y="598.0"/>
      <point x="1003.0" y="517.4"/>
      <point x="976.4" y="360.8" type="curve" smooth="yes"/>
      <point x="948.6" y="195.8"/>
      <point x="844.8000000000001" y="111.8"/>
      <point x="682.2" y="111.8" type="curve" smooth="yes"/>
      <point x="578.4000000000001" y="111.8"/>
      <point x="522.8000000000001" y="154.2"/>
      <point x="544.8" y="238.39999999999998" type="curve" smooth="yes"/>
      <point x="583.6" y="405.4"/>
      <point x="719.5999999999999" y="922.5999999999999"/>
    </contour>
    <contour>
      <point x="400.79999999999995" y="1400.0" type="line" smooth="yes"/>
      <point x="344.40000000000003" y="1400.0"/>
      <point x="315.40000000000003" y="1372.4"/>
      <point x="315.40000000000003" y="1333.7999999999997" type="curve" smooth="yes"/>
      <point x="315.40000000000003" y="1309.6"/>
      <point x="329.2" y="1294.3999999999999"/>
      <point x="358.4" y="1282.6" type="curve" smooth="yes"/>
      <point x="404.99999999999994" y="1270.0" type="line" smooth="yes"/>
      <point x="448.00000000000006" y="1251.6"/>
      <point x="437.40000000000003" y="1226.6"/>
      <point x="420.4" y="1155.3999999999999" type="curve" smooth="yes"/>
      <point x="398.4" y="1046.0"/>
      <point x="232.60000000000002" y="398.40000000000003"/>
      <point x="171.00000000000003" y="205.60000000000002" type="curve" smooth="yes"/>
      <point x="158.60000000000002" y="165.0"/>
      <point x="146.79999999999998" y="145.19999999999996"/>
      <point x="111.19999999999999" y="133.20000000000002" type="curve" smooth="yes"/>
      <point x="63.00000000000001" y="120.0" type="line" smooth="yes"/>
      <point x="26.999999999999993" y="106.99999999999999"/>
      <point x="5.599999999999997" y="84.0"/>
      <point x="5.599999999999997" y="55.2" type="curve" smooth="yes"/>
      <point x="5.599999999999997" y="23.6"/>
      <point x="20.400000000000002" y="0.0"/>
      <point x="75.6" y="0.0" type="curve" smooth="yes"/>
      <point x="702.5999999999999" y="0.0" type="line" smooth="yes"/>
      <point x="1100.1999999999998" y="0.0"/>
      <point x="1314.0" y="130.8"/>
      <point x="1343.6" y="350.4" type="curve" smooth="yes"/>
      <point x="1367.9999999999998" y="544.0"/>
      <point x="1235.0" y="667.6"/>
      <point x="889.4" y="667.6" type="curve"/>
      <point x="897.6" y="653.0" type="line"/>
      <point x="1220.0" y="653.0"/>
      <point x="1422.1999999999998" y="822.2"/>
      <point x="1445.2" y="1041.4" type="curve" smooth="yes"/>
      <point x="1467.8" y="1267.0"/>
      <point x="1326.6" y="1400.0"/>
      <point x="987.8" y="1400.0" type="curve" smooth="yes"/>
    </contour>
  </outline>
</glyph>
<glyph name="C" format="2">
  <advance width="1334.6000000000001"/>
  <unicode hex="0043"/>
  <anchor x="964.0000000000001" y="1510.0" name="center"/>
  <outline>
    <contour>
      <point x="1223.2" y="454.8" type="curve" smooth="yes"/>
      <point x="1189.6" y="467.4"/>
      <point x="1159.3999999999999" y="450.2"/>
      <point x="1115.4" y="404.8" type="curve" smooth="yes"/>
      <point x="1013.8000000000001" y="237.8"/>
      <point x="893.9999999999999" y="166.79999999999998"/>
      <point x="768.9999999999999" y="166.79999999999998" type="curve" smooth="yes"/>
      <point x="586.5999999999999" y="166.79999999999998"/>
      <point x="464.8" y="315.8"/>
      <point x="542.1999999999999" y="718.4" type="curve" smooth="yes"/>
      <point x="607.9999999999999" y="1067.0"/>
      <point x="782.6" y="1293.8000000000002"/>
      <point x="986.8000000000001" y="1293.8000000000002" type="curve" smooth="yes"/>
      <point x="1112.8" y="1293.8000000000002"/>
      <point x="1193.4" y="1226.0"/>
      <point x="1242.2" y="1051.4" type="curve" smooth="yes"/>
      <point x="1261.5999999999997" y="985.8" type="line" smooth="yes"/>
      <point x="1275.4" y="946.1999999999999"/>
      <point x="1298.6" y="926.8000000000001"/>
      <point x="1335.6" y="926.8000000000001" type="curve" smooth="yes"/>
      <point x="1373.0000000000002" y="927.0000000000001"/>
      <point x="1402.0" y="946.0"/>
      <point x="1403.0" y="989.0" type="curve" smooth="yes"/>
      <point x="1409.8000000000002" y="1363.6000000000001" type="line" smooth="yes"/>
      <point x="1409.8" y="1402.8000000000002"/>
      <point x="1384.2" y="1425.6000000000001"/>
      <point x="1347.4" y="1425.6000000000001" type="curve" smooth="yes"/>
      <point x="1297.4" y="1425.6000000000001"/>
      <point x="1247.6000000000001" y="1342.0"/>
      <point x="1202.0" y="1342.0" type="curve" smooth="yes"/>
      <point x="1157.8" y="1342.0"/>
      <point x="1100.6000000000001" y="1427.3999999999999"/>
      <point x="929.4" y="1427.3999999999999" type="curve" smooth="yes"/>
      <point x="546.6" y="1427.3999999999999"/>
      <point x="204.79999999999998" y="1110.1999999999998"/>
      <point x="124.59999999999998" y="673.2" type="curve" smooth="yes"/>
      <point x="40.0" y="219.39999999999998"/>
      <point x="276.4" y="-25.6"/>
      <point x="630.6" y="-25.6" type="curve" smooth="yes"/>
      <point x="900.4" y="-25.6"/>
      <point x="1121.2" y="109.8"/>
      <point x="1228.2" y="338.40000000000003" type="curve" smooth="yes"/>
      <point x="1269.0" y="408.00000000000006"/>
      <point x="1251.4" y="443.8"/>
    </contour>
  </outline>
</glyph>
<glyph name="D" format="2">
  <advance width="1569.8000000000002"/>
  <unicode hex="0044"/>
  <anchor x="1048.4" y="1485.0" name="center"/>
  <outline>
    <contour>
      <point x="12.200000000000001" y="55.39999999999999" type="curve" smooth="yes"/>
      <point x="12.2" y="23.799999999999997"/>
      <point x="26.2" y="0.0"/>
      <point x="80.19999999999999" y="0.0" type="curve" smooth="yes"/>
      <point x="678.6" y="0.0" type="line" smooth="yes"/>
      <point x="1101.8000000000002" y="0.0"/>
      <point x="1458.6" y="241.39999999999998"/>
      <point x="1545.0000000000002" y="686.8" type="curve" smooth="yes"/>
      <point x="1630.0000000000002" y="1127.4"/>
      <point x="1368.4" y="1400.0"/>
      <point x="958.4" y="1400.0" type="curve" smooth="yes"/>
      <point x="400.59999999999997" y="1400.0" type="line" smooth="yes"/>
      <point x="347.2" y="1400.0"/>
      <point x="318.8" y="1374.0"/>
      <point x="318.79999999999995" y="1335.2" type="curve" smooth="yes"/>
      <point x="318.8" y="1308.6"/>
      <point x="334.0" y="1294.1999999999998"/>
      <point x="363.00000000000006" y="1282.8" type="curve" smooth="yes"/>
      <point x="408.8" y="1268.4" type="line" smooth="yes"/>
      <point x="438.20000000000005" y="1259.0"/>
      <point x="447.0" y="1240.6000000000001"/>
      <point x="437.6" y="1202.0" type="curve" smooth="yes"/>
      <point x="415.0" y="1089.3999999999999"/>
      <point x="246.2" y="455.8"/>
      <point x="191.60000000000002" y="254.8" type="curve" smooth="yes"/>
      <point x="163.60000000000002" y="164.8"/>
      <point x="148.79999999999998" y="143.59999999999997"/>
      <point x="115.6" y="133.2" type="curve" smooth="yes"/>
      <point x="66.2" y="120.19999999999999" type="line" smooth="yes"/>
      <point x="32.800000000000004" y="108.4"/>
      <point x="12.2" y="84.2"/>
    </contour>
    <contour>
      <point x="696.6" y="125.0" type="curve" smooth="yes"/>
      <point x="642.6" y="125.0" type="line" smooth="yes"/>
      <point x="573.5999999999999" y="125.0"/>
      <point x="547.0" y="168.0"/>
      <point x="564.0" y="263.8" type="curve" smooth="yes"/>
      <point x="591.1999999999999" y="429.40000000000003"/>
      <point x="761.6000000000001" y="1029.8"/>
      <point x="795.3999999999999" y="1156.1999999999998" type="curve" smooth="yes"/>
      <point x="823.4" y="1243.2000000000003"/>
      <point x="861.2" y="1277.8"/>
      <point x="917.0" y="1277.8" type="curve" smooth="yes"/>
      <point x="959.0" y="1277.8" type="line" smooth="yes"/>
      <point x="1112.4" y="1277.8"/>
      <point x="1234.8000000000002" y="1095.6"/>
      <point x="1149.6000000000001" y="692.1999999999999" type="curve" smooth="yes"/>
      <point x="1067.6" y="291.4"/>
      <point x="890.0000000000001" y="125.0"/>
    </contour>
  </outline>
</glyph>
<glyph name="E" format="2">
  <advance width="1328.8"/>
  <unicode hex="0045"/>
  <anchor x="893.9999999999999" y="1468.0" name="center"/>
  <outline>
    <contour>
      <point x="523.0" y="775.8" type="line"/>
      <point x="491.19999999999993" y="668.4" type="line"/>
      <point x="846.6" y="668.4" type="line" smooth="yes"/>
      <point x="939.0" y="668.4"/>
      <point x="982.2" y="638.4"/>
      <point x="1017.4000000000001" y="547.8" type="curve" smooth="yes"/>
      <point x="1030.8" y="523.0000000000001"/>
      <point x="1049.6" y="506.4"/>
      <point x="1080.0" y="506.59999999999997" type="curve" smooth="yes"/>
      <point x="1118.3999999999999" y="507.59999999999997"/>
      <point x="1145.3999999999999" y="531.0"/>
      <point x="1137.1999999999998" y="583.4" type="curve" smooth="yes"/>
      <point x="1100.8" y="884.8" type="line" smooth="yes"/>
      <point x="1096.3999999999999" y="919.2"/>
      <point x="1076.4" y="939.9999999999999"/>
      <point x="1039.6" y="939.9999999999999" type="curve" smooth="yes"/>
      <point x="1015.6" y="939.9999999999999"/>
      <point x="996.2" y="928.8"/>
      <point x="982.2" y="901.4000000000001" type="curve" smooth="yes"/>
      <point x="956.5999999999999" y="803.2"/>
      <point x="911.2" y="775.8"/>
      <point x="850.2" y="775.8" type="curve" smooth="yes"/>
    </contour>
    <contour>
      <point x="779.2" y="0.0" type="line" smooth="yes"/>
      <point x="848.1999999999999" y="0.0"/>
      <point x="893.3999999999999" y="-29.2"/>
      <point x="951.0000000000001" y="-29.2" type="curve" smooth="yes"/>
      <point x="1111.8" y="-29.2"/>
      <point x="1216.9999999999998" y="120.60000000000001"/>
      <point x="1225.0000000000002" y="352.00000000000006" type="curve" smooth="yes"/>
      <point x="1225.7999999999997" y="399.2"/>
      <point x="1204.6000000000001" y="426.2"/>
      <point x="1168.0" y="426.2" type="curve" smooth="yes"/>
      <point x="1138.6" y="426.2"/>
      <point x="1111.8" y="404.40000000000003"/>
      <point x="1088.0" y="363.2" type="curve" smooth="yes"/>
      <point x="988.4" y="167.0"/>
      <point x="908.4000000000001" y="107.39999999999998"/>
      <point x="766.2" y="107.39999999999998" type="curve" smooth="yes"/>
      <point x="621.5999999999999" y="107.39999999999998" type="line" smooth="yes"/>
      <point x="546.5999999999999" y="107.39999999999998"/>
      <point x="526.4" y="138.8"/>
      <point x="539.8000000000001" y="201.4" type="curve" smooth="yes"/>
      <point x="563.6" y="323.59999999999997"/>
      <point x="780.4" y="1127.1999999999998"/>
      <point x="827.0000000000001" y="1293.0" type="curve"/>
      <point x="1026.9999999999998" y="1293.0" type="line" smooth="yes"/>
      <point x="1139.8" y="1293.0"/>
      <point x="1197.8" y="1241.6"/>
      <point x="1250.6000000000001" y="1059.3999999999999" type="curve" smooth="yes"/>
      <point x="1275.2" y="997.8"/>
      <point x="1304.4" y="980.4"/>
      <point x="1347.0" y="986.0" type="curve" smooth="yes"/>
      <point x="1384.4" y="990.8"/>
      <point x="1404.1999999999998" y="1017.2"/>
      <point x="1396.3999999999999" y="1062.8000000000002" type="curve" smooth="yes"/>
      <point x="1369.8000000000002" y="1366.2" type="line" smooth="yes"/>
      <point x="1361.3999999999999" y="1413.1999999999998"/>
      <point x="1335.4" y="1434.6"/>
      <point x="1294.8000000000002" y="1434.6" type="curve" smooth="yes"/>
      <point x="1247.6000000000001" y="1434.6"/>
      <point x="1202.4000000000003" y="1400.0"/>
      <point x="1119.0" y="1400.0" type="curve" smooth="yes"/>
      <point x="399.0" y="1400.0" type="line" smooth="yes"/>
      <point x="345.6" y="1400.0"/>
      <point x="318.4" y="1373.2"/>
      <point x="318.4" y="1334.8000000000002" type="curve" smooth="yes"/>
      <point x="318.4" y="1305.0"/>
      <point x="338.79999999999995" y="1291.3999999999999"/>
      <point x="360.40000000000003" y="1282.8" type="curve" smooth="yes"/>
      <point x="408.8" y="1268.3999999999999" type="line" smooth="yes"/>
      <point x="435.2" y="1259.6000000000001"/>
      <point x="443.59999999999997" y="1240.2"/>
      <point x="429.8" y="1184.3999999999999" type="curve" smooth="yes"/>
      <point x="394.8" y="1037.6"/>
      <point x="199.60000000000002" y="307.6"/>
      <point x="173.39999999999998" y="212.60000000000002" type="curve" smooth="yes"/>
      <point x="156.99999999999997" y="163.4"/>
      <point x="143.79999999999998" y="143.4"/>
      <point x="112.4" y="134.20000000000002" type="curve" smooth="yes"/>
      <point x="59.8" y="120.40000000000002" type="line" smooth="yes"/>
      <point x="29.599999999999998" y="108.80000000000001"/>
      <point x="7.999999999999998" y="85.8"/>
      <point x="7.999999999999998" y="55.6" type="curve" smooth="yes"/>
      <point x="7.9999999999999964" y="24.0"/>
      <point x="22.6" y="0.0"/>
      <point x="76.39999999999999" y="0.0" type="curve" smooth="yes"/>
    </contour>
  </outline>
</glyph>
<glyph name="F" format="2">
  <advance width="1268.2"/>
  <unicode hex="0046"/>
  <outline>
    <contour>
      <point x="316.8" y="1335.2" type="curve" smooth="yes"/>
      <point x="316.2" y="1308.4"/>
      <point x="332.8" y="1294.8"/>
      <point x="361.2" y="1282.6" type="curve" smooth="yes"/>
      <point x="405.99999999999994" y="1268.3999999999999" type="line" smooth="yes"/>
      <point x="436.0" y="1257.8000000000002"/>
      <point x="441.40000000000003" y="1239.0000000000002"/>
      <point x="428.8" y="1187.0" type="curve" smooth="yes"/>
      <point x="393.20000000000005" y="1037.8"/>
      <point x="231.19999999999996" y="404.2"/>
      <point x="172.8" y="213.4" type="curve" smooth="yes"/>
      <point x="158.4" y="166.0"/>
      <point x="142.99999999999997" y="143.6"/>
      <point x="112.39999999999998" y="134.39999999999998" type="curve" smooth="yes"/>
      <point x="66.19999999999999" y="121.60000000000002" type="line" smooth="yes"/>
      <point x="30.2" y="109.20000000000002"/>
      <point x="8.399999999999997" y="86.6"/>
      <point x="7.999999999999998" y="55.8" type="curve" smooth="yes"/>
      <point x="7.6" y="23.6"/>
      <point x="22.6" y="0.0"/>
      <point x="77.0" y="0.0" type="curve" smooth="yes"/>
      <point x="609.0" y="0.0" type="line" smooth="yes"/>
      <point x="666.8" y="0.0"/>
      <point x="695.4" y="27.400000000000006"/>
      <point x="695.4" y="66.0" type="curve" smooth="yes"/>
      <point x="695.4000000000001" y="92.20000000000002"/>
      <point x="681.4000000000001" y="112.6"/>
      <point x="646.8" y="119.0" type="curve" smooth="yes"/>
      <point x="579.1999999999999" y="129.6" type="line" smooth="yes"/>
      <point x="528.8" y="139.4"/>
      <point x="530.2" y="163.2"/>
      <point x="544.2" y="213.39999999999998" type="curve" smooth="yes"/>
      <point x="580.8" y="364.6"/>
      <point x="766.1999999999999" y="1086.3999999999999"/>
      <point x="827.6" y="1293.0" type="curve"/>
      <point x="1001.6" y="1293.0" type="line" smooth="yes"/>
      <point x="1115.0" y="1293.0"/>
      <point x="1170.0000000000002" y="1240.2"/>
      <point x="1210.3999999999999" y="1104.0" type="curve" smooth="yes"/>
      <point x="1228.1999999999998" y="1051.4" type="line" smooth="yes"/>
      <point x="1252.2" y="996.6000000000001"/>
      <point x="1279.6" y="975.2"/>
      <point x="1323.4" y="980.8" type="curve" smooth="yes"/>
      <point x="1361.0" y="985.6"/>
      <point x="1381.0" y="1011.1999999999999"/>
      <point x="1373.3999999999999" y="1056.6" type="curve" smooth="yes"/>
      <point x="1345.6000000000001" y="1367.3999999999999" type="line" smooth="yes"/>
      <point x="1338.2" y="1413.4"/>
      <point x="1312.0" y="1434.6"/>
      <point x="1272.0" y="1434.6" type="curve" smooth="yes"/>
      <point x="1223.8000000000002" y="1434.6"/>
      <point x="1178.8000000000002" y="1400.0"/>
      <point x="1095.6000000000001" y="1400.0" type="curve" smooth="yes"/>
      <point x="399.59999999999997" y="1400.0" type="line" smooth="yes"/>
      <point x="345.6" y="1400.0"/>
      <point x="317.59999999999997" y="1373.8"/>
    </contour>
    <contour>
      <point x="519.2" y="740.4" type="line"/>
      <point x="487.0" y="633.0" type="line"/>
      <point x="840.4" y="633.0" type="line" smooth="yes"/>
      <point x="940.1999999999999" y="633.0"/>
      <point x="980.4000000000002" y="596.8"/>
      <point x="1015.8" y="509.2" type="curve" smooth="yes"/>
      <point x="1030.6" y="482.0"/>
      <point x="1048.6" y="465.2"/>
      <point x="1078.8" y="465.4" type="curve" smooth="yes"/>
      <point x="1117.3999999999999" y="466.40000000000003"/>
      <point x="1144.6" y="489.8"/>
      <point x="1136.3999999999999" y="541.8000000000001" type="curve" smooth="yes"/>
      <point x="1095.8" y="854.0" type="line" smooth="yes"/>
      <point x="1090.9999999999998" y="889.1999999999999"/>
      <point x="1071.8000000000002" y="911.0000000000001"/>
      <point x="1035.0" y="911.0000000000001" type="curve" smooth="yes"/>
      <point x="1009.6000000000001" y="911.0000000000001"/>
      <point x="991.8" y="899.1999999999999"/>
      <point x="977.1999999999999" y="870.8" type="curve" smooth="yes"/>
      <point x="950.9999999999999" y="773.4000000000001"/>
      <point x="910.4" y="740.4"/>
      <point x="844.1999999999999" y="740.4" type="curve" smooth="yes"/>
    </contour>
  </outline>
</glyph>
<glyph name="G" format="2">
  <advance width="1490.4"/>
  <unicode hex="0047"/>
  <anchor x="976.6" y="1566.0" name="center"/>
  <outline>
    <contour>
      <point x="921.0" y="1427.2" type="curve" smooth="yes"/>
      <point x="531.5999999999999" y="1427.2"/>
      <point x="191.4" y="1099.8"/>
      <point x="118.0" y="651.6000000000001" type="curve" smooth="yes"/>
      <point x="49.4" y="227.0"/>
      <point x="254.20000000000002" y="-26.4"/>
      <point x="610.0000000000001" y="-26.4" type="curve" smooth="yes"/>
      <point x="803.0" y="-26.4"/>
      <point x="889.4000000000001" y="56.199999999999996"/>
      <point x="937.2" y="56.199999999999996" type="curve" smooth="yes"/>
      <point x="989.7999999999998" y="56.199999999999996"/>
      <point x="1076.2000000000003" y="-26.4"/>
      <point x="1135.6000000000001" y="-26.4" type="curve" smooth="yes"/>
      <point x="1182.9999999999998" y="-26.4"/>
      <point x="1207.2" y="-2.5999999999999996"/>
      <point x="1228.2" y="64.19999999999999" type="curve" smooth="yes"/>
      <point x="1344.2000000000003" y="492.80000000000007" type="line" smooth="yes"/>
      <point x="1354.9999999999998" y="527.2"/>
      <point x="1367.6000000000001" y="545.4"/>
      <point x="1397.3999999999999" y="556.2" type="curve" smooth="yes"/>
      <point x="1438.6" y="570.5999999999999" type="line" smooth="yes"/>
      <point x="1468.6" y="581.7999999999998"/>
      <point x="1492.6" y="603.6"/>
      <point x="1493.0" y="635.2" type="curve" smooth="yes"/>
      <point x="1493.2" y="667.6"/>
      <point x="1479.8" y="690.8000000000001"/>
      <point x="1424.3999999999999" y="690.8000000000001" type="curve" smooth="yes"/>
      <point x="940.8" y="690.8000000000001" type="line" smooth="yes"/>
      <point x="888.0" y="690.8000000000001"/>
      <point x="859.5999999999999" y="665.1999999999999"/>
      <point x="859.6" y="625.6" type="curve" smooth="yes"/>
      <point x="859.5999999999999" y="600.0"/>
      <point x="870.2" y="578.0"/>
      <point x="901.6" y="572.8" type="curve" smooth="yes"/>
      <point x="985.9999999999999" y="559.6" type="line" smooth="yes"/>
      <point x="1018.5999999999999" y="554.8"/>
      <point x="1024.2000000000003" y="529.0000000000001"/>
      <point x="1014.6" y="492.2000000000001" type="curve" smooth="yes"/>
      <point x="967.6000000000001" y="290.40000000000003" type="line" smooth="yes"/>
      <point x="939.0" y="172.0"/>
      <point x="841.8" y="112.0"/>
      <point x="725.0" y="112.0" type="curve" smooth="yes"/>
      <point x="558.6" y="112.0"/>
      <point x="458.4" y="257.8"/>
      <point x="524.6000000000001" y="649.8" type="curve" smooth="yes"/>
      <point x="595.8000000000001" y="1059.8"/>
      <point x="786.2" y="1296.8"/>
      <point x="1019.4" y="1296.8" type="curve" smooth="yes"/>
      <point x="1151.8" y="1296.8"/>
      <point x="1245.4" y="1231.6"/>
      <point x="1302.4" y="1067.2" type="curve" smooth="yes"/>
      <point x="1334.3999999999999" y="979.4000000000001" type="line" smooth="yes"/>
      <point x="1348.8" y="943.9999999999999"/>
      <point x="1376.8" y="927.1999999999999"/>
      <point x="1413.3999999999999" y="930.4" type="curve" smooth="yes"/>
      <point x="1446.6" y="932.8000000000001"/>
      <point x="1474.0" y="953.4000000000001"/>
      <point x="1471.0000000000002" y="999.2" type="curve" smooth="yes"/>
      <point x="1465.7999999999997" y="1347.0" type="line" smooth="yes"/>
      <point x="1461.6" y="1400.8"/>
      <point x="1434.4" y="1427.3999999999999"/>
      <point x="1393.2" y="1427.3999999999999" type="curve" smooth="yes"/>
      <point x="1340.6000000000001" y="1427.3999999999999"/>
      <point x="1292.0" y="1336.4"/>
      <point x="1239.3999999999999" y="1336.4" type="curve" smooth="yes"/>
      <point x="1196.0" y="1336.4"/>
      <point x="1132.4" y="1427.2"/>
    </contour>
  </outline>
</glyph>
<glyph name="H" format="2">
  <advance width="1658.8"/>
  <unicode hex="0048"/>
  <anchor x="1111.6" y="1498.0" name="center"/>
  <outline>
    <contour>
      <point x="538.4" y="194.2" type="curve" smooth="yes"/>
      <point x="552.5999999999999" y="270.8"/>
      <point x="746.6" y="1030.8"/>
      <point x="800.6" y="1198.3999999999999" type="curve" smooth="yes"/>
      <point x="815.3999999999999" y="1243.2"/>
      <point x="825.1999999999999" y="1255.4"/>
      <point x="857.1999999999999" y="1265.6000000000001" type="curve" smooth="yes"/>
      <point x="908.1999999999999" y="1280.0" type="line" smooth="yes"/>
      <point x="939.0" y="1290.8000000000002"/>
      <point x="962.6" y="1312.6"/>
      <point x="962.6" y="1345.6000000000001" type="curve" smooth="yes"/>
      <point x="962.6" y="1377.0000000000002"/>
      <point x="948.4" y="1400.0"/>
      <point x="893.6000000000001" y="1400.0" type="curve" smooth="yes"/>
      <point x="399.4" y="1400.0" type="line" smooth="yes"/>
      <point x="344.59999999999997" y="1400.0"/>
      <point x="314.40000000000003" y="1374.6"/>
      <point x="314.40000000000003" y="1335.6000000000001" type="curve" smooth="yes"/>
      <point x="314.40000000000003" y="1310.4"/>
      <point x="328.2" y="1294.8"/>
      <point x="357.8" y="1282.8000000000002" type="curve" smooth="yes"/>
      <point x="404.79999999999995" y="1268.4" type="line" smooth="yes"/>
      <point x="435.79999999999995" y="1258.1999999999998"/>
      <point x="441.2" y="1238.8"/>
      <point x="433.6" y="1204.3999999999999" type="curve" smooth="yes"/>
      <point x="398.0" y="1044.6"/>
      <point x="218.0" y="363.0"/>
      <point x="170.8" y="203.4" type="curve" smooth="yes"/>
      <point x="156.4" y="158.39999999999998"/>
      <point x="142.40000000000003" y="142.4"/>
      <point x="110.60000000000001" y="133.20000000000002" type="curve" smooth="yes"/>
      <point x="60.60000000000001" y="120.19999999999997" type="line" smooth="yes"/>
      <point x="31.200000000000003" y="110.0"/>
      <point x="7.399999999999999" y="87.6"/>
      <point x="7.799999999999997" y="55.199999999999996" type="curve" smooth="yes"/>
      <point x="7.799999999999997" y="23.4"/>
      <point x="22.0" y="0.0"/>
      <point x="77.2" y="0.0" type="curve" smooth="yes"/>
      <point x="575.0" y="0.0" type="line" smooth="yes"/>
      <point x="626.6" y="0.0"/>
      <point x="656.6" y="25.600000000000005"/>
      <point x="656.6" y="64.4" type="curve" smooth="yes"/>
      <point x="656.6" y="90.20000000000002"/>
      <point x="642.2" y="105.20000000000002"/>
      <point x="613.2" y="117.0" type="curve" smooth="yes"/>
      <point x="566.8" y="131.0" type="line" smooth="yes"/>
      <point x="540.4" y="139.2"/>
      <point x="530.0" y="156.6"/>
    </contour>
    <contour>
      <point x="518.5999999999999" y="723.5999999999999" type="line"/>
      <point x="483.79999999999995" y="604.1999999999999" type="line"/>
      <point x="1248.6000000000001" y="604.1999999999999" type="line"/>
      <point x="1283.6" y="723.5999999999999" type="line"/>
    </contour>
    <contour>
      <point x="1361.0" y="194.2" type="curve" smooth="yes"/>
      <point x="1374.2" y="270.8"/>
      <point x="1568.3999999999999" y="1030.8"/>
      <point x="1623.0" y="1198.4" type="curve" smooth="yes"/>
      <point x="1637.2" y="1243.2"/>
      <point x="1647.8000000000002" y="1255.4"/>
      <point x="1679.6" y="1265.6" type="curve" smooth="yes"/>
      <point x="1730.9999999999998" y="1280.0" type="line" smooth="yes"/>
      <point x="1761.4" y="1290.8"/>
      <point x="1784.9999999999998" y="1312.6000000000001"/>
      <point x="1785.0000000000002" y="1345.6" type="curve" smooth="yes"/>
      <point x="1785.0000000000002" y="1377.0"/>
      <point x="1770.8000000000002" y="1400.0"/>
      <point x="1716.1999999999998" y="1400.0" type="curve" smooth="yes"/>
      <point x="1221.8" y="1400.0" type="line" smooth="yes"/>
      <point x="1166.2" y="1400.0"/>
      <point x="1137.0" y="1374.6"/>
      <point x="1137.0" y="1335.6000000000001" type="curve" smooth="yes"/>
      <point x="1137.0" y="1310.3999999999999"/>
      <point x="1149.8" y="1294.8"/>
      <point x="1180.2" y="1282.8" type="curve" smooth="yes"/>
      <point x="1226.3999999999999" y="1268.3999999999999" type="line" smooth="yes"/>
      <point x="1257.4000000000003" y="1258.2"/>
      <point x="1263.0" y="1238.8"/>
      <point x="1255.1999999999998" y="1204.4000000000003" type="curve" smooth="yes"/>
      <point x="1219.6000000000001" y="1044.6"/>
      <point x="1039.6000000000001" y="363.0"/>
      <point x="993.2" y="203.39999999999998" type="curve" smooth="yes"/>
      <point x="978.0" y="158.4"/>
      <point x="965.0000000000001" y="142.4"/>
      <point x="933.2000000000002" y="133.2" type="curve" smooth="yes"/>
      <point x="883.2" y="120.19999999999999" type="line" smooth="yes"/>
      <point x="853.8" y="110.00000000000001"/>
      <point x="830.0000000000001" y="87.6"/>
      <point x="830.2" y="55.199999999999996" type="curve" smooth="yes"/>
      <point x="830.2" y="23.400000000000002"/>
      <point x="844.6" y="0.0"/>
      <point x="899.8000000000001" y="0.0" type="curve" smooth="yes"/>
      <point x="1396.6" y="0.0" type="line" smooth="yes"/>
      <point x="1448.3999999999999" y="0.0"/>
      <point x="1478.4" y="25.6"/>
      <point x="1478.4" y="64.4" type="curve" smooth="yes"/>
      <point x="1478.3999999999999" y="90.19999999999999"/>
      <point x="1464.6" y="105.19999999999999"/>
      <point x="1434.8000000000002" y="117.00000000000001" type="curve" smooth="yes"/>
      <point x="1389.3999999999999" y="131.0" type="line" smooth="yes"/>
      <point x="1362.8" y="139.20000000000002"/>
      <point x="1352.3999999999999" y="156.6"/>
    </contour>
  </outline>
</glyph>
<glyph name="I" format="2">
  <advance width="844.2"/>
  <unicode hex="0049"/>
  <anchor x="710.5999999999999" y="1468.0" name="center"/>
  <outline>
    <contour>
      <point x="544.0000000000001" y="194.2" type="curve" smooth="yes"/>
      <point x="557.2" y="270.8"/>
      <point x="751.5999999999999" y="1030.8"/>
      <point x="805.2" y="1198.3999999999999" type="curve" smooth="yes"/>
      <point x="819.4000000000001" y="1243.2"/>
      <point x="830.0" y="1255.4"/>
      <point x="861.8000000000001" y="1265.6000000000001" type="curve" smooth="yes"/>
      <point x="913.0000000000001" y="1280.0" type="line" smooth="yes"/>
      <point x="943.6" y="1290.8000000000002"/>
      <point x="967.1999999999999" y="1312.6"/>
      <point x="967.1999999999999" y="1345.6" type="curve" smooth="yes"/>
      <point x="967.1999999999999" y="1376.9999999999998"/>
      <point x="953.0" y="1400.0"/>
      <point x="898.4" y="1400.0" type="curve" smooth="yes"/>
      <point x="404.2" y="1400.0" type="line" smooth="yes"/>
      <point x="348.4" y="1400.0"/>
      <point x="319.2" y="1374.6"/>
      <point x="319.20000000000005" y="1335.6000000000001" type="curve" smooth="yes"/>
      <point x="319.20000000000005" y="1310.4"/>
      <point x="332.0" y="1294.8"/>
      <point x="362.40000000000003" y="1282.8000000000002" type="curve" smooth="yes"/>
      <point x="408.79999999999995" y="1268.4" type="line" smooth="yes"/>
      <point x="439.6" y="1258.1999999999998"/>
      <point x="445.2" y="1238.8"/>
      <point x="437.59999999999997" y="1204.3999999999999" type="curve" smooth="yes"/>
      <point x="402.6" y="1044.3999999999999"/>
      <point x="222.8" y="363.0"/>
      <point x="175.4" y="203.4" type="curve" smooth="yes"/>
      <point x="160.99999999999997" y="158.39999999999998"/>
      <point x="148.0" y="142.4"/>
      <point x="116.2" y="133.20000000000002" type="curve" smooth="yes"/>
      <point x="66.2" y="120.19999999999997" type="line" smooth="yes"/>
      <point x="36.8" y="110.0"/>
      <point x="12.999999999999998" y="87.6"/>
      <point x="13.400000000000002" y="55.199999999999996" type="curve" smooth="yes"/>
      <point x="13.400000000000002" y="23.4"/>
      <point x="27.600000000000005" y="0.0"/>
      <point x="82.6" y="0.0" type="curve" smooth="yes"/>
      <point x="579.8000000000001" y="0.0" type="line" smooth="yes"/>
      <point x="631.4" y="0.0"/>
      <point x="661.4" y="25.600000000000005"/>
      <point x="661.4" y="64.4" type="curve" smooth="yes"/>
      <point x="661.4" y="90.20000000000002"/>
      <point x="647.5999999999999" y="105.20000000000002"/>
      <point x="617.8" y="117.0" type="curve" smooth="yes"/>
      <point x="572.2" y="131.0" type="line" smooth="yes"/>
      <point x="545.8" y="139.2"/>
      <point x="534.6" y="156.6"/>
    </contour>
  </outline>
</glyph>
<glyph name="J" format="2">
  <advance width="829.4"/>
  <unicode hex="004A"/>
  <anchor x="709.8" y="1468.0" name="center"/>
  <outline>
    <contour>
      <point x="784.1999999999999" y="1143.8" type="curve" smooth="yes"/>
      <point x="814.4" y="1239.1999999999998"/>
      <point x="823.4" y="1253.0"/>
      <point x="860.0000000000001" y="1265.6000000000001" type="curve" smooth="yes"/>
      <point x="909.8000000000001" y="1280.2" type="line" smooth="yes"/>
      <point x="938.1999999999999" y="1290.6"/>
      <point x="962.4" y="1312.6"/>
      <point x="962.4000000000001" y="1345.4" type="curve" smooth="yes"/>
      <point x="962.4000000000001" y="1377.0000000000002"/>
      <point x="947.9999999999999" y="1400.0"/>
      <point x="893.4" y="1400.0" type="curve" smooth="yes"/>
      <point x="397.40000000000003" y="1400.0" type="line" smooth="yes"/>
      <point x="342.4" y="1400.0"/>
      <point x="314.20000000000005" y="1373.3999999999996"/>
      <point x="314.2" y="1335.2" type="curve" smooth="yes"/>
      <point x="314.2" y="1310.2"/>
      <point x="327.6" y="1294.6"/>
      <point x="357.20000000000005" y="1282.8" type="curve" smooth="yes"/>
      <point x="405.59999999999997" y="1268.6" type="line" smooth="yes"/>
      <point x="443.2" y="1256.4"/>
      <point x="446.6" y="1240.0"/>
      <point x="429.0" y="1170.0" type="curve" smooth="yes"/>
      <point x="396.40000000000003" y="1047.6"/>
      <point x="206.99999999999997" y="337.0"/>
      <point x="176.8" y="212.99999999999997" type="curve" smooth="yes"/>
      <point x="134.4" y="54.99999999999999"/>
      <point x="291.6" y="-33.80000000000001"/>
      <point x="291.59999999999997" y="-117.4" type="curve" smooth="yes"/>
      <point x="291.6" y="-181.60000000000002"/>
      <point x="259.79999999999995" y="-210.20000000000002"/>
      <point x="211.39999999999998" y="-210.20000000000002" type="curve" smooth="yes"/>
      <point x="139.2" y="-210.20000000000002"/>
      <point x="51.19999999999999" y="-120.39999999999999"/>
      <point x="-33.800000000000004" y="-120.39999999999999" type="curve" smooth="yes"/>
      <point x="-119.39999999999999" y="-120.39999999999999"/>
      <point x="-171.79999999999998" y="-179.2"/>
      <point x="-171.8" y="-251.99999999999997" type="curve" smooth="yes"/>
      <point x="-171.8" y="-338.40000000000003"/>
      <point x="-104.4" y="-407.2"/>
      <point x="28.800000000000004" y="-407.2" type="curve" smooth="yes"/>
      <point x="251.4" y="-407.2"/>
      <point x="420.2" y="-272.8"/>
      <point x="483.0" y="-6.8000000000000025" type="curve" smooth="yes"/>
      <point x="541.8000000000001" y="209.2"/>
      <point x="748.6" y="1032.8"/>
    </contour>
  </outline>
</glyph>
<glyph name="K" format="2">
  <advance width="1548.2"/>
  <unicode hex="004B"/>
  <anchor x="712.4" y="1487.0" name="center"/>
  <outline>
    <contour>
      <point x="521.8000000000001" y="186.19999999999996" type="curve" smooth="yes"/>
      <point x="534.4" y="263.6"/>
      <point x="737.1999999999999" y="1034.0"/>
      <point x="789.4" y="1202.3999999999999" type="curve" smooth="yes"/>
      <point x="802.0" y="1244.0"/>
      <point x="820.4000000000001" y="1259.4"/>
      <point x="846.0" y="1267.2" type="curve" smooth="yes"/>
      <point x="893.8" y="1281.6000000000001" type="line" smooth="yes"/>
      <point x="929.4" y="1296.4"/>
      <point x="952.2" y="1311.8"/>
      <point x="952.2" y="1345.6" type="curve" smooth="yes"/>
      <point x="952.2" y="1377.8"/>
      <point x="933.1999999999999" y="1400.0"/>
      <point x="889.5999999999999" y="1400.0" type="curve" smooth="yes"/>
      <point x="400.20000000000005" y="1400.0" type="line" smooth="yes"/>
      <point x="347.0" y="1400.0"/>
      <point x="316.0" y="1374.6"/>
      <point x="316.0" y="1336.3999999999999" type="curve" smooth="yes"/>
      <point x="316.0" y="1309.6"/>
      <point x="329.8" y="1294.8"/>
      <point x="359.4" y="1282.8" type="curve" smooth="yes"/>
      <point x="404.8" y="1270.0" type="line" smooth="yes"/>
      <point x="432.6" y="1261.3999999999999"/>
      <point x="442.20000000000005" y="1245.2000000000003"/>
      <point x="435.19999999999993" y="1212.4" type="curve" smooth="yes"/>
      <point x="400.40000000000003" y="1052.4"/>
      <point x="218.20000000000002" y="363.0"/>
      <point x="170.79999999999998" y="203.39999999999998" type="curve" smooth="yes"/>
      <point x="157.20000000000002" y="161.6"/>
      <point x="142.4" y="142.39999999999998"/>
      <point x="111.4" y="133.20000000000002" type="curve" smooth="yes"/>
      <point x="61.400000000000006" y="120.19999999999997" type="line" smooth="yes"/>
      <point x="32.0" y="110.00000000000001"/>
      <point x="8.399999999999999" y="88.4"/>
      <point x="8.599999999999998" y="55.199999999999996" type="curve" smooth="yes"/>
      <point x="8.599999999999998" y="23.400000000000002"/>
      <point x="22.799999999999997" y="0.0"/>
      <point x="78.0" y="0.0" type="curve" smooth="yes"/>
      <point x="562.1999999999999" y="0.0" type="line" smooth="yes"/>
      <point x="614.0" y="0.0"/>
      <point x="642.4" y="24.000000000000004"/>
      <point x="642.4" y="62.80000000000001" type="curve" smooth="yes"/>
      <point x="642.4000000000001" y="92.60000000000002"/>
      <point x="622.2" y="108.4"/>
      <point x="596.4000000000001" y="121.8" type="curve" smooth="yes"/>
      <point x="554.0000000000001" y="135.8" type="line" smooth="yes"/>
      <point x="529.1999999999999" y="144.80000000000004"/>
      <point x="516.4" y="160.60000000000002"/>
    </contour>
    <contour>
      <point x="731.2" y="685.1999999999999" type="line"/>
      <point x="937.8" y="140.20000000000002" type="line" smooth="yes"/>
      <point x="982.0000000000001" y="22.2"/>
      <point x="1032.2000000000003" y="-27.8"/>
      <point x="1153.3999999999999" y="-27.8" type="curve" smooth="yes"/>
      <point x="1294.8" y="-27.8"/>
      <point x="1421.3999999999999" y="57.4"/>
      <point x="1476.0" y="195.39999999999998" type="curve" smooth="yes"/>
      <point x="1495.2" y="242.0"/>
      <point x="1477.6000000000001" y="266.6"/>
      <point x="1454.0" y="272.79999999999995" type="curve" smooth="yes"/>
      <point x="1438.8000000000002" y="276.79999999999995"/>
      <point x="1417.8" y="271.20000000000005"/>
      <point x="1399.4" y="257.79999999999995" type="curve" smooth="yes"/>
      <point x="1377.0" y="231.0"/>
      <point x="1357.2" y="216.20000000000002"/>
      <point x="1330.2" y="216.20000000000002" type="curve" smooth="yes"/>
      <point x="1284.4" y="216.20000000000002"/>
      <point x="1262.8" y="254.80000000000004"/>
      <point x="1236.8" y="321.8" type="curve" smooth="yes"/>
      <point x="1004.8" y="932.8" type="line"/>
    </contour>
    <contour>
      <point x="528.1999999999998" y="390.0" type="line"/>
      <point x="1151.8" y="1034.1999999999998" type="line" smooth="yes"/>
      <point x="1213.1999999999998" y="1099.4"/>
      <point x="1274.1999999999998" y="1128.4"/>
      <point x="1333.8" y="1128.4" type="curve" smooth="yes"/>
      <point x="1392.0" y="1128.4"/>
      <point x="1434.3999999999999" y="1105.2"/>
      <point x="1494.8000000000002" y="1105.2" type="curve" smooth="yes"/>
      <point x="1591.2" y="1105.2"/>
      <point x="1664.8" y="1154.4"/>
      <point x="1675.1999999999998" y="1261.8000000000002" type="curve" smooth="yes"/>
      <point x="1684.8" y="1359.0"/>
      <point x="1623.0" y="1430.8"/>
      <point x="1513.0" y="1430.8" type="curve" smooth="yes"/>
      <point x="1413.6000000000001" y="1430.8"/>
      <point x="1340.2" y="1385.4"/>
      <point x="1223.0" y="1264.8" type="curve" smooth="yes"/>
      <point x="489.6" y="496.80000000000007" type="line"/>
    </contour>
  </outline>
</glyph>
<glyph name="L" format="2">
  <advance width="1218.0"/>
  <unicode hex="004C"/>
  <anchor x="962.8000000000001" y="1236.0" name="right"/>
  <outline>
    <contour>
      <point x="697.6" y="0.0" type="line" smooth="yes"/>
      <point x="786.2" y="0.0"/>
      <point x="820.0" y="-28.599999999999998"/>
      <point x="876.4000000000001" y="-28.599999999999998" type="curve" smooth="yes"/>
      <point x="1038.8" y="-28.599999999999998"/>
      <point x="1149.0" y="138.8"/>
      <point x="1158.6" y="394.8" type="curve" smooth="yes"/>
      <point x="1159.4" y="441.2"/>
      <point x="1142.9999999999998" y="470.40000000000003"/>
      <point x="1100.6" y="470.40000000000003" type="curve" smooth="yes"/>
      <point x="1071.0" y="470.40000000000003"/>
      <point x="1044.6" y="451.4"/>
      <point x="1015.8" y="398.59999999999997" type="curve" smooth="yes"/>
      <point x="905.8000000000002" y="180.2"/>
      <point x="834.4000000000001" y="108.0"/>
      <point x="712.8" y="108.0" type="curve" smooth="yes"/>
      <point x="626.2" y="108.0" type="line" smooth="yes"/>
      <point x="559.9999999999999" y="108.0"/>
      <point x="529.6" y="137.8"/>
      <point x="547.0" y="223.2" type="curve" smooth="yes"/>
      <point x="567.4000000000001" y="330.6"/>
      <point x="729.6" y="978.2"/>
      <point x="800.0" y="1196.0" type="curve" smooth="yes"/>
      <point x="815.0" y="1242.3999999999999"/>
      <point x="828.0000000000001" y="1257.4"/>
      <point x="855.4" y="1265.4" type="curve" smooth="yes"/>
      <point x="910.4" y="1279.6" type="line" smooth="yes"/>
      <point x="938.2" y="1290.6"/>
      <point x="962.4" y="1312.8000000000002"/>
      <point x="962.4" y="1344.8" type="curve" smooth="yes"/>
      <point x="962.4" y="1376.3999999999999"/>
      <point x="947.4" y="1400.0"/>
      <point x="893.1999999999999" y="1400.0" type="curve" smooth="yes"/>
      <point x="394.8" y="1400.0" type="line"/>
      <point x="342.40000000000003" y="1400.0"/>
      <point x="314.00000000000006" y="1373.4"/>
      <point x="314.00000000000006" y="1335.6" type="curve" smooth="yes"/>
      <point x="314.00000000000006" y="1309.3999999999999"/>
      <point x="331.6" y="1293.3999999999999"/>
      <point x="357.2" y="1283.0" type="curve" smooth="yes"/>
      <point x="407.2" y="1267.7999999999997" type="line" smooth="yes"/>
      <point x="429.8" y="1260.4"/>
      <point x="440.20000000000005" y="1242.1999999999998"/>
      <point x="434.2" y="1210.2" type="curve" smooth="yes"/>
      <point x="409.0" y="1082.0"/>
      <point x="216.2" y="357.40000000000003"/>
      <point x="174.2" y="215.40000000000003" type="curve" smooth="yes"/>
      <point x="157.99999999999997" y="164.6"/>
      <point x="146.8" y="144.8"/>
      <point x="111.80000000000001" y="133.79999999999998" type="curve" smooth="yes"/>
      <point x="62.80000000000001" y="120.6" type="line" smooth="yes"/>
      <point x="31.2" y="108.79999999999998"/>
      <point x="8.799999999999999" y="86.2"/>
      <point x="8.6" y="55.6" type="curve" smooth="yes"/>
      <point x="7.6" y="23.8"/>
      <point x="22.999999999999996" y="0.0"/>
      <point x="78.0" y="0.0" type="curve"/>
    </contour>
  </outline>
</glyph>
<glyph name="M" format="2">
  <advance width="1833.1999999999998"/>
  <unicode hex="004D"/>
  <anchor x="817.4000000000001" y="1444.0" name="center"/>
  <outline>
    <contour>
      <point x="964.4" y="448.0" type="line"/>
      <point x="910.5999999999999" y="742.4"/>
      <point x="863.6" y="1048.3999999999999"/>
      <point x="825.5999999999999" y="1272.8" type="curve" smooth="yes"/>
      <point x="806.4" y="1366.8"/>
      <point x="759.8" y="1400.0"/>
      <point x="689.0" y="1400.0" type="curve" smooth="yes"/>
      <point x="397.40000000000003" y="1400.0" type="line" smooth="yes"/>
      <point x="348.2" y="1400.0"/>
      <point x="317.8" y="1375.9999999999998"/>
      <point x="317.2" y="1336.4" type="curve" smooth="yes"/>
      <point x="316.4" y="1310.3999999999999"/>
      <point x="329.59999999999997" y="1294.8"/>
      <point x="357.8" y="1282.8" type="curve" smooth="yes"/>
      <point x="407.99999999999994" y="1267.2000000000003" type="line" smooth="yes"/>
      <point x="440.0" y="1256.2"/>
      <point x="449.59999999999997" y="1234.6"/>
      <point x="433.00000000000006" y="1180.0000000000002" type="curve" smooth="yes"/>
      <point x="204.6" y="353.2" type="line" smooth="yes"/>
      <point x="156.4" y="182.8"/>
      <point x="124.4" y="151.60000000000002"/>
      <point x="74.6" y="133.8" type="curve" smooth="yes"/>
      <point x="39.8" y="122.00000000000001" type="line" smooth="yes"/>
      <point x="9.799999999999994" y="110.8"/>
      <point x="-13.999999999999996" y="89.8"/>
      <point x="-14.600000000000009" y="56.39999999999999" type="curve" smooth="yes"/>
      <point x="-15.199999999999989" y="24.200000000000003"/>
      <point x="0.8000000000000043" y="0.0"/>
      <point x="55.20000000000001" y="0.0" type="curve" smooth="yes"/>
      <point x="357.20000000000005" y="0.0" type="line" smooth="yes"/>
      <point x="409.6" y="0.0"/>
      <point x="439.2" y="26.0"/>
      <point x="440.2" y="65.4" type="curve" smooth="yes"/>
      <point x="440.8" y="88.99999999999999"/>
      <point x="428.40000000000003" y="104.00000000000001"/>
      <point x="399.6" y="117.60000000000001" type="curve" smooth="yes"/>
      <point x="362.00000000000006" y="131.2" type="line" smooth="yes"/>
      <point x="314.80000000000007" y="149.0"/>
      <point x="299.20000000000005" y="190.39999999999998"/>
      <point x="318.59999999999997" y="270.40000000000003" type="curve" smooth="yes"/>
      <point x="554.2" y="1113.9999999999998" type="line"/>
      <point x="518.8000000000002" y="1106.8000000000002" type="line"/>
      <point x="569.2" y="782.6"/>
      <point x="619.2" y="442.0"/>
      <point x="653.8000000000001" y="215.79999999999998" type="curve" smooth="yes"/>
      <point x="668.1999999999999" y="144.79999999999998"/>
      <point x="704.6" y="108.8"/>
      <point x="749.2" y="108.8" type="curve" smooth="yes"/>
      <point x="804.8" y="108.8"/>
      <point x="834.4" y="131.0"/>
      <point x="882.2" y="200.8" type="curve" smooth="yes"/>
      <point x="1423.0000000000002" y="1103.2" type="line"/>
      <point x="1396.4" y="1102.3999999999999" type="line"/>
      <point x="1346.0" y="803.4"/>
      <point x="1270.2" y="441.8"/>
      <point x="1229.6" y="223.6" type="curve" smooth="yes"/>
      <point x="1217.8" y="167.6"/>
      <point x="1201.6" y="145.4"/>
      <point x="1168.2" y="134.39999999999998" type="curve" smooth="yes"/>
      <point x="1116.6000000000001" y="120.40000000000002" type="line" smooth="yes"/>
      <point x="1088.8" y="109.60000000000001"/>
      <point x="1065.2" y="89.2"/>
      <point x="1064.4" y="56.80000000000001" type="curve" smooth="yes"/>
      <point x="1064.2" y="21.799999999999997"/>
      <point x="1080.8000000000002" y="0.0"/>
      <point x="1133.2000000000003" y="0.0" type="curve" smooth="yes"/>
      <point x="1624.6000000000001" y="0.0" type="line" smooth="yes"/>
      <point x="1676.6" y="0.0"/>
      <point x="1705.0" y="25.4"/>
      <point x="1705.6000000000001" y="64.80000000000001" type="curve" smooth="yes"/>
      <point x="1706.3999999999999" y="90.59999999999998"/>
      <point x="1691.3999999999999" y="105.19999999999999"/>
      <point x="1664.0" y="117.0" type="curve" smooth="yes"/>
      <point x="1613.2" y="132.20000000000002" type="line" smooth="yes"/>
      <point x="1584.3999999999999" y="142.60000000000002"/>
      <point x="1575.0" y="170.8"/>
      <point x="1582.8" y="213.80000000000004" type="curve" smooth="yes"/>
      <point x="1603.2" y="345.2"/>
      <point x="1739.2" y="1041.2"/>
      <point x="1769.0" y="1192.4" type="curve" smooth="yes"/>
      <point x="1777.6" y="1234.0"/>
      <point x="1793.8" y="1256.6000000000001"/>
      <point x="1821.6" y="1265.6000000000001" type="curve" smooth="yes"/>
      <point x="1873.6000000000001" y="1279.2" type="line" smooth="yes"/>
      <point x="1901.8000000000002" y="1289.4"/>
      <point x="1926.3999999999999" y="1310.8"/>
      <point x="1927.0" y="1344.8" type="curve" smooth="yes"/>
      <point x="1927.4" y="1380.1999999999998"/>
      <point x="1909.6" y="1400.0"/>
      <point x="1858.8000000000002" y="1400.0" type="curve" smooth="yes"/>
      <point x="1554.6" y="1400.0" type="line" smooth="yes"/>
      <point x="1503.2" y="1400.0"/>
      <point x="1447.0000000000002" y="1376.0000000000002"/>
      <point x="1397.2" y="1297.2" type="curve" smooth="yes"/>
      <point x="823.8000000000001" y="378.0" type="line"/>
    </contour>
  </outline>
</glyph>
<glyph name="N" format="2">
  <advance width="1467.8"/>
  <unicode hex="004E"/>
  <anchor x="1074.8" y="1497.0" name="center"/>
  <outline>
    <contour>
      <point x="342.59999999999997" y="314.0" type="line" smooth="yes"/>
      <point x="320.00000000000006" y="221.39999999999995"/>
      <point x="326.80000000000007" y="155.60000000000002"/>
      <point x="403.0" y="124.60000000000001" type="curve" smooth="yes"/>
      <point x="431.6000000000001" y="114.4" type="line" smooth="yes"/>
      <point x="455.40000000000003" y="103.4"/>
      <point x="473.2" y="84.0"/>
      <point x="473.2" y="57.79999999999999" type="curve" smooth="yes"/>
      <point x="473.2" y="20.0"/>
      <point x="445.2" y="0.0"/>
      <point x="405.6" y="0.0" type="curve" smooth="yes"/>
      <point x="61.19999999999999" y="0.0" type="line" smooth="yes"/>
      <point x="10.799999999999995" y="0.0"/>
      <point x="-8.40000000000001" y="23.599999999999998"/>
      <point x="-8.400000000000007" y="55.8" type="curve" smooth="yes"/>
      <point x="-8.399999999999995" y="82.4"/>
      <point x="9.2" y="106.8"/>
      <point x="43.199999999999996" y="120.80000000000003" type="curve" smooth="yes"/>
      <point x="82.39999999999999" y="135.0" type="line" smooth="yes"/>
      <point x="134.6" y="153.8"/>
      <point x="180.0" y="220.4"/>
      <point x="206.79999999999998" y="326.79999999999995" type="curve" smooth="yes"/>
      <point x="385.2" y="1014.9999999999999" type="line" smooth="yes"/>
      <point x="403.40000000000003" y="1075.6000000000001"/>
      <point x="399.2" y="1134.6"/>
      <point x="365.99999999999994" y="1174.0" type="curve" smooth="yes"/>
      <point x="315.40000000000003" y="1278.2" type="line" smooth="yes"/>
      <point x="267.6" y="1328.8"/>
      <point x="285.40000000000003" y="1400.0"/>
      <point x="365.4" y="1400.0" type="curve" smooth="yes"/>
      <point x="592.4" y="1400.0" type="line" smooth="yes"/>
      <point x="674.5999999999999" y="1400.0"/>
      <point x="708.4" y="1365.3999999999999"/>
      <point x="744.1999999999999" y="1298.6000000000001" type="curve" smooth="yes"/>
      <point x="879.5999999999999" y="951.1999999999999"/>
      <point x="1042.1999999999998" y="615.5999999999999"/>
      <point x="1166.6" y="328.8" type="curve"/>
      <point x="1040.2000000000003" y="273.6" type="line"/>
      <point x="1261.6" y="1184.8" type="line" smooth="yes"/>
      <point x="1308.0" y="1362.0"/>
      <point x="1395.0" y="1448.4"/>
      <point x="1511.2" y="1448.4" type="curve" smooth="yes"/>
      <point x="1592.8000000000002" y="1448.4"/>
      <point x="1655.1999999999998" y="1399.8"/>
      <point x="1654.4" y="1313.8" type="curve" smooth="yes"/>
      <point x="1652.8000000000002" y="1232.8"/>
      <point x="1607.1999999999998" y="1170.4"/>
      <point x="1505.4" y="1110.2" type="curve" smooth="yes"/>
      <point x="1400.3999999999999" y="1048.7999999999997"/>
      <point x="1353.8000000000002" y="991.5999999999999"/>
      <point x="1321.1999999999998" y="866.6" type="curve" smooth="yes"/>
      <point x="1210.6" y="385.00000000000006" type="line" smooth="yes"/>
      <point x="1197.0" y="334.8"/>
      <point x="1196.6" y="305.8"/>
      <point x="1216.6000000000001" y="258.99999999999994" type="curve" smooth="yes"/>
      <point x="1270.1999999999998" y="109.99999999999999" type="line" smooth="yes"/>
      <point x="1296.2" y="53.2"/>
      <point x="1269.9999999999998" y="0.0"/>
      <point x="1210.2" y="0.0" type="curve" smooth="yes"/>
      <point x="918.6" y="0.0" type="line" smooth="yes"/>
      <point x="863.4000000000001" y="0.0"/>
      <point x="833.8000000000001" y="32.0"/>
      <point x="834.5999999999999" y="90.4" type="curve" smooth="yes"/>
      <point x="836.2" y="147.79999999999998"/>
      <point x="825.8000000000001" y="194.20000000000005"/>
      <point x="797.2" y="247.99999999999997" type="curve" smooth="yes"/>
      <point x="734.1999999999999" y="411.0"/>
      <point x="576.8" y="774.6"/>
      <point x="434.4" y="1102.2" type="curve"/>
      <point x="553.2" y="1113.0" type="line"/>
    </contour>
  </outline>
</glyph>
<glyph name="O" format="2">
  <advance width="1561.6000000000001"/>
  <unicode hex="004F"/>
  <anchor x="1067.3999999999999" y="1546.0" name="center"/>
  <outline>
    <contour>
      <point x="1019.0000000000001" y="1427.2" type="curve" smooth="yes"/>
      <point x="585.6" y="1433.8000000000002"/>
      <point x="240.6" y="1140.3999999999999"/>
      <point x="142.20000000000002" y="739.8" type="curve" smooth="yes"/>
      <point x="30.200000000000003" y="280.99999999999994"/>
      <point x="241.0" y="-17.6"/>
      <point x="638.2" y="-25.8" type="curve" smooth="yes"/>
      <point x="1043.8" y="-35.4"/>
      <point x="1423.8" y="210.2"/>
      <point x="1532.4" y="690.4000000000001" type="curve" smooth="yes"/>
      <point x="1626.3999999999999" y="1111.6000000000001"/>
      <point x="1411.7999999999997" y="1420.6000000000001"/>
    </contour>
    <contour>
      <point x="676.5999999999999" y="92.4" type="curve" smooth="yes"/>
      <point x="570.0" y="96.20000000000002"/>
      <point x="500.00000000000006" y="168.6"/>
      <point x="500.19999999999993" y="343.79999999999995" type="curve" smooth="yes"/>
      <point x="500.40000000000003" y="434.0"/>
      <point x="518.0" y="557.9999999999999"/>
      <point x="558.9999999999999" y="726.2" type="curve" smooth="yes"/>
      <point x="663.4" y="1161.3999999999999"/>
      <point x="833.4" y="1320.2"/>
      <point x="991.2" y="1308.8000000000002" type="curve" smooth="yes"/>
      <point x="1092.0000000000002" y="1302.4"/>
      <point x="1164.3999999999999" y="1223.0"/>
      <point x="1165.4" y="1048.6000000000001" type="curve" smooth="yes"/>
      <point x="1165.8" y="962.2"/>
      <point x="1150.0" y="850.1999999999999"/>
      <point x="1114.6000000000001" y="703.9999999999999" type="curve" smooth="yes"/>
      <point x="996.1999999999999" y="224.0"/>
      <point x="824.4" y="86.2"/>
    </contour>
  </outline>
</glyph>
<glyph name="P" format="2">
  <advance width="1414.8"/>
  <unicode hex="0050"/>
  <outline>
    <contour>
      <point x="1455.4" y="910.4" type="curve" smooth="yes"/>
      <point x="1513.8" y="1207.7999999999997"/>
      <point x="1312.4" y="1400.0"/>
      <point x="979.2" y="1400.0" type="curve" smooth="yes"/>
      <point x="392.80000000000007" y="1400.0" type="line" smooth="yes"/>
      <point x="339.79999999999995" y="1400.0"/>
      <point x="311.4" y="1374.4"/>
      <point x="311.4" y="1335.0000000000002" type="curve" smooth="yes"/>
      <point x="311.4" y="1309.4"/>
      <point x="325.4" y="1294.6"/>
      <point x="352.99999999999994" y="1282.8" type="curve" smooth="yes"/>
      <point x="401.2" y="1268.2" type="line" smooth="yes"/>
      <point x="425.2" y="1260.8"/>
      <point x="436.4" y="1245.3999999999999"/>
      <point x="430.4" y="1211.4" type="curve" smooth="yes"/>
      <point x="412.4" y="1120.2"/>
      <point x="212.79999999999998" y="347.8"/>
      <point x="165.0" y="199.60000000000002" type="curve" smooth="yes"/>
      <point x="152.4" y="160.2"/>
      <point x="139.20000000000002" y="142.79999999999998"/>
      <point x="105.19999999999999" y="133.0" type="curve" smooth="yes"/>
      <point x="58.599999999999994" y="120.40000000000002" type="line" smooth="yes"/>
      <point x="28.600000000000005" y="110.39999999999999"/>
      <point x="4.199999999999998" y="88.19999999999999"/>
      <point x="4.200000000000003" y="56.00000000000001" type="curve" smooth="yes"/>
      <point x="4.199999999999998" y="23.200000000000003"/>
      <point x="17.6" y="0.0"/>
      <point x="72.8" y="0.0" type="curve" smooth="yes"/>
      <point x="605.4" y="0.0" type="line" smooth="yes"/>
      <point x="657.4000000000001" y="0.0"/>
      <point x="686.2" y="26.400000000000006"/>
      <point x="686.2" y="65.2" type="curve" smooth="yes"/>
      <point x="686.2" y="91.00000000000001"/>
      <point x="673.6" y="110.80000000000001"/>
      <point x="642.5999999999999" y="117.8" type="curve" smooth="yes"/>
      <point x="559.8000000000001" y="132.0" type="line" smooth="yes"/>
      <point x="535.0" y="137.60000000000002"/>
      <point x="524.6" y="157.2"/>
      <point x="539.1999999999998" y="208.39999999999998" type="curve" smooth="yes"/>
      <point x="579.8" y="361.0"/>
      <point x="767.8000000000001" y="1103.3999999999999"/>
      <point x="780.8000000000001" y="1157.0" type="curve" smooth="yes"/>
      <point x="806.4" y="1241.4"/>
      <point x="844.1999999999999" y="1279.2"/>
      <point x="918.0" y="1279.2" type="curve" smooth="yes"/>
      <point x="1047.4" y="1279.2"/>
      <point x="1139.8" y="1178.3999999999999"/>
      <point x="1096.8" y="934.6" type="curve" smooth="yes"/>
      <point x="1055.1999999999998" y="688.2"/>
      <point x="926.0" y="563.6"/>
      <point x="749.6" y="563.6" type="curve" smooth="yes"/>
      <point x="674.0" y="563.6"/>
      <point x="608.8" y="582.8000000000001"/>
      <point x="547.0" y="623.8000000000001" type="curve"/>
      <point x="502.59999999999997" y="515.5999999999999" type="line"/>
      <point x="597.8000000000001" y="470.59999999999997"/>
      <point x="676.0" y="450.59999999999997"/>
      <point x="814.0000000000001" y="450.59999999999997" type="curve" smooth="yes"/>
      <point x="1132.4" y="450.59999999999997"/>
      <point x="1399.4" y="616.8"/>
    </contour>
  </outline>
</glyph>
<glyph name="Q" format="2">
  <advance width="1561.6000000000001"/>
  <unicode hex="0051"/>
  <outline>
    <contour>
      <point x="709.0" y="376.0" type="curve" smooth="yes"/>
      <point x="587.1999999999999" y="-113.00000000000001"/>
      <point x="715.8" y="-347.59999999999997"/>
      <point x="963.8000000000001" y="-371.4" type="curve" smooth="yes"/>
      <point x="1099.0" y="-384.0"/>
      <point x="1150.3999999999999" y="-349.79999999999995"/>
      <point x="1181.0" y="-307.4" type="curve" smooth="yes"/>
      <point x="1268.8000000000002" y="-178.0" type="line" smooth="yes"/>
      <point x="1285.4" y="-156.0"/>
      <point x="1279.0000000000002" y="-128.0"/>
      <point x="1263.1999999999998" y="-123.0" type="curve" smooth="yes"/>
      <point x="1238.4" y="-113.39999999999999"/>
      <point x="1172.4" y="-172.8"/>
      <point x="1006.2" y="-149.6" type="curve" smooth="yes"/>
      <point x="801.2" y="-120.60000000000001"/>
      <point x="698.8" y="0.19999999999999885"/>
      <point x="780.2" y="361.2" type="curve" smooth="yes"/>
      <point x="787.8" y="392.4"/>
      <point x="782.6" y="411.0"/>
      <point x="756.8" y="416.2" type="curve" smooth="yes"/>
      <point x="732.0" y="420.79999999999995"/>
      <point x="716.4" y="402.79999999999995"/>
    </contour>
    <contour>
      <point x="1019.0" y="1427.2" type="curve" smooth="yes"/>
      <point x="585.6" y="1433.8000000000002"/>
      <point x="240.60000000000002" y="1140.4"/>
      <point x="142.2" y="739.8000000000002" type="curve" smooth="yes"/>
      <point x="30.200000000000003" y="281.00000000000006"/>
      <point x="241.0" y="-17.6"/>
      <point x="638.2" y="-25.800000000000004" type="curve" smooth="yes"/>
      <point x="1043.8" y="-35.4"/>
      <point x="1423.8" y="210.20000000000002"/>
      <point x="1532.4" y="690.4000000000001" type="curve" smooth="yes"/>
      <point x="1626.4" y="1111.5999999999997"/>
      <point x="1411.8000000000002" y="1420.6000000000001"/>
    </contour>
    <contour>
      <point x="676.6" y="92.40000000000002" type="curve" smooth="yes"/>
      <point x="569.9999999999999" y="96.20000000000002"/>
      <point x="500.00000000000006" y="168.60000000000002"/>
      <point x="500.19999999999993" y="343.8" type="curve" smooth="yes"/>
      <point x="500.3999999999999" y="434.0"/>
      <point x="518.0" y="558.0"/>
      <point x="559.0" y="726.2" type="curve" smooth="yes"/>
      <point x="663.4" y="1161.4"/>
      <point x="833.4" y="1320.2"/>
      <point x="991.2" y="1308.8000000000002" type="curve" smooth="yes"/>
      <point x="1092.0" y="1302.4"/>
      <point x="1164.3999999999999" y="1222.9999999999998"/>
      <point x="1165.4" y="1048.6" type="curve" smooth="yes"/>
      <point x="1165.8" y="962.2"/>
      <point x="1150.0" y="850.1999999999999"/>
      <point x="1114.6" y="703.9999999999999" type="curve" smooth="yes"/>
      <point x="996.1999999999999" y="224.00000000000003"/>
      <point x="824.4000000000001" y="86.19999999999999"/>
    </contour>
  </outline>
</glyph>
<glyph name="R" format="2">
  <advance width="1491.3999999999999"/>
  <unicode hex="0052"/>
  <anchor x="997.1999999999999" y="1485.0" name="center"/>
  <outline>
    <contour>
      <point x="470.2" y="590.2" type="line"/>
      <point x="554.0" y="544.9999999999999"/>
      <point x="651.1999999999999" y="515.0"/>
      <point x="802.2" y="517.8" type="curve" smooth="yes"/>
      <point x="1167.3999999999999" y="522.5999999999999"/>
      <point x="1424.6" y="682.4"/>
      <point x="1474.9999999999998" y="931.8000000000001" type="curve" smooth="yes"/>
      <point x="1536.8000000000002" y="1219.4"/>
      <point x="1333.4" y="1400.0"/>
      <point x="968.4" y="1400.0" type="curve" smooth="yes"/>
      <point x="396.59999999999997" y="1400.0" type="line" smooth="yes"/>
      <point x="346.0" y="1400.0"/>
      <point x="316.40000000000003" y="1374.0"/>
      <point x="316.40000000000003" y="1335.7999999999997" type="curve" smooth="yes"/>
      <point x="316.40000000000003" y="1309.8000000000002"/>
      <point x="331.0" y="1294.0"/>
      <point x="358.6" y="1282.8" type="curve" smooth="yes"/>
      <point x="404.79999999999995" y="1270.0" type="line" smooth="yes"/>
      <point x="443.6" y="1254.4"/>
      <point x="439.4" y="1236.3999999999999"/>
      <point x="426.79999999999995" y="1181.6" type="curve" smooth="yes"/>
      <point x="401.59999999999997" y="1058.7999999999997"/>
      <point x="203.0" y="315.8"/>
      <point x="170.4" y="201.2" type="curve" smooth="yes"/>
      <point x="157.00000000000003" y="161.39999999999998"/>
      <point x="142.4" y="142.0"/>
      <point x="109.80000000000001" y="133.0" type="curve" smooth="yes"/>
      <point x="62.599999999999994" y="120.40000000000002" type="line" smooth="yes"/>
      <point x="32.4" y="110.39999999999999"/>
      <point x="8.6" y="88.99999999999999"/>
      <point x="8.600000000000001" y="55.2" type="curve" smooth="yes"/>
      <point x="8.600000000000001" y="22.800000000000004"/>
      <point x="23.6" y="0.0"/>
      <point x="76.6" y="0.0" type="curve" smooth="yes"/>
      <point x="565.8000000000001" y="0.0" type="line" smooth="yes"/>
      <point x="618.6" y="0.0"/>
      <point x="645.4" y="25.200000000000003"/>
      <point x="645.4" y="63.4" type="curve" smooth="yes"/>
      <point x="645.4" y="91.19999999999999"/>
      <point x="628.1999999999999" y="106.8"/>
      <point x="600.4" y="121.80000000000003" type="curve" smooth="yes"/>
      <point x="556.4000000000001" y="136.0" type="line" smooth="yes"/>
      <point x="532.4" y="146.39999999999998"/>
      <point x="517.6" y="156.0"/>
      <point x="529.4" y="204.39999999999998" type="curve" smooth="yes"/>
      <point x="560.4" y="347.20000000000005"/>
      <point x="747.4" y="1049.0"/>
      <point x="785.2" y="1183.2" type="curve" smooth="yes"/>
      <point x="806.4000000000001" y="1250.2"/>
      <point x="837.8" y="1289.4"/>
      <point x="926.5999999999999" y="1289.4" type="curve" smooth="yes"/>
      <point x="1060.0000000000002" y="1289.4"/>
      <point x="1156.6" y="1192.8"/>
      <point x="1122.3999999999999" y="978.8" type="curve" smooth="yes"/>
      <point x="1088.6000000000001" y="762.6"/>
      <point x="965.4" y="623.6"/>
      <point x="774.8000000000001" y="623.6" type="curve" smooth="yes"/>
      <point x="689.9999999999999" y="623.6"/>
      <point x="620.0" y="639.8000000000001"/>
      <point x="562.8" y="676.4" type="curve"/>
    </contour>
    <contour>
      <point x="763.2" y="536.9999999999999" type="line"/>
      <point x="864.8" y="145.39999999999998" type="line" smooth="yes"/>
      <point x="897.6" y="18.799999999999997"/>
      <point x="959.9999999999999" y="-27.8"/>
      <point x="1068.3999999999999" y="-27.8" type="curve" smooth="yes"/>
      <point x="1220.8" y="-27.8"/>
      <point x="1355.0" y="57.0"/>
      <point x="1412.8" y="195.4" type="curve" smooth="yes"/>
      <point x="1429.5999999999997" y="233.6"/>
      <point x="1420.8" y="262.8"/>
      <point x="1393.2000000000003" y="272.4" type="curve" smooth="yes"/>
      <point x="1376.8" y="278.8"/>
      <point x="1355.6000000000001" y="271.6"/>
      <point x="1343.8" y="261.4" type="curve" smooth="yes"/>
      <point x="1317.6000000000001" y="233.4"/>
      <point x="1293.0" y="216.20000000000005"/>
      <point x="1264.6" y="216.20000000000005" type="curve" smooth="yes"/>
      <point x="1225.6000000000001" y="216.20000000000005"/>
      <point x="1199.2" y="247.99999999999997"/>
      <point x="1180.1999999999998" y="316.59999999999997" type="curve" smooth="yes"/>
      <point x="1099.0" y="594.6" type="line"/>
    </contour>
  </outline>
</glyph>
<glyph name="S" format="2">
  <advance width="1231.2000000000003"/>
  <unicode hex="0053"/>
  <anchor x="893.0" y="1528.0" name="center"/>
  <outline>
    <contour>
      <point x="616.4000000000001" y="-24.8" type="curve" smooth="yes"/>
      <point x="889.8000000000001" y="-24.8"/>
      <point x="1082.6000000000001" y="125.0"/>
      <point x="1105.0" y="337.6" type="curve" smooth="yes"/>
      <point x="1125.6" y="514.5999999999999"/>
      <point x="1061.7999999999997" y="644.8"/>
      <point x="804.2" y="811.1999999999999" type="curve" smooth="yes"/>
      <point x="639.0000000000001" y="918.8000000000001"/>
      <point x="585.0" y="1008.6000000000001"/>
      <point x="601.1999999999999" y="1122.0" type="curve" smooth="yes"/>
      <point x="616.0" y="1230.6"/>
      <point x="695.2" y="1314.1999999999998"/>
      <point x="821.0" y="1314.1999999999998" type="curve" smooth="yes"/>
      <point x="915.1999999999999" y="1314.1999999999998"/>
      <point x="984.5999999999999" y="1258.3999999999999"/>
      <point x="1017.0" y="1140.8" type="curve" smooth="yes"/>
      <point x="1039.4" y="1058.3999999999999" type="line" smooth="yes"/>
      <point x="1069.3999999999999" y="969.1999999999998"/>
      <point x="1108.4" y="936.8000000000001"/>
      <point x="1174.7999999999997" y="936.8000000000001" type="curve" smooth="yes"/>
      <point x="1258.6" y="936.8000000000001"/>
      <point x="1306.4" y="1003.1999999999999"/>
      <point x="1310.4" y="1090.9999999999998" type="curve" smooth="yes"/>
      <point x="1317.6000000000001" y="1260.2"/>
      <point x="1152.1999999999998" y="1428.8000000000002"/>
      <point x="841.4" y="1428.8000000000002" type="curve" smooth="yes"/>
      <point x="483.6" y="1428.8000000000002"/>
      <point x="286.6" y="1231.0"/>
      <point x="260.8" y="996.4" type="curve" smooth="yes"/>
      <point x="239.79999999999998" y="811.1999999999999"/>
      <point x="321.4" y="684.1999999999999"/>
      <point x="526.2" y="560.4" type="curve" smooth="yes"/>
      <point x="702.4" y="455.40000000000003"/>
      <point x="753.4" y="363.0"/>
      <point x="734.5999999999999" y="255.8" type="curve" smooth="yes"/>
      <point x="720.2" y="162.0"/>
      <point x="650.6" y="102.6"/>
      <point x="542.2" y="102.6" type="curve" smooth="yes"/>
      <point x="417.6000000000001" y="102.6"/>
      <point x="313.99999999999994" y="172.59999999999997"/>
      <point x="281.0" y="305.0" type="curve" smooth="yes"/>
      <point x="252.99999999999994" y="420.59999999999997" type="line" smooth="yes"/>
      <point x="229.0" y="473.59999999999997"/>
      <point x="207.59999999999997" y="500.8"/>
      <point x="168.79999999999998" y="500.8" type="curve" smooth="yes"/>
      <point x="127.80000000000001" y="500.8"/>
      <point x="100.0" y="470.0"/>
      <point x="96.2" y="412.0" type="curve" smooth="yes"/>
      <point x="54.400000000000006" y="61.199999999999996" type="line" smooth="yes"/>
      <point x="50.39999999999999" y="6.2"/>
      <point x="74.0" y="-17.4"/>
      <point x="120.2" y="-17.4" type="curve" smooth="yes"/>
      <point x="179.00000000000003" y="-17.4"/>
      <point x="245.8" y="83.0"/>
      <point x="285.8" y="83.0" type="curve" smooth="yes"/>
      <point x="325.00000000000006" y="83.0"/>
      <point x="390.40000000000003" y="-24.8"/>
    </contour>
  </outline>
</glyph>
<glyph name="T" format="2">
  <advance width="1280.0"/>
  <unicode hex="0054"/>
  <anchor x="508.79999999999995" y="1516.0" name="center"/>
  <outline>
    <contour>
      <point x="547.0" y="1427.4" type="curve" smooth="yes"/>
      <point x="318.79999999999995" y="1427.4"/>
      <point x="190.0" y="1293.4"/>
      <point x="186.0" y="1127.4" type="curve" smooth="yes"/>
      <point x="182.6" y="1014.7999999999998"/>
      <point x="244.4" y="948.4000000000001"/>
      <point x="335.8" y="948.1999999999999" type="curve" smooth="yes"/>
      <point x="414.99999999999994" y="948.0"/>
      <point x="467.2" y="1001.9999999999999"/>
      <point x="468.0" y="1070.6000000000001" type="curve" smooth="yes"/>
      <point x="468.2" y="1123.4"/>
      <point x="447.40000000000003" y="1153.2"/>
      <point x="449.0" y="1202.0000000000002" type="curve" smooth="yes"/>
      <point x="450.2" y="1273.8000000000002"/>
      <point x="488.0" y="1312.1999999999998"/>
      <point x="570.2000000000002" y="1312.1999999999998" type="curve" smooth="yes"/>
      <point x="725.0000000000001" y="1312.1999999999998"/>
      <point x="1108.6000000000001" y="1171.8"/>
      <point x="1269.3999999999996" y="1171.8" type="curve" smooth="yes"/>
      <point x="1425.6" y="1171.8"/>
      <point x="1524.6" y="1264.0000000000002"/>
      <point x="1527.0" y="1410.3999999999999" type="curve" smooth="yes"/>
      <point x="1527.7999999999997" y="1509.6000000000001"/>
      <point x="1474.5999999999997" y="1563.3999999999999"/>
      <point x="1402.8" y="1563.3999999999999" type="curve" smooth="yes"/>
      <point x="1314.6" y="1563.3999999999999"/>
      <point x="1273.0000000000002" y="1512.1999999999998"/>
      <point x="1263.6000000000001" y="1443.1999999999998" type="curve" smooth="yes"/>
      <point x="1260.6" y="1410.3999999999999"/>
      <point x="1263.8" y="1384.2"/>
      <point x="1258.6" y="1361.0" type="curve" smooth="yes"/>
      <point x="1249.8" y="1327.8"/>
      <point x="1227.8" y="1311.8000000000002"/>
      <point x="1188.0" y="1311.8000000000002" type="curve" smooth="yes"/>
      <point x="1071.0" y="1311.8000000000002"/>
      <point x="768.6" y="1427.4"/>
    </contour>
    <contour>
      <point x="776.2" y="200.40000000000003" type="curve" smooth="yes"/>
      <point x="815.6" y="332.4"/>
      <point x="1017.4" y="1110.6000000000001"/>
      <point x="1076.0" y="1284.4" type="curve"/>
      <point x="731.0000000000001" y="1350.2000000000003" type="line"/>
      <point x="682.6" y="1186.6000000000001"/>
      <point x="467.00000000000006" y="385.8"/>
      <point x="413.0" y="222.4" type="curve" smooth="yes"/>
      <point x="394.8" y="168.4"/>
      <point x="376.0" y="141.8"/>
      <point x="353.80000000000007" y="135.8" type="curve" smooth="yes"/>
      <point x="297.99999999999994" y="120.6" type="line" smooth="yes"/>
      <point x="265.4" y="107.19999999999999"/>
      <point x="243.99999999999997" y="87.0"/>
      <point x="243.60000000000002" y="53.2" type="curve" smooth="yes"/>
      <point x="243.2" y="21.599999999999994"/>
      <point x="263.0" y="0.0"/>
      <point x="312.59999999999997" y="0.0" type="curve" smooth="yes"/>
      <point x="811.1999999999999" y="0.0" type="line" smooth="yes"/>
      <point x="860.2" y="0.0"/>
      <point x="893.1999999999999" y="20.799999999999997"/>
      <point x="894.1999999999999" y="62.400000000000006" type="curve" smooth="yes"/>
      <point x="895.1999999999999" y="86.39999999999999"/>
      <point x="882.4" y="102.0"/>
      <point x="852.6" y="115.99999999999999" type="curve" smooth="yes"/>
      <point x="796.5999999999999" y="133.0" type="line" smooth="yes"/>
      <point x="773.8000000000001" y="140.4"/>
      <point x="763.4000000000001" y="159.0"/>
    </contour>
  </outline>
</glyph>
<glyph name="U" format="2">
  <advance width="1459.3999999999999"/>
  <unicode hex="0055"/>
  <anchor x="1065.0" y="1479.0" name="center"/>
  <outline>
    <contour>
      <point x="1091.8" y="450.8" type="line" smooth="yes"/>
      <point x="1023.0" y="209.2"/>
      <point x="907.0" y="123.6"/>
      <point x="762.8000000000001" y="123.6" type="curve" smooth="yes"/>
      <point x="638.4" y="123.6"/>
      <point x="562.1999999999999" y="193.6"/>
      <point x="563.8000000000001" y="334.40000000000003" type="curve" smooth="yes"/>
      <point x="564.6" y="400.8"/>
      <point x="579.8000000000001" y="487.4"/>
      <point x="618.0000000000001" y="630.8" type="curve" smooth="yes"/>
      <point x="759.8" y="1156.0" type="line" smooth="yes"/>
      <point x="779.2" y="1223.2"/>
      <point x="793.4" y="1253.6"/>
      <point x="833.0" y="1266.8000000000002" type="curve" smooth="yes"/>
      <point x="877.1999999999999" y="1277.4" type="line" smooth="yes"/>
      <point x="914.1999999999999" y="1290.0"/>
      <point x="932.8" y="1321.4"/>
      <point x="933.5999999999999" y="1349.9999999999998" type="curve" smooth="yes"/>
      <point x="933.6" y="1382.8"/>
      <point x="911.8" y="1400.0"/>
      <point x="867.0" y="1400.0" type="curve" smooth="yes"/>
      <point x="345.5999999999999" y="1400.0" type="line" smooth="yes"/>
      <point x="306.6" y="1400.0"/>
      <point x="282.6" y="1375.4"/>
      <point x="281.8" y="1346.2" type="curve" smooth="yes"/>
      <point x="281.0" y="1315.8"/>
      <point x="293.2" y="1304.0"/>
      <point x="325.6" y="1283.2000000000003" type="curve" smooth="yes"/>
      <point x="364.0" y="1271.8" type="line" smooth="yes"/>
      <point x="391.4" y="1258.8"/>
      <point x="399.80000000000007" y="1211.3999999999999"/>
      <point x="384.40000000000003" y="1159.6000000000001" type="curve" smooth="yes"/>
      <point x="243.39999999999998" y="629.6" type="line" smooth="yes"/>
      <point x="218.0" y="537.9999999999999"/>
      <point x="185.2" y="408.4"/>
      <point x="184.4" y="326.6" type="curve" smooth="yes"/>
      <point x="182.8" y="130.2"/>
      <point x="325.20000000000005" y="-26.0"/>
      <point x="617.2" y="-26.0" type="curve"/>
      <point x="937.8" y="-26.0"/>
      <point x="1138.8" y="110.8"/>
      <point x="1233.6" y="439.6" type="curve" smooth="yes"/>
      <point x="1409.6000000000001" y="1055.2" type="line" smooth="yes"/>
      <point x="1442.6" y="1179.3999999999999"/>
      <point x="1481.4" y="1236.0000000000002"/>
      <point x="1550.2" y="1263.6000000000001" type="curve" smooth="yes"/>
      <point x="1579.6000000000001" y="1272.8" type="line" smooth="yes"/>
      <point x="1622.1999999999998" y="1290.2"/>
      <point x="1645.4" y="1308.1999999999998"/>
      <point x="1645.4" y="1346.6" type="curve" smooth="yes"/>
      <point x="1645.4" y="1377.8000000000002"/>
      <point x="1623.8000000000002" y="1400.0"/>
      <point x="1580.2000000000003" y="1400.0" type="curve" smooth="yes"/>
      <point x="1214.0000000000002" y="1400.0" type="line" smooth="yes"/>
      <point x="1163.1999999999998" y="1400.0"/>
      <point x="1136.3999999999999" y="1373.8000000000002"/>
      <point x="1136.3999999999999" y="1341.0" type="curve" smooth="yes"/>
      <point x="1135.6" y="1310.8000000000002"/>
      <point x="1149.8" y="1294.6"/>
      <point x="1194.3999999999999" y="1274.0" type="curve" smooth="yes"/>
      <point x="1221.9999999999998" y="1265.3999999999996" type="line" smooth="yes"/>
      <point x="1287.8" y="1240.6"/>
      <point x="1298.6000000000001" y="1176.8000000000002"/>
      <point x="1269.3999999999999" y="1065.0" type="curve" smooth="yes"/>
    </contour>
  </outline>
</glyph>
<glyph name="V" format="2">
  <advance width="1377.0"/>
  <unicode hex="0056"/>
  <outline>
    <contour>
      <point x="1082.4" y="1339.0" type="curve" smooth="yes"/>
      <point x="1082.4" y="1313.6"/>
      <point x="1098.8" y="1293.6000000000001"/>
      <point x="1126.1999999999998" y="1278.4000000000003" type="curve" smooth="yes"/>
      <point x="1161.0" y="1264.0" type="line" smooth="yes"/>
      <point x="1225.8000000000002" y="1231.8"/>
      <point x="1242.4" y="1167.6"/>
      <point x="1168.6" y="1047.8000000000002" type="curve" smooth="yes"/>
      <point x="596.8" y="133.39999999999998" type="line"/>
      <point x="713.2" y="176.0" type="line"/>
      <point x="713.2" y="517.1999999999999"/>
      <point x="700.9999999999999" y="999.2000000000002"/>
      <point x="702.0000000000001" y="1137.6" type="curve" smooth="yes"/>
      <point x="700.4" y="1222.3999999999999"/>
      <point x="720.4" y="1256.0"/>
      <point x="761.6" y="1266.0" type="curve" smooth="yes"/>
      <point x="812.3999999999999" y="1277.3999999999999" type="line" smooth="yes"/>
      <point x="845.6" y="1286.6"/>
      <point x="863.5999999999999" y="1308.3999999999999"/>
      <point x="863.5999999999999" y="1345.6000000000001" type="curve" smooth="yes"/>
      <point x="863.5999999999999" y="1380.2"/>
      <point x="841.2" y="1400.0"/>
      <point x="804.8" y="1400.0" type="curve" smooth="yes"/>
      <point x="306.0" y="1400.0" type="line" smooth="yes"/>
      <point x="263.80000000000007" y="1400.0"/>
      <point x="227.0" y="1372.2"/>
      <point x="227.0" y="1338.2" type="curve" smooth="yes"/>
      <point x="227.0" y="1309.0"/>
      <point x="241.6" y="1289.0"/>
      <point x="267.0" y="1278.8" type="curve" smooth="yes"/>
      <point x="295.8" y="1269.0" type="line" smooth="yes"/>
      <point x="327.20000000000005" y="1256.6000000000001"/>
      <point x="338.0" y="1231.2000000000003"/>
      <point x="338.99999999999994" y="1182.8" type="curve" smooth="yes"/>
      <point x="345.19999999999993" y="992.1999999999999"/>
      <point x="356.8" y="394.4"/>
      <point x="357.6" y="297.40000000000003" type="curve" smooth="yes"/>
      <point x="359.2" y="265.59999999999997"/>
      <point x="365.2" y="214.99999999999997"/>
      <point x="354.4" y="179.8" type="curve" smooth="yes"/>
      <point x="330.8" y="93.19999999999999" type="line" smooth="yes"/>
      <point x="315.40000000000003" y="39.39999999999999"/>
      <point x="338.6" y="0.0"/>
      <point x="388.6" y="0.0" type="curve" smooth="yes"/>
      <point x="668.0" y="0.0" type="line" smooth="yes"/>
      <point x="722.4000000000001" y="0.0"/>
      <point x="745.5999999999999" y="35.400000000000006"/>
      <point x="758.4" y="78.60000000000001" type="curve" smooth="yes"/>
      <point x="777.4" y="148.2" type="line" smooth="yes"/>
      <point x="788.0" y="185.0"/>
      <point x="801.3999999999999" y="212.2"/>
      <point x="823.8000000000001" y="246.0" type="curve" smooth="yes"/>
      <point x="1313.0" y="1019.5999999999998" type="line" smooth="yes"/>
      <point x="1395.8" y="1148.1999999999998"/>
      <point x="1446.2" y="1227.6"/>
      <point x="1514.6000000000001" y="1257.6000000000001" type="curve" smooth="yes"/>
      <point x="1542.8" y="1268.0" type="line" smooth="yes"/>
      <point x="1581.0" y="1284.0"/>
      <point x="1595.8" y="1305.2000000000003"/>
      <point x="1595.8" y="1343.9999999999998" type="curve" smooth="yes"/>
      <point x="1595.8" y="1376.8"/>
      <point x="1570.6" y="1400.0"/>
      <point x="1523.2" y="1400.0" type="curve" smooth="yes"/>
      <point x="1140.8" y="1400.0" type="line" smooth="yes"/>
      <point x="1105.6" y="1400.0"/>
      <point x="1082.4" y="1375.4"/>
    </contour>
  </outline>
</glyph>
<glyph name="W" format="2">
  <advance width="2063.7999999999997"/>
  <unicode hex="0057"/>
  <anchor x="1384.4" y="1478.0" name="center"/>
  <outline>
    <contour>
      <point x="1163.0000000000002" y="1130.2" type="line"/>
      <point x="585.0" y="202.80000000000004" type="line"/>
      <point x="682.5999999999999" y="216.6" type="line"/>
      <point x="679.8" y="545.6"/>
      <point x="687.8000000000001" y="1016.6"/>
      <point x="691.4000000000001" y="1166.8" type="curve" smooth="yes"/>
      <point x="693.2" y="1226.0"/>
      <point x="709.8" y="1253.8"/>
      <point x="751.6" y="1266.2" type="curve" smooth="yes"/>
      <point x="797.4" y="1278.6" type="line" smooth="yes"/>
      <point x="832.0000000000001" y="1292.0000000000002"/>
      <point x="852.2" y="1315.2"/>
      <point x="852.2" y="1345.6" type="curve" smooth="yes"/>
      <point x="852.1999999999999" y="1379.2"/>
      <point x="834.6" y="1400.0"/>
      <point x="780.6" y="1400.0" type="curve" smooth="yes"/>
      <point x="306.2" y="1400.0" type="line" smooth="yes"/>
      <point x="253.99999999999997" y="1400.0"/>
      <point x="226.2" y="1376.6"/>
      <point x="226.2" y="1340.4" type="curve" smooth="yes"/>
      <point x="226.2" y="1310.3999999999999"/>
      <point x="242.2" y="1293.6"/>
      <point x="274.8" y="1280.0" type="curve" smooth="yes"/>
      <point x="301.4" y="1270.2" type="line" smooth="yes"/>
      <point x="332.0" y="1259.4"/>
      <point x="335.2" y="1229.3999999999999"/>
      <point x="335.4" y="1189.6" type="curve" smooth="yes"/>
      <point x="341.8" y="960.8"/>
      <point x="342.2" y="391.79999999999995"/>
      <point x="343.8" y="266.4" type="curve" smooth="yes"/>
      <point x="345.2" y="224.39999999999998"/>
      <point x="341.20000000000005" y="194.8"/>
      <point x="332.59999999999997" y="166.4" type="curve" smooth="yes"/>
      <point x="309.40000000000003" y="80.8" type="line" smooth="yes"/>
      <point x="292.59999999999997" y="26.6"/>
      <point x="321.2" y="0.0"/>
      <point x="384.8" y="0.0" type="curve" smooth="yes"/>
      <point x="586.4000000000001" y="0.0" type="line" smooth="yes"/>
      <point x="653.8000000000001" y="0.0"/>
      <point x="680.6" y="26.0"/>
      <point x="696.8000000000001" y="73.2" type="curve" smooth="yes"/>
      <point x="716.0" y="135.20000000000002" type="line" smooth="yes"/>
      <point x="730.4" y="180.2"/>
      <point x="745.2" y="205.60000000000002"/>
      <point x="769.4" y="244.2" type="curve" smooth="yes"/>
      <point x="1235.8000000000002" y="1014.8000000000001" type="line"/>
    </contour>
    <contour>
      <point x="1784.3999999999999" y="1336.6" type="curve" smooth="yes"/>
      <point x="1784.3999999999999" y="1312.8"/>
      <point x="1797.0" y="1297.8"/>
      <point x="1820.4" y="1286.6000000000001" type="curve" smooth="yes"/>
      <point x="1862.0" y="1270.4" type="line" smooth="yes"/>
      <point x="1940.6" y="1235.6"/>
      <point x="1936.3999999999999" y="1158.2"/>
      <point x="1886.8000000000002" y="1068.0" type="curve" smooth="yes"/>
      <point x="1398.8" y="221.39999999999998" type="line"/>
      <point x="1494.0" y="215.8" type="line"/>
      <point x="1479.1999999999998" y="444.2"/>
      <point x="1462.9999999999998" y="1010.6"/>
      <point x="1458.0" y="1146.3999999999999" type="curve" smooth="yes"/>
      <point x="1456.0000000000002" y="1216.2"/>
      <point x="1468.2" y="1248.8"/>
      <point x="1510.8" y="1263.8000000000002" type="curve" smooth="yes"/>
      <point x="1556.6" y="1277.3999999999999" type="line" smooth="yes"/>
      <point x="1590.6" y="1292.2"/>
      <point x="1613.6" y="1313.6000000000001"/>
      <point x="1613.6" y="1344.1999999999998" type="curve" smooth="yes"/>
      <point x="1613.6" y="1382.4"/>
      <point x="1588.2" y="1400.0"/>
      <point x="1545.3999999999999" y="1400.0" type="curve" smooth="yes"/>
      <point x="1097.4" y="1400.0" type="line" smooth="yes"/>
      <point x="1045.2" y="1400.0"/>
      <point x="1015.5999999999999" y="1376.2"/>
      <point x="1015.5999999999999" y="1335.0" type="curve" smooth="yes"/>
      <point x="1015.5999999999999" y="1313.6"/>
      <point x="1030.8000000000002" y="1295.1999999999998"/>
      <point x="1053.8000000000002" y="1284.4" type="curve" smooth="yes"/>
      <point x="1083.0" y="1272.0" type="line" smooth="yes"/>
      <point x="1111.0" y="1261.7999999999997"/>
      <point x="1116.2" y="1240.1999999999998"/>
      <point x="1121.1999999999998" y="1187.6" type="curve" smooth="yes"/>
      <point x="1141.3999999999999" y="984.4000000000002"/>
      <point x="1153.4" y="413.2"/>
      <point x="1161.4" y="238.60000000000002" type="curve" smooth="yes"/>
      <point x="1162.9999999999998" y="210.6"/>
      <point x="1157.0" y="183.20000000000002"/>
      <point x="1148.3999999999999" y="156.00000000000003" type="curve" smooth="yes"/>
      <point x="1131.0000000000002" y="90.8" type="line" smooth="yes"/>
      <point x="1115.6000000000001" y="38.39999999999999"/>
      <point x="1144.4" y="0.0"/>
      <point x="1195.2" y="0.0" type="curve" smooth="yes"/>
      <point x="1418.2" y="0.0" type="line" smooth="yes"/>
      <point x="1467.1999999999998" y="0.0"/>
      <point x="1503.2" y="27.0"/>
      <point x="1513.8000000000002" y="77.0" type="curve" smooth="yes"/>
      <point x="1528.8" y="140.0" type="line" smooth="yes"/>
      <point x="1540.2" y="189.39999999999998"/>
      <point x="1549.8000000000002" y="218.4"/>
      <point x="1573.3999999999999" y="254.39999999999998" type="curve" smooth="yes"/>
      <point x="2030.8" y="1048.6000000000001" type="line" smooth="yes"/>
      <point x="2092.6000000000004" y="1154.8"/>
      <point x="2147.6" y="1237.6"/>
      <point x="2204.8" y="1264.2" type="curve" smooth="yes"/>
      <point x="2239.6" y="1279.1999999999998" type="line" smooth="yes"/>
      <point x="2274.4" y="1294.6000000000001"/>
      <point x="2292.9999999999995" y="1318.6"/>
      <point x="2293.0000000000005" y="1344.3999999999999" type="curve" smooth="yes"/>
      <point x="2293.0" y="1377.6"/>
      <point x="2276.4" y="1400.0"/>
      <point x="2224.2" y="1400.0" type="curve" smooth="yes"/>
      <point x="1865.0" y="1400.0" type="line" smooth="yes"/>
      <point x="1813.6" y="1400.0"/>
      <point x="1784.3999999999999" y="1373.8000000000002"/>
    </contour>
  </outline>
</glyph>
<glyph name="X" format="2">
  <advance width="1402.8000000000002"/>
  <unicode hex="0058"/>
  <outline>
    <contour>
      <point x="615.4" y="726.5999999999999" type="line"/>
      <point x="224.0" y="267.20000000000005" type="line" smooth="yes"/>
      <point x="163.0" y="192.39999999999998"/>
      <point x="87.4" y="146.39999999999998"/>
      <point x="35.400000000000006" y="128.79999999999998" type="curve" smooth="yes"/>
      <point x="-12.000000000000007" y="108.20000000000002"/>
      <point x="-27.800000000000008" y="88.20000000000002"/>
      <point x="-27.800000000000004" y="55.8" type="curve" smooth="yes"/>
      <point x="-27.800000000000004" y="20.599999999999998"/>
      <point x="-6.800000000000008" y="0.0"/>
      <point x="40.400000000000006" y="0.0" type="curve" smooth="yes"/>
      <point x="385.59999999999997" y="0.0" type="line" smooth="yes"/>
      <point x="429.0" y="0.0"/>
      <point x="462.2" y="26.4"/>
      <point x="462.2" y="63.4" type="curve" smooth="yes"/>
      <point x="462.2" y="89.4"/>
      <point x="447.0" y="105.39999999999999"/>
      <point x="424.99999999999994" y="114.8" type="curve" smooth="yes"/>
      <point x="398.3999999999999" y="124.20000000000002" type="line" smooth="yes"/>
      <point x="350.2" y="142.39999999999998"/>
      <point x="341.6" y="190.79999999999998"/>
      <point x="413.2" y="276.2" type="curve" smooth="yes"/>
      <point x="702.0" y="633.6" type="line"/>
    </contour>
    <contour>
      <point x="769.1999999999999" y="1185.4" type="curve" smooth="yes"/>
      <point x="755.0" y="1228.4000000000003"/>
      <point x="763.2" y="1256.1999999999998"/>
      <point x="795.8000000000001" y="1266.0" type="curve" smooth="yes"/>
      <point x="838.4000000000001" y="1276.8" type="line" smooth="yes"/>
      <point x="876.4" y="1292.8000000000002"/>
      <point x="897.6" y="1314.0"/>
      <point x="897.6" y="1346.3999999999999" type="curve" smooth="yes"/>
      <point x="897.8" y="1380.4"/>
      <point x="876.6" y="1400.0"/>
      <point x="826.1999999999999" y="1400.0" type="curve" smooth="yes"/>
      <point x="308.2" y="1400.0" type="line" smooth="yes"/>
      <point x="259.40000000000003" y="1400.0"/>
      <point x="227.59999999999997" y="1376.6"/>
      <point x="227.39999999999998" y="1341.6" type="curve" smooth="yes"/>
      <point x="227.39999999999998" y="1314.0"/>
      <point x="242.79999999999998" y="1297.2"/>
      <point x="280.8" y="1279.8" type="curve" smooth="yes"/>
      <point x="335.20000000000005" y="1261.8000000000002"/>
      <point x="354.40000000000003" y="1245.6"/>
      <point x="377.79999999999995" y="1190.2" type="curve" smooth="yes"/>
      <point x="461.40000000000003" y="1009.6"/>
      <point x="720.4" y="341.4"/>
      <point x="757.8000000000001" y="232.39999999999998" type="curve" smooth="yes"/>
      <point x="777.4" y="173.79999999999998"/>
      <point x="779.8000000000001" y="143.79999999999998"/>
      <point x="737.4000000000001" y="128.2" type="curve" smooth="yes"/>
      <point x="704.4" y="120.79999999999998" type="line" smooth="yes"/>
      <point x="666.5999999999999" y="104.8"/>
      <point x="650.8000000000001" y="83.39999999999999"/>
      <point x="650.6" y="55.59999999999999" type="curve" smooth="yes"/>
      <point x="650.6" y="24.200000000000006"/>
      <point x="666.8000000000001" y="0.0"/>
      <point x="721.4" y="0.0" type="curve" smooth="yes"/>
      <point x="1227.1999999999998" y="0.0" type="line" smooth="yes"/>
      <point x="1274.0000000000002" y="0.0"/>
      <point x="1303.8" y="26.399999999999995"/>
      <point x="1303.8000000000002" y="61.20000000000001" type="curve" smooth="yes"/>
      <point x="1303.8000000000002" y="88.60000000000001"/>
      <point x="1287.2" y="106.4"/>
      <point x="1251.6000000000001" y="121.39999999999998" type="curve" smooth="yes"/>
      <point x="1194.4" y="138.6"/>
      <point x="1169.0" y="157.6"/>
      <point x="1146.4" y="222.4" type="curve" smooth="yes"/>
      <point x="1059.8000000000002" y="431.79999999999995"/>
      <point x="817.6" y="1050.4"/>
    </contour>
    <contour>
      <point x="873.1999999999999" y="697.0" type="line"/>
      <point x="1096.1999999999998" y="989.6000000000001" type="line" smooth="yes"/>
      <point x="1173.1999999999998" y="1089.0"/>
      <point x="1225.6000000000001" y="1124.3999999999999"/>
      <point x="1299.8" y="1133.2" type="curve" smooth="yes"/>
      <point x="1327.8000000000002" y="1137.0"/>
      <point x="1350.4" y="1136.2000000000003"/>
      <point x="1388.0" y="1137.8000000000002" type="curve" smooth="yes"/>
      <point x="1490.0" y="1142.6000000000001"/>
      <point x="1557.6" y="1209.8000000000002"/>
      <point x="1557.6" y="1310.1999999999998" type="curve" smooth="yes"/>
      <point x="1557.6" y="1383.8"/>
      <point x="1512.4" y="1441.1999999999998"/>
      <point x="1425.4" y="1441.1999999999998" type="curve" smooth="yes"/>
      <point x="1325.2" y="1441.1999999999998"/>
      <point x="1254.6" y="1388.2"/>
      <point x="1142.6" y="1250.8" type="curve" smooth="yes"/>
      <point x="770.8" y="770.8" type="line"/>
    </contour>
  </outline>
</glyph>
<glyph name="Y" format="2">
  <advance width="1258.4"/>
  <unicode hex="0059"/>
  <anchor x="886.5999999999999" y="1498.0" name="center"/>
  <outline>
    <contour>
      <point x="691.2" y="523.0" type="line"/>
      <point x="788.0" y="522.8" type="line"/>
      <point x="763.0" y="635.6"/>
      <point x="684.6" y="1211.6000000000001"/>
      <point x="664.8" y="1312.0000000000002" type="curve" smooth="yes"/>
      <point x="653.6" y="1373.3999999999999"/>
      <point x="619.2" y="1400.0"/>
      <point x="546.2" y="1400.0" type="curve" smooth="yes"/>
      <point x="284.3999999999999" y="1400.0" type="line" smooth="yes"/>
      <point x="232.8" y="1400.0"/>
      <point x="203.4" y="1373.6"/>
      <point x="203.59999999999997" y="1335.6" type="curve" smooth="yes"/>
      <point x="203.79999999999998" y="1308.4"/>
      <point x="221.0" y="1291.3999999999999"/>
      <point x="251.79999999999998" y="1280.6000000000001" type="curve" smooth="yes"/>
      <point x="298.0" y="1270.8"/>
      <point x="318.2" y="1252.4"/>
      <point x="328.4" y="1210.6" type="curve" smooth="yes"/>
      <point x="349.4" y="1132.9999999999998"/>
      <point x="408.40000000000003" y="648.8"/>
      <point x="423.79999999999995" y="566.4000000000001" type="curve" smooth="yes"/>
      <point x="432.2" y="521.6"/>
      <point x="441.4" y="475.59999999999997"/>
      <point x="429.00000000000006" y="434.00000000000006" type="curve" smooth="yes"/>
      <point x="368.4" y="205.2" type="line" smooth="yes"/>
      <point x="355.59999999999997" y="162.8"/>
      <point x="342.4" y="143.2"/>
      <point x="307.79999999999995" y="133.2" type="curve" smooth="yes"/>
      <point x="258.79999999999995" y="120.4" type="line" smooth="yes"/>
      <point x="224.0" y="107.0"/>
      <point x="205.2" y="83.19999999999999"/>
      <point x="205.20000000000002" y="55.4" type="curve" smooth="yes"/>
      <point x="205.20000000000002" y="21.200000000000003"/>
      <point x="222.2" y="0.0"/>
      <point x="273.59999999999997" y="0.0" type="curve" smooth="yes"/>
      <point x="770.6" y="0.0" type="line" smooth="yes"/>
      <point x="821.2" y="0.0"/>
      <point x="853.2" y="22.800000000000004"/>
      <point x="853.1999999999999" y="65.0" type="curve" smooth="yes"/>
      <point x="853.2" y="85.60000000000001"/>
      <point x="844.4" y="102.0"/>
      <point x="809.8" y="117.20000000000002" type="curve" smooth="yes"/>
      <point x="763.9999999999999" y="131.0" type="line" smooth="yes"/>
      <point x="736.4" y="140.40000000000003"/>
      <point x="726.1999999999999" y="159.20000000000002"/>
      <point x="736.6" y="194.4" type="curve" smooth="yes"/>
      <point x="788.4" y="412.40000000000003" type="line" smooth="yes"/>
      <point x="796.4" y="441.6"/>
      <point x="805.2" y="474.79999999999995"/>
      <point x="831.4" y="521.8" type="curve" smooth="yes"/>
      <point x="1038.6" y="925.0" type="line" smooth="yes"/>
      <point x="1105.3999999999999" y="1047.0"/>
      <point x="1172.0" y="1081.6000000000001"/>
      <point x="1283.3999999999999" y="1114.2" type="curve" smooth="yes"/>
      <point x="1413.1999999999998" y="1151.2"/>
      <point x="1482.0" y="1214.6"/>
      <point x="1482.0000000000002" y="1308.0" type="curve" smooth="yes"/>
      <point x="1482.0000000000002" y="1384.6"/>
      <point x="1430.2" y="1441.2"/>
      <point x="1332.8" y="1441.2" type="curve" smooth="yes"/>
      <point x="1218.2" y="1441.2"/>
      <point x="1129.0" y="1377.9999999999998"/>
      <point x="1024.0" y="1179.8" type="curve" smooth="yes"/>
    </contour>
  </outline>
</glyph>
<glyph name="Z" format="2">
  <advance width="1313.8000000000002"/>
  <unicode hex="005A"/>
  <anchor x="969.8" y="1504.0" name="center"/>
  <outline>
    <contour>
      <point x="729.8" y="0.0" type="line" smooth="yes"/>
      <point x="828.8" y="0.0"/>
      <point x="854.8" y="-28.6"/>
      <point x="924.0" y="-28.6" type="curve" smooth="yes"/>
      <point x="1088.3999999999999" y="-28.6"/>
      <point x="1194.0" y="134.60000000000002"/>
      <point x="1201.7999999999997" y="383.20000000000005" type="curve" smooth="yes"/>
      <point x="1201.7999999999997" y="431.00000000000006"/>
      <point x="1183.8" y="459.8"/>
      <point x="1142.3999999999999" y="459.8" type="curve" smooth="yes"/>
      <point x="1110.4" y="459.8"/>
      <point x="1089.8" y="442.2"/>
      <point x="1060.4" y="390.4" type="curve" smooth="yes"/>
      <point x="936.7999999999998" y="150.4"/>
      <point x="830.6" y="108.6"/>
      <point x="670.5999999999999" y="108.6" type="curve" smooth="yes"/>
      <point x="409.0" y="108.6" type="line"/>
      <point x="443.40000000000003" y="90.99999999999999" type="line"/>
      <point x="655.6" y="325.80000000000007"/>
      <point x="1209.2" y="1030.0"/>
      <point x="1348.2000000000003" y="1215.8000000000002" type="curve" smooth="yes"/>
      <point x="1394.0" y="1261.4"/>
      <point x="1427.8000000000002" y="1301.0"/>
      <point x="1427.8" y="1337.7999999999997" type="curve" smooth="yes"/>
      <point x="1427.8000000000002" y="1382.6"/>
      <point x="1401.6000000000001" y="1399.8"/>
      <point x="1340.0" y="1399.8" type="curve" smooth="yes"/>
      <point x="624.6" y="1399.8" type="line" smooth="yes"/>
      <point x="549.8000000000001" y="1399.8"/>
      <point x="519.8" y="1434.6"/>
      <point x="477.8" y="1434.6" type="curve" smooth="yes"/>
      <point x="433.99999999999994" y="1434.6"/>
      <point x="415.59999999999997" y="1418.0"/>
      <point x="384.00000000000006" y="1355.2" type="curve" smooth="yes"/>
      <point x="279.40000000000003" y="1109.6" type="line" smooth="yes"/>
      <point x="249.39999999999998" y="1053.6"/>
      <point x="253.8" y="1018.5999999999999"/>
      <point x="291.5999999999999" y="1004.6" type="curve" smooth="yes"/>
      <point x="328.6" y="989.9999999999999"/>
      <point x="366.4" y="996.5999999999999"/>
      <point x="408.2" y="1052.0" type="curve" smooth="yes"/>
      <point x="526.2" y="1221.3999999999999"/>
      <point x="626.0" y="1296.9999999999998"/>
      <point x="762.9999999999999" y="1296.9999999999998" type="curve" smooth="yes"/>
      <point x="1057.6000000000001" y="1296.9999999999998" type="line"/>
      <point x="1023.9999999999998" y="1344.2" type="line"/>
      <point x="893.4" y="1201.6000000000001"/>
      <point x="241.00000000000003" y="365.4"/>
      <point x="85.39999999999999" y="195.0" type="curve" smooth="yes"/>
      <point x="47.400000000000006" y="155.60000000000002"/>
      <point x="16.200000000000006" y="111.2"/>
      <point x="16.200000000000003" y="73.2" type="curve" smooth="yes"/>
      <point x="16.200000000000003" y="25.2"/>
      <point x="44.00000000000001" y="0.0"/>
      <point x="101.60000000000001" y="0.0" type="curve" smooth="yes"/>
    </contour>
  </outline>
</glyph>
<glyph name="bracketleft" format="2">
  <advance width="801.8000000000001"/>
  <unicode hex="005B"/>
  <outline>
    <contour>
      <point x="726.2" y="1326.6000000000001" type="line" smooth="yes"/>
      <point x="739.6000000000001" y="1376.3999999999999"/>
      <point x="766.1999999999999" y="1393.8000000000002"/>
      <point x="822.0" y="1393.8000000000002" type="curve" smooth="yes"/>
      <point x="964.4000000000001" y="1393.8000000000002" type="line" smooth="yes"/>
      <point x="1012.1999999999999" y="1393.8000000000002"/>
      <point x="1038.8000000000002" y="1413.6000000000001"/>
      <point x="1050.8" y="1450.2" type="curve" smooth="yes"/>
      <point x="1059.6000000000001" y="1482.6000000000001"/>
      <point x="1045.2" y="1506.4"/>
      <point x="997.6" y="1506.4" type="curve" smooth="yes"/>
      <point x="592.8000000000001" y="1506.4" type="line" smooth="yes"/>
      <point x="531.1999999999999" y="1506.4"/>
      <point x="500.59999999999997" y="1480.0"/>
      <point x="481.8" y="1418.8000000000002" type="curve" smooth="yes"/>
      <point x="61.6" y="-162.39999999999998" type="line" smooth="yes"/>
      <point x="44.2" y="-223.0"/>
      <point x="58.60000000000001" y="-250.0"/>
      <point x="120.39999999999999" y="-250.0" type="curve" smooth="yes"/>
      <point x="525.0" y="-250.0" type="line" smooth="yes"/>
      <point x="572.8000000000001" y="-250.0"/>
      <point x="601.8000000000001" y="-227.2"/>
      <point x="611.4" y="-194.79999999999998" type="curve" smooth="yes"/>
      <point x="621.8000000000001" y="-158.0"/>
      <point x="606.6" y="-137.6"/>
      <point x="558.8" y="-137.6" type="curve" smooth="yes"/>
      <point x="417.20000000000005" y="-137.6" type="line" smooth="yes"/>
      <point x="360.6" y="-137.6"/>
      <point x="344.6" y="-119.40000000000002"/>
      <point x="359.59999999999997" y="-71.2" type="curve" smooth="yes"/>
    </contour>
  </outline>
</glyph>
<glyph name="asciicircum" format="2">
  <advance width="929.2"/>
  <unicode hex="005E"/>
  <outline>
    <contour>
      <point x="749.2" y="1284.2" type="line"/>
      <point x="357.2" y="819.8" type="line" smooth="yes"/>
      <point x="300.0" y="764.8000000000001"/>
      <point x="245.00000000000003" y="745.0000000000001"/>
      <point x="205.2" y="745.0000000000001" type="curve" smooth="yes"/>
      <point x="148.8" y="745.0000000000001"/>
      <point x="157.60000000000002" y="804.8"/>
      <point x="219.79999999999998" y="873.1999999999999" type="curve" smooth="yes"/>
      <point x="567.2" y="1330.8" type="line" smooth="yes"/>
      <point x="641.2" y="1413.1999999999998"/>
      <point x="681.0" y="1430.4"/>
      <point x="733.1999999999999" y="1430.4" type="curve" smooth="yes"/>
      <point x="786.2" y="1430.4"/>
      <point x="815.8000000000001" y="1413.1999999999998"/>
      <point x="840.8" y="1330.8" type="curve" smooth="yes"/>
      <point x="946.8000000000001" y="870.8000000000001" type="line" smooth="yes"/>
      <point x="968.4000000000001" y="798.9999999999999"/>
      <point x="940.8000000000001" y="744.0000000000001"/>
      <point x="883.8" y="744.0000000000001" type="curve" smooth="yes"/>
      <point x="844.5999999999999" y="744.0000000000001"/>
      <point x="816.4" y="764.8000000000002"/>
      <point x="791.2" y="818.8" type="curve" smooth="yes"/>
      <point x="645.5999999999999" y="1284.2" type="line"/>
    </contour>
  </outline>
</glyph>
<glyph name="underscore" format="2">
  <advance width="987.9999999999999"/>
  <unicode hex="005F"/>
  <outline>
    <contour>
      <point x="-89.2" y="-272.79999999999995" type="curve" smooth="yes"/>
      <point x="-103.2" y="-319.8"/>
      <point x="-93.4" y="-349.6"/>
      <point x="-50.6" y="-349.6" type="curve" smooth="yes"/>
      <point x="816.4" y="-349.6" type="line" smooth="yes"/>
      <point x="858.1999999999999" y="-349.6"/>
      <point x="885.0" y="-319.8"/>
      <point x="898.2" y="-273.6" type="curve" smooth="yes"/>
      <point x="910.8000000000001" y="-226.6"/>
      <point x="900.8000000000001" y="-196.6"/>
      <point x="859.8" y="-196.6" type="curve" smooth="yes"/>
      <point x="-7.3999999999999995" y="-196.6" type="line" smooth="yes"/>
      <point x="-49.99999999999999" y="-196.6"/>
      <point x="-76.6" y="-225.8"/>
    </contour>
  </outline>
</glyph>
<glyph name="a" format="2">
  <advance width="1212.6"/>
  <unicode hex="0061"/>
  <anchor x="786.8" y="1010.0" name="center"/>
  <outline>
    <contour>
      <point x="979.6" y="326.8" type="curve" smooth="yes"/>
      <point x="1078.3999999999999" y="713.8" type="line" smooth="yes"/>
      <point x="1094.8" y="777.0"/>
      <point x="1155.0000000000002" y="769.5999999999999"/>
      <point x="1163.0" y="832.1999999999999" type="curve" smooth="yes"/>
      <point x="1171.8" y="903.2"/>
      <point x="1056.2" y="958.8"/>
      <point x="808.8000000000001" y="958.8" type="curve" smooth="yes"/>
      <point x="362.0" y="958.8"/>
      <point x="76.6" y="628.8"/>
      <point x="40.599999999999994" y="305.8" type="curve" smooth="yes"/>
      <point x="14.800000000000004" y="81.00000000000001"/>
      <point x="115.8" y="-27.0"/>
      <point x="287.59999999999997" y="-27.0" type="curve" smooth="yes"/>
      <point x="480.4" y="-27.0"/>
      <point x="661.4" y="107.6"/>
      <point x="731.4" y="326.59999999999997" type="curve"/>
      <point x="706.4" y="391.4" type="line"/>
      <point x="670.4" y="266.2"/>
      <point x="657.8" y="189.0"/>
      <point x="657.8" y="123.59999999999998" type="curve" smooth="yes"/>
      <point x="657.8" y="29.400000000000006"/>
      <point x="701.6" y="-27.0"/>
      <point x="808.8" y="-27.0" type="curve" smooth="yes"/>
      <point x="935.4" y="-27.0"/>
      <point x="1060.8" y="45.599999999999994"/>
      <point x="1118.6" y="156.0" type="curve" smooth="yes"/>
      <point x="1143.1999999999998" y="203.39999999999998"/>
      <point x="1140.6000000000001" y="235.4"/>
      <point x="1118.8000000000002" y="246.59999999999997" type="curve" smooth="yes"/>
      <point x="1101.0" y="255.39999999999998"/>
      <point x="1084.6000000000001" y="251.80000000000004"/>
      <point x="1055.8" y="227.8" type="curve" smooth="yes"/>
      <point x="1028.6000000000001" y="204.60000000000002"/>
      <point x="1013.8" y="196.39999999999995"/>
      <point x="996.0" y="196.39999999999995" type="curve" smooth="yes"/>
      <point x="967.4" y="196.39999999999995"/>
      <point x="954.4" y="227.79999999999998"/>
    </contour>
    <contour>
      <point x="391.2" y="312.2" type="curve" smooth="yes"/>
      <point x="417.40000000000003" y="549.8"/>
      <point x="572.6000000000001" y="832.0000000000001"/>
      <point x="720.2" y="832.0000000000001" type="curve" smooth="yes"/>
      <point x="765.2" y="832.0000000000001"/>
      <point x="782.6" y="792.2"/>
      <point x="767.0" y="700.0" type="curve" smooth="yes"/>
      <point x="718.8" y="403.8"/>
      <point x="561.4000000000001" y="160.6"/>
      <point x="451.40000000000003" y="160.6" type="curve" smooth="yes"/>
      <point x="408.2" y="160.6"/>
      <point x="378.8" y="199.20000000000002"/>
    </contour>
  </outline>
</glyph>
<glyph name="b" format="2">
  <advance width="1196.3999999999999"/>
  <unicode hex="0062"/>
  <outline>
    <contour>
      <point x="314.0" y="1084.0000000000002" type="curve" smooth="yes"/>
      <point x="52.2" y="169.00000000000003" type="line" smooth="yes"/>
      <point x="15.200000000000003" y="38.6"/>
      <point x="39.400000000000006" y="-10.4"/>
      <point x="102.80000000000001" y="-10.400000000000002" type="curve" smooth="yes"/>
      <point x="139.2" y="-10.4"/>
      <point x="180.0" y="7.8000000000000025"/>
      <point x="233.40000000000003" y="51.199999999999996" type="curve" smooth="yes"/>
      <point x="369.0" y="176.20000000000002" type="line"/>
      <point x="306.2" y="221.40000000000003" type="line"/>
      <point x="292.2" y="58.400000000000006"/>
      <point x="411.0" y="-27.0"/>
      <point x="577.4" y="-27.0" type="curve" smooth="yes"/>
      <point x="875.6" y="-27.0"/>
      <point x="1168.3999999999999" y="294.6"/>
      <point x="1168.3999999999999" y="664.2000000000002" type="curve" smooth="yes"/>
      <point x="1168.4" y="846.6"/>
      <point x="1070.4" y="958.4"/>
      <point x="899.2" y="958.4" type="curve" smooth="yes"/>
      <point x="709.2" y="958.4"/>
      <point x="516.0" y="830.2"/>
      <point x="429.2" y="575.0" type="curve"/>
      <point x="486.8" y="578.1999999999999" type="line"/>
      <point x="656.4" y="1153.2" type="line" smooth="yes"/>
      <point x="709.0" y="1330.1999999999998"/>
      <point x="683.6" y="1438.8"/>
      <point x="513.0" y="1438.8" type="curve" smooth="yes"/>
      <point x="358.4" y="1438.8"/>
      <point x="237.0" y="1364.6"/>
      <point x="178.40000000000003" y="1252.6" type="curve" smooth="yes"/>
      <point x="153.8" y="1205.2000000000003"/>
      <point x="156.4" y="1173.1999999999998"/>
      <point x="178.2" y="1162.0000000000002" type="curve" smooth="yes"/>
      <point x="196.0" y="1153.2000000000003"/>
      <point x="212.4" y="1156.7999999999997"/>
      <point x="241.2" y="1180.8" type="curve" smooth="yes"/>
      <point x="268.40000000000003" y="1204.2"/>
      <point x="284.00000000000006" y="1212.2"/>
      <point x="301.2" y="1212.2" type="curve" smooth="yes"/>
      <point x="331.2" y="1212.2"/>
      <point x="341.3999999999999" y="1180.7999999999997"/>
    </contour>
    <contour>
      <point x="733.8" y="792.0" type="curve" smooth="yes"/>
      <point x="780.6" y="794.3999999999999"/>
      <point x="818.4" y="763.6"/>
      <point x="818.3999999999999" y="671.6" type="curve" smooth="yes"/>
      <point x="818.3999999999999" y="412.2"/>
      <point x="647.1999999999999" y="107.39999999999999"/>
      <point x="521.6000000000001" y="107.39999999999999" type="curve" smooth="yes"/>
      <point x="471.0" y="107.39999999999999"/>
      <point x="434.8" y="148.0"/>
      <point x="436.40000000000003" y="231.00000000000003" type="curve" smooth="yes"/>
      <point x="442.0" y="465.19999999999993"/>
      <point x="605.4000000000001" y="785.5999999999999"/>
    </contour>
  </outline>
</glyph>
<glyph name="c" format="2">
  <advance width="1010.6000000000001"/>
  <unicode hex="0063"/>
  <anchor x="659.0" y="1026.0" name="center"/>
  <outline>
    <contour>
      <point x="631.1999999999999" y="834.8000000000001" type="curve" smooth="yes"/>
      <point x="678.3999999999999" y="834.8000000000001"/>
      <point x="703.9999999999999" y="800.4000000000001"/>
      <point x="703.1999999999999" y="752.8" type="curve" smooth="yes"/>
      <point x="702.4" y="703.2"/>
      <point x="682.4" y="667.8"/>
      <point x="681.6" y="620.8000000000001" type="curve" smooth="yes"/>
      <point x="680.0" y="560.1999999999999"/>
      <point x="726.2" y="517.6"/>
      <point x="811.6000000000001" y="517.6" type="curve" smooth="yes"/>
      <point x="899.6" y="517.6"/>
      <point x="989.8" y="581.4"/>
      <point x="995.4" y="694.9999999999999" type="curve" smooth="yes"/>
      <point x="1002.6" y="830.4000000000001"/>
      <point x="898.4" y="959.0"/>
      <point x="676.2000000000002" y="959.0" type="curve" smooth="yes"/>
      <point x="330.6" y="959.0"/>
      <point x="92.79999999999997" y="726.4"/>
      <point x="52.599999999999994" y="433.4" type="curve" smooth="yes"/>
      <point x="12.6" y="143.0"/>
      <point x="150.99999999999997" y="-27.0"/>
      <point x="423.8" y="-27.0" type="curve" smooth="yes"/>
      <point x="700.4000000000001" y="-27.0"/>
      <point x="865.4" y="113.4"/>
      <point x="907.8" y="274.00000000000006" type="curve" smooth="yes"/>
      <point x="926.1999999999999" y="339.79999999999995"/>
      <point x="904.4000000000001" y="374.59999999999997"/>
      <point x="870.6" y="375.4" type="curve" smooth="yes"/>
      <point x="837.0" y="376.20000000000005"/>
      <point x="819.6" y="352.0"/>
      <point x="779.6" y="305.59999999999997" type="curve" smooth="yes"/>
      <point x="728.2" y="226.0"/>
      <point x="656.6" y="180.2"/>
      <point x="578.6" y="180.0" type="curve" smooth="yes"/>
      <point x="452.19999999999993" y="179.79999999999998"/>
      <point x="386.0" y="283.8"/>
      <point x="418.0" y="507.8" type="curve" smooth="yes"/>
      <point x="447.59999999999997" y="713.0"/>
      <point x="543.4" y="834.8000000000001"/>
    </contour>
  </outline>
</glyph>
<glyph name="d" format="2">
  <advance width="1226.2"/>
  <unicode hex="0064"/>
  <anchor x="488.0" y="1022.0" name="center"/>
  <outline>
    <contour>
      <point x="1233.8" y="1153.2" type="line" smooth="yes"/>
      <point x="1283.6" y="1330.8000000000002"/>
      <point x="1261.8" y="1438.8"/>
      <point x="1086.1999999999998" y="1438.8" type="curve" smooth="yes"/>
      <point x="931.6" y="1438.8"/>
      <point x="810.2" y="1364.6000000000001"/>
      <point x="751.5999999999999" y="1252.6" type="curve" smooth="yes"/>
      <point x="727.0000000000001" y="1205.2000000000003"/>
      <point x="729.6" y="1173.2"/>
      <point x="751.4" y="1162.0000000000002" type="curve" smooth="yes"/>
      <point x="769.2" y="1153.2000000000003"/>
      <point x="785.5999999999999" y="1156.8"/>
      <point x="814.4000000000001" y="1180.8" type="curve" smooth="yes"/>
      <point x="841.6" y="1204.2"/>
      <point x="857.2000000000002" y="1212.2"/>
      <point x="874.4000000000001" y="1212.2" type="curve" smooth="yes"/>
      <point x="904.3999999999999" y="1212.2"/>
      <point x="916.0" y="1180.8000000000002"/>
      <point x="887.1999999999999" y="1084.0" type="curve" smooth="yes"/>
      <point x="702.8" y="464.6" type="line" smooth="yes"/>
      <point x="644.4" y="268.4"/>
      <point x="540.0000000000001" y="157.39999999999998"/>
      <point x="458.4" y="157.39999999999998" type="curve" smooth="yes"/>
      <point x="408.2" y="157.39999999999998"/>
      <point x="374.79999999999995" y="190.4"/>
      <point x="376.79999999999995" y="285.20000000000005" type="curve" smooth="yes"/>
      <point x="379.8" y="521.0"/>
      <point x="547.0" y="835.2"/>
      <point x="712.3999999999999" y="835.2" type="curve" smooth="yes"/>
      <point x="772.2" y="835.2"/>
      <point x="794.0" y="804.0000000000001"/>
      <point x="798.0" y="739.7999999999998" type="curve"/>
      <point x="1016.9999999999999" y="762.4000000000001" type="line"/>
      <point x="1014.0000000000001" y="872.4000000000001"/>
      <point x="926.1999999999999" y="958.8"/>
      <point x="750.0" y="958.8" type="curve" smooth="yes"/>
      <point x="365.6" y="958.8"/>
      <point x="76.19999999999999" y="672.8"/>
      <point x="36.4" y="337.8" type="curve" smooth="yes"/>
      <point x="6.200000000000003" y="99.40000000000002"/>
      <point x="103.0" y="-27.0"/>
      <point x="305.4" y="-27.0" type="curve" smooth="yes"/>
      <point x="488.40000000000003" y="-27.0"/>
      <point x="661.2" y="91.2"/>
      <point x="764.2" y="357.40000000000003" type="curve"/>
      <point x="723.8" y="379.2" type="line"/>
      <point x="693.2" y="268.6"/>
      <point x="678.6" y="187.8"/>
      <point x="678.6" y="123.6" type="curve" smooth="yes"/>
      <point x="678.6" y="30.000000000000004"/>
      <point x="723.1999999999999" y="-27.0"/>
      <point x="830.4" y="-27.0" type="curve" smooth="yes"/>
      <point x="957.0" y="-27.0"/>
      <point x="1081.6" y="45.6"/>
      <point x="1139.4" y="156.0" type="curve" smooth="yes"/>
      <point x="1164.0" y="203.4"/>
      <point x="1161.3999999999999" y="235.4"/>
      <point x="1139.6" y="246.59999999999997" type="curve" smooth="yes"/>
      <point x="1121.8" y="255.40000000000003"/>
      <point x="1105.3999999999999" y="251.8"/>
      <point x="1076.6" y="227.8" type="curve" smooth="yes"/>
      <point x="1049.3999999999999" y="204.4"/>
      <point x="1033.8000000000002" y="196.4"/>
      <point x="1016.6" y="196.4" type="curve" smooth="yes"/>
      <point x="986.6" y="196.4"/>
      <point x="972.6000000000001" y="228.40000000000003"/>
      <point x="1000.6" y="327.4" type="curve" smooth="yes"/>
    </contour>
  </outline>
</glyph>
<glyph name="e" format="2">
  <advance width="1075.0"/>
  <unicode hex="0065"/>
  <anchor x="648.4" y="1035.0" name="center"/>
  <outline>
    <contour>
      <point x="218.39999999999998" y="418.2" type="curve"/>
      <point x="227.79999999999998" y="320.6000000000001" type="line"/>
      <point x="227.79999999999998" y="320.6000000000001"/>
      <point x="775.1999999999999" y="480.59999999999997"/>
      <point x="956.6" y="532.4" type="curve" smooth="yes"/>
      <point x="1020.2" y="550.1999999999999"/>
      <point x="1039.8000000000002" y="577.5999999999999"/>
      <point x="1039.8" y="606.4" type="curve" smooth="yes"/>
      <point x="1039.8" y="628.0"/>
      <point x="1028.3999999999999" y="638.8000000000001"/>
      <point x="1008.8" y="644.0" type="curve" smooth="yes"/>
      <point x="990.4000000000001" y="649.4"/>
      <point x="980.6" y="672.2"/>
      <point x="976.6" y="699.8" type="curve" smooth="yes"/>
      <point x="958.2" y="846.8000000000001"/>
      <point x="871.6" y="959.0"/>
      <point x="672.4" y="959.0" type="curve" smooth="yes"/>
      <point x="334.2" y="959.0"/>
      <point x="75.8" y="703.1999999999999"/>
      <point x="47.60000000000001" y="381.0" type="curve" smooth="yes"/>
      <point x="26.000000000000004" y="130.2"/>
      <point x="149.0" y="-27.0"/>
      <point x="448.59999999999997" y="-27.0" type="curve" smooth="yes"/>
      <point x="762.6" y="-27.0"/>
      <point x="936.2" y="127.6"/>
      <point x="975.8" y="293.0" type="curve" smooth="yes"/>
      <point x="992.2" y="356.59999999999997"/>
      <point x="967.2" y="383.8"/>
      <point x="933.8000000000001" y="384.59999999999997" type="curve" smooth="yes"/>
      <point x="905.8" y="385.40000000000003"/>
      <point x="886.0000000000001" y="373.2"/>
      <point x="850.8" y="330.8" type="curve" smooth="yes"/>
      <point x="788.8" y="237.2"/>
      <point x="696.4000000000001" y="176.20000000000002"/>
      <point x="588.0" y="176.20000000000002" type="curve" smooth="yes"/>
      <point x="451.0" y="176.20000000000002"/>
      <point x="380.4" y="275.0"/>
      <point x="397.0" y="465.8" type="curve" smooth="yes"/>
      <point x="416.20000000000005" y="687.8"/>
      <point x="518.5999999999999" y="838.1999999999999"/>
      <point x="608.0" y="838.1999999999999" type="curve" smooth="yes"/>
      <point x="657.8" y="838.1999999999999"/>
      <point x="685.2" y="789.3999999999999"/>
      <point x="685.1999999999999" y="713.8" type="curve" smooth="yes"/>
      <point x="684.4" y="634.2"/>
      <point x="675.2000000000002" y="571.0"/>
      <point x="661.0" y="524.8000000000001" type="curve"/>
      <point x="695.4" y="564.8000000000001" type="line"/>
      <point x="546.1999999999999" y="517.6"/>
      <point x="218.39999999999998" y="418.2"/>
    </contour>
  </outline>
</glyph>
<glyph name="f" format="2">
  <advance width="744.8"/>
  <unicode hex="0066"/>
  <outline>
    <contour>
      <point x="418.2" y="697.5999999999999" type="line"/>
      <point x="644.2" y="697.5999999999999" type="line" smooth="yes"/>
      <point x="734.3999999999999" y="697.5999999999999"/>
      <point x="796.2" y="742.0370370370371"/>
      <point x="796.2" y="796.9999999999999" type="curve" smooth="yes"/>
      <point x="796.2" y="841.4769230769231"/>
      <point x="762.1999999999999" y="855.2"/>
      <point x="703.8000000000001" y="855.2" type="curve" smooth="yes"/>
      <point x="477.4" y="856.0000000000001" type="line"/>
    </contour>
    <contour>
      <point x="85.40000000000002" y="796.9999999999999" type="curve" smooth="yes"/>
      <point x="85.40000000000002" y="771.2000000000002"/>
      <point x="98.0" y="750.1999999999999"/>
      <point x="159.00000000000003" y="719.0000000000001" type="curve" smooth="yes"/>
      <point x="220.20000000000005" y="698.2"/>
      <point x="232.0" y="665.4"/>
      <point x="206.79999999999998" y="577.4" type="curve" smooth="yes"/>
      <point x="-6.199999999999994" y="-170.60000000000002" type="line" smooth="yes"/>
      <point x="-50.199999999999996" y="-324.79999999999995"/>
      <point x="-19.599999999999994" y="-406.79999999999995"/>
      <point x="99.4" y="-406.79999999999995" type="curve" smooth="yes"/>
      <point x="265.59999999999997" y="-406.79999999999995"/>
      <point x="432.6" y="-324.2"/>
      <point x="432.6" y="-238.20000000000005" type="curve" smooth="yes"/>
      <point x="432.6" y="-179.40000000000003"/>
      <point x="353.79999999999995" y="-165.8"/>
      <point x="353.79999999999995" y="-99.0" type="curve" smooth="yes"/>
      <point x="353.79999999999995" y="-76.40000000000003"/>
      <point x="357.4" y="-45.599999999999994"/>
      <point x="368.19999999999993" y="-4.399999999999999" type="curve" smooth="yes"/>
      <point x="580.5999999999999" y="795.6" type="line" smooth="yes"/>
      <point x="613.6000000000001" y="920.6"/>
      <point x="466.4" y="1061.0"/>
      <point x="486.00000000000006" y="1152.7999999999997" type="curve" smooth="yes"/>
      <point x="496.6" y="1197.3999999999999"/>
      <point x="524.6" y="1225.4"/>
      <point x="568.9999999999999" y="1225.4" type="curve" smooth="yes"/>
      <point x="649.0" y="1225.4"/>
      <point x="724.4" y="1095.6"/>
      <point x="837.1999999999999" y="1095.6" type="curve" smooth="yes"/>
      <point x="929.3704918032787" y="1095.6"/>
      <point x="991.1999999999999" y="1160.70243902439"/>
      <point x="991.1999999999999" y="1259.8" type="curve" smooth="yes"/>
      <point x="991.1999999999999" y="1354.2"/>
      <point x="910.125" y="1435.4"/>
      <point x="750.8" y="1435.4" type="curve" smooth="yes"/>
      <point x="502.0" y="1435.4"/>
      <point x="364.2" y="1285.3999999999999"/>
      <point x="304.4" y="1015.8" type="curve" smooth="yes"/>
      <point x="268.79999999999995" y="858.4000000000001" type="line"/>
      <point x="170.2" y="858.4000000000001" type="line" smooth="yes"/>
      <point x="114.2" y="858.4000000000001"/>
      <point x="85.40000000000002" y="832.6"/>
    </contour>
  </outline>
</glyph>
<glyph name="g" format="2">
  <advance width="1142.2000000000003"/>
  <unicode hex="0067"/>
  <anchor x="787.9999999999999" y="1010.0" name="center"/>
  <outline>
    <contour>
      <point x="930.2" y="20.800000000000004" type="curve" smooth="yes"/>
      <point x="1078.6" y="716.1999999999999" type="line" smooth="yes"/>
      <point x="1092.6" y="780.2"/>
      <point x="1153.9999999999998" y="771.2"/>
      <point x="1162.0000000000002" y="834.4000000000001" type="curve" smooth="yes"/>
      <point x="1170.8" y="904.4"/>
      <point x="1056.4" y="959.1999999999999"/>
      <point x="810.0" y="959.1999999999999" type="curve"/>
      <point x="357.99999999999994" y="959.1999999999999"/>
      <point x="76.6" y="627.8"/>
      <point x="41.800000000000004" y="302.4" type="curve" smooth="yes"/>
      <point x="17.0" y="80.4"/>
      <point x="118.6" y="-27.0"/>
      <point x="289.59999999999997" y="-27.0" type="curve" smooth="yes"/>
      <point x="484.20000000000005" y="-27.0"/>
      <point x="660.9999999999999" y="104.8"/>
      <point x="728.8000000000001" y="315.4" type="curve"/>
      <point x="682.8" y="343.2" type="line"/>
      <point x="554.4" y="-170.00000000000003" type="line" smooth="yes"/>
      <point x="518.0" y="-317.6"/>
      <point x="455.59999999999997" y="-370.4"/>
      <point x="377.0" y="-370.4" type="curve" smooth="yes"/>
      <point x="274.00000000000006" y="-370.4"/>
      <point x="194.60000000000002" y="-161.20000000000002"/>
      <point x="53.800000000000004" y="-161.20000000000002" type="curve" smooth="yes"/>
      <point x="-39.80000000000001" y="-161.20000000000002"/>
      <point x="-97.79999999999998" y="-227.39999999999998"/>
      <point x="-97.79999999999998" y="-307.20000000000005" type="curve" smooth="yes"/>
      <point x="-97.79999999999998" y="-427.0"/>
      <point x="15.399999999999991" y="-508.4"/>
      <point x="227.39999999999998" y="-508.4" type="curve" smooth="yes"/>
      <point x="621.0000000000001" y="-508.4"/>
      <point x="857.8000000000001" y="-317.79999999999995"/>
    </contour>
    <contour>
      <point x="392.8" y="312.79999999999995" type="curve" smooth="yes"/>
      <point x="416.8" y="552.2"/>
      <point x="573.2000000000002" y="832.0000000000001"/>
      <point x="717.8" y="832.0000000000001" type="curve" smooth="yes"/>
      <point x="762.1999999999999" y="832.0000000000001"/>
      <point x="778.9999999999999" y="791.5999999999999"/>
      <point x="764.6000000000001" y="698.5999999999999" type="curve" smooth="yes"/>
      <point x="726.2" y="418.59999999999997"/>
      <point x="571.2" y="162.00000000000003"/>
      <point x="455.59999999999997" y="162.00000000000003" type="curve" smooth="yes"/>
      <point x="413.4" y="162.00000000000003"/>
      <point x="381.20000000000005" y="198.80000000000004"/>
    </contour>
  </outline>
</glyph>
<glyph name="h" format="2">
  <advance width="1243.6000000000001"/>
  <unicode hex="0068"/>
  <anchor x="493.79999999999995" y="980.0" name="center"/>
  <outline>
    <contour>
      <point x="480.4" y="567.2" type="line"/>
      <point x="459.0" y="574.8000000000001" type="line"/>
      <point x="603.1999999999999" y="862.8000000000001"/>
      <point x="813.5999999999999" y="958.8"/>
      <point x="971.4000000000001" y="958.8" type="curve" smooth="yes"/>
      <point x="1156.1999999999998" y="958.8"/>
      <point x="1188.6000000000001" y="829.2"/>
      <point x="1121.8" y="640.4" type="curve" smooth="yes"/>
      <point x="1011.8000000000001" y="327.59999999999997" type="line" smooth="yes"/>
      <point x="977.9999999999999" y="231.8"/>
      <point x="993.0" y="199.60000000000002"/>
      <point x="1023.0000000000001" y="199.60000000000002" type="curve" smooth="yes"/>
      <point x="1040.2000000000003" y="199.60000000000002"/>
      <point x="1055.8" y="207.59999999999997"/>
      <point x="1083.0" y="230.99999999999997" type="curve" smooth="yes"/>
      <point x="1111.8" y="255.0"/>
      <point x="1128.2" y="258.59999999999997"/>
      <point x="1146.0000000000002" y="249.79999999999995" type="curve" smooth="yes"/>
      <point x="1167.8000000000002" y="238.6"/>
      <point x="1170.4" y="206.60000000000002"/>
      <point x="1145.8000000000002" y="159.20000000000002" type="curve" smooth="yes"/>
      <point x="1087.1999999999998" y="47.199999999999996"/>
      <point x="963.4" y="-27.0"/>
      <point x="807.1999999999999" y="-27.0" type="curve" smooth="yes"/>
      <point x="631.0000000000001" y="-27.0"/>
      <point x="599.4000000000001" y="84.8"/>
      <point x="660.8" y="258.2" type="curve" smooth="yes"/>
      <point x="771.8000000000001" y="573.9999999999999" type="line" smooth="yes"/>
      <point x="807.9999999999999" y="677.8"/>
      <point x="800.2" y="722.6"/>
      <point x="740.8" y="722.6" type="curve" smooth="yes"/>
      <point x="657.1999999999999" y="722.6"/>
      <point x="536.5999999999999" y="609.8"/>
      <point x="465.59999999999997" y="418.0" type="curve" smooth="yes"/>
      <point x="429.8" y="323.2"/>
      <point x="409.79999999999995" y="257.0"/>
      <point x="409.79999999999995" y="216.4" type="curve" smooth="yes"/>
      <point x="409.79999999999995" y="175.2"/>
      <point x="429.40000000000003" y="147.0"/>
      <point x="429.40000000000003" y="103.20000000000002" type="curve" smooth="yes"/>
      <point x="429.40000000000003" y="24.4"/>
      <point x="327.00000000000006" y="-27.0"/>
      <point x="154.2" y="-27.0" type="curve" smooth="yes"/>
      <point x="32.8" y="-27.0"/>
      <point x="17.400000000000002" y="54.800000000000004"/>
      <point x="57.4" y="194.8" type="curve" smooth="yes"/>
      <point x="311.40000000000003" y="1084.0000000000002" type="line" smooth="yes"/>
      <point x="338.8" y="1180.7999999999997"/>
      <point x="328.59999999999997" y="1212.2"/>
      <point x="298.59999999999997" y="1212.2" type="curve" smooth="yes"/>
      <point x="281.4" y="1212.2"/>
      <point x="265.79999999999995" y="1204.2"/>
      <point x="238.6" y="1180.8" type="curve" smooth="yes"/>
      <point x="209.80000000000004" y="1156.8"/>
      <point x="193.4" y="1153.2000000000003"/>
      <point x="175.60000000000002" y="1162.0000000000002" type="curve" smooth="yes"/>
      <point x="153.79999999999998" y="1173.2"/>
      <point x="151.20000000000002" y="1205.2000000000003"/>
      <point x="175.79999999999998" y="1252.6" type="curve" smooth="yes"/>
      <point x="234.40000000000003" y="1364.6000000000001"/>
      <point x="355.8" y="1438.8"/>
      <point x="510.40000000000003" y="1438.8" type="curve" smooth="yes"/>
      <point x="680.2" y="1438.8"/>
      <point x="705.4" y="1329.9999999999998"/>
      <point x="653.0000000000001" y="1153.2" type="curve" smooth="yes"/>
    </contour>
  </outline>
</glyph>
